G04 #@! TF.GenerationSoftware,KiCad,Pcbnew,(5.1.5-0-10_14)*
G04 #@! TF.CreationDate,2020-04-26T19:30:02+09:00*
G04 #@! TF.ProjectId,TriCon,54726943-6f6e-42e6-9b69-6361645f7063,1.0*
G04 #@! TF.SameCoordinates,Original*
G04 #@! TF.FileFunction,Soldermask,Top*
G04 #@! TF.FilePolarity,Negative*
%FSLAX46Y46*%
G04 Gerber Fmt 4.6, Leading zero omitted, Abs format (unit mm)*
G04 Created by KiCad (PCBNEW (5.1.5-0-10_14)) date 2020-04-26 19:30:02*
%MOMM*%
%LPD*%
G04 APERTURE LIST*
%ADD10C,0.100000*%
G04 APERTURE END LIST*
D10*
G36*
X159701000Y-109801000D02*
G01*
X157899000Y-109801000D01*
X157899000Y-107999000D01*
X159701000Y-107999000D01*
X159701000Y-109801000D01*
G37*
G36*
X156373512Y-108003927D02*
G01*
X156522812Y-108033624D01*
X156686784Y-108101544D01*
X156834354Y-108200147D01*
X156959853Y-108325646D01*
X157058456Y-108473216D01*
X157126376Y-108637188D01*
X157161000Y-108811259D01*
X157161000Y-108988741D01*
X157126376Y-109162812D01*
X157058456Y-109326784D01*
X156959853Y-109474354D01*
X156834354Y-109599853D01*
X156686784Y-109698456D01*
X156522812Y-109766376D01*
X156373512Y-109796073D01*
X156348742Y-109801000D01*
X156171258Y-109801000D01*
X156146488Y-109796073D01*
X155997188Y-109766376D01*
X155833216Y-109698456D01*
X155685646Y-109599853D01*
X155560147Y-109474354D01*
X155461544Y-109326784D01*
X155393624Y-109162812D01*
X155359000Y-108988741D01*
X155359000Y-108811259D01*
X155393624Y-108637188D01*
X155461544Y-108473216D01*
X155560147Y-108325646D01*
X155685646Y-108200147D01*
X155833216Y-108101544D01*
X155997188Y-108033624D01*
X156146488Y-108003927D01*
X156171258Y-107999000D01*
X156348742Y-107999000D01*
X156373512Y-108003927D01*
G37*
G36*
X153833512Y-108003927D02*
G01*
X153982812Y-108033624D01*
X154146784Y-108101544D01*
X154294354Y-108200147D01*
X154419853Y-108325646D01*
X154518456Y-108473216D01*
X154586376Y-108637188D01*
X154621000Y-108811259D01*
X154621000Y-108988741D01*
X154586376Y-109162812D01*
X154518456Y-109326784D01*
X154419853Y-109474354D01*
X154294354Y-109599853D01*
X154146784Y-109698456D01*
X153982812Y-109766376D01*
X153833512Y-109796073D01*
X153808742Y-109801000D01*
X153631258Y-109801000D01*
X153606488Y-109796073D01*
X153457188Y-109766376D01*
X153293216Y-109698456D01*
X153145646Y-109599853D01*
X153020147Y-109474354D01*
X152921544Y-109326784D01*
X152853624Y-109162812D01*
X152819000Y-108988741D01*
X152819000Y-108811259D01*
X152853624Y-108637188D01*
X152921544Y-108473216D01*
X153020147Y-108325646D01*
X153145646Y-108200147D01*
X153293216Y-108101544D01*
X153457188Y-108033624D01*
X153606488Y-108003927D01*
X153631258Y-107999000D01*
X153808742Y-107999000D01*
X153833512Y-108003927D01*
G37*
G36*
X151293512Y-108003927D02*
G01*
X151442812Y-108033624D01*
X151606784Y-108101544D01*
X151754354Y-108200147D01*
X151879853Y-108325646D01*
X151978456Y-108473216D01*
X152046376Y-108637188D01*
X152081000Y-108811259D01*
X152081000Y-108988741D01*
X152046376Y-109162812D01*
X151978456Y-109326784D01*
X151879853Y-109474354D01*
X151754354Y-109599853D01*
X151606784Y-109698456D01*
X151442812Y-109766376D01*
X151293512Y-109796073D01*
X151268742Y-109801000D01*
X151091258Y-109801000D01*
X151066488Y-109796073D01*
X150917188Y-109766376D01*
X150753216Y-109698456D01*
X150605646Y-109599853D01*
X150480147Y-109474354D01*
X150381544Y-109326784D01*
X150313624Y-109162812D01*
X150279000Y-108988741D01*
X150279000Y-108811259D01*
X150313624Y-108637188D01*
X150381544Y-108473216D01*
X150480147Y-108325646D01*
X150605646Y-108200147D01*
X150753216Y-108101544D01*
X150917188Y-108033624D01*
X151066488Y-108003927D01*
X151091258Y-107999000D01*
X151268742Y-107999000D01*
X151293512Y-108003927D01*
G37*
G36*
X148753512Y-108003927D02*
G01*
X148902812Y-108033624D01*
X149066784Y-108101544D01*
X149214354Y-108200147D01*
X149339853Y-108325646D01*
X149438456Y-108473216D01*
X149506376Y-108637188D01*
X149541000Y-108811259D01*
X149541000Y-108988741D01*
X149506376Y-109162812D01*
X149438456Y-109326784D01*
X149339853Y-109474354D01*
X149214354Y-109599853D01*
X149066784Y-109698456D01*
X148902812Y-109766376D01*
X148753512Y-109796073D01*
X148728742Y-109801000D01*
X148551258Y-109801000D01*
X148526488Y-109796073D01*
X148377188Y-109766376D01*
X148213216Y-109698456D01*
X148065646Y-109599853D01*
X147940147Y-109474354D01*
X147841544Y-109326784D01*
X147773624Y-109162812D01*
X147739000Y-108988741D01*
X147739000Y-108811259D01*
X147773624Y-108637188D01*
X147841544Y-108473216D01*
X147940147Y-108325646D01*
X148065646Y-108200147D01*
X148213216Y-108101544D01*
X148377188Y-108033624D01*
X148526488Y-108003927D01*
X148551258Y-107999000D01*
X148728742Y-107999000D01*
X148753512Y-108003927D01*
G37*
G36*
X146213512Y-108003927D02*
G01*
X146362812Y-108033624D01*
X146526784Y-108101544D01*
X146674354Y-108200147D01*
X146799853Y-108325646D01*
X146898456Y-108473216D01*
X146966376Y-108637188D01*
X147001000Y-108811259D01*
X147001000Y-108988741D01*
X146966376Y-109162812D01*
X146898456Y-109326784D01*
X146799853Y-109474354D01*
X146674354Y-109599853D01*
X146526784Y-109698456D01*
X146362812Y-109766376D01*
X146213512Y-109796073D01*
X146188742Y-109801000D01*
X146011258Y-109801000D01*
X145986488Y-109796073D01*
X145837188Y-109766376D01*
X145673216Y-109698456D01*
X145525646Y-109599853D01*
X145400147Y-109474354D01*
X145301544Y-109326784D01*
X145233624Y-109162812D01*
X145199000Y-108988741D01*
X145199000Y-108811259D01*
X145233624Y-108637188D01*
X145301544Y-108473216D01*
X145400147Y-108325646D01*
X145525646Y-108200147D01*
X145673216Y-108101544D01*
X145837188Y-108033624D01*
X145986488Y-108003927D01*
X146011258Y-107999000D01*
X146188742Y-107999000D01*
X146213512Y-108003927D01*
G37*
G36*
X143673512Y-108003927D02*
G01*
X143822812Y-108033624D01*
X143986784Y-108101544D01*
X144134354Y-108200147D01*
X144259853Y-108325646D01*
X144358456Y-108473216D01*
X144426376Y-108637188D01*
X144461000Y-108811259D01*
X144461000Y-108988741D01*
X144426376Y-109162812D01*
X144358456Y-109326784D01*
X144259853Y-109474354D01*
X144134354Y-109599853D01*
X143986784Y-109698456D01*
X143822812Y-109766376D01*
X143673512Y-109796073D01*
X143648742Y-109801000D01*
X143471258Y-109801000D01*
X143446488Y-109796073D01*
X143297188Y-109766376D01*
X143133216Y-109698456D01*
X142985646Y-109599853D01*
X142860147Y-109474354D01*
X142761544Y-109326784D01*
X142693624Y-109162812D01*
X142659000Y-108988741D01*
X142659000Y-108811259D01*
X142693624Y-108637188D01*
X142761544Y-108473216D01*
X142860147Y-108325646D01*
X142985646Y-108200147D01*
X143133216Y-108101544D01*
X143297188Y-108033624D01*
X143446488Y-108003927D01*
X143471258Y-107999000D01*
X143648742Y-107999000D01*
X143673512Y-108003927D01*
G37*
G36*
X141133512Y-108003927D02*
G01*
X141282812Y-108033624D01*
X141446784Y-108101544D01*
X141594354Y-108200147D01*
X141719853Y-108325646D01*
X141818456Y-108473216D01*
X141886376Y-108637188D01*
X141921000Y-108811259D01*
X141921000Y-108988741D01*
X141886376Y-109162812D01*
X141818456Y-109326784D01*
X141719853Y-109474354D01*
X141594354Y-109599853D01*
X141446784Y-109698456D01*
X141282812Y-109766376D01*
X141133512Y-109796073D01*
X141108742Y-109801000D01*
X140931258Y-109801000D01*
X140906488Y-109796073D01*
X140757188Y-109766376D01*
X140593216Y-109698456D01*
X140445646Y-109599853D01*
X140320147Y-109474354D01*
X140221544Y-109326784D01*
X140153624Y-109162812D01*
X140119000Y-108988741D01*
X140119000Y-108811259D01*
X140153624Y-108637188D01*
X140221544Y-108473216D01*
X140320147Y-108325646D01*
X140445646Y-108200147D01*
X140593216Y-108101544D01*
X140757188Y-108033624D01*
X140906488Y-108003927D01*
X140931258Y-107999000D01*
X141108742Y-107999000D01*
X141133512Y-108003927D01*
G37*
G36*
X158913512Y-105383927D02*
G01*
X159062812Y-105413624D01*
X159226784Y-105481544D01*
X159374354Y-105580147D01*
X159499853Y-105705646D01*
X159598456Y-105853216D01*
X159666376Y-106017188D01*
X159701000Y-106191259D01*
X159701000Y-106368741D01*
X159666376Y-106542812D01*
X159598456Y-106706784D01*
X159499853Y-106854354D01*
X159374354Y-106979853D01*
X159226784Y-107078456D01*
X159062812Y-107146376D01*
X158913512Y-107176073D01*
X158888742Y-107181000D01*
X158711258Y-107181000D01*
X158686488Y-107176073D01*
X158537188Y-107146376D01*
X158373216Y-107078456D01*
X158225646Y-106979853D01*
X158100147Y-106854354D01*
X158001544Y-106706784D01*
X157933624Y-106542812D01*
X157899000Y-106368741D01*
X157899000Y-106191259D01*
X157933624Y-106017188D01*
X158001544Y-105853216D01*
X158100147Y-105705646D01*
X158225646Y-105580147D01*
X158373216Y-105481544D01*
X158537188Y-105413624D01*
X158686488Y-105383927D01*
X158711258Y-105379000D01*
X158888742Y-105379000D01*
X158913512Y-105383927D01*
G37*
G36*
X141901000Y-107181000D02*
G01*
X140099000Y-107181000D01*
X140099000Y-105379000D01*
X141901000Y-105379000D01*
X141901000Y-107181000D01*
G37*
G36*
X154464499Y-105403445D02*
G01*
X154501995Y-105414820D01*
X154536554Y-105433292D01*
X154566847Y-105458153D01*
X154591708Y-105488446D01*
X154610180Y-105523005D01*
X154621555Y-105560501D01*
X154626000Y-105605638D01*
X154626000Y-106344362D01*
X154621555Y-106389499D01*
X154610180Y-106426995D01*
X154591708Y-106461554D01*
X154566847Y-106491847D01*
X154536554Y-106516708D01*
X154501995Y-106535180D01*
X154464499Y-106546555D01*
X154419362Y-106551000D01*
X153780638Y-106551000D01*
X153735501Y-106546555D01*
X153698005Y-106535180D01*
X153663446Y-106516708D01*
X153633153Y-106491847D01*
X153608292Y-106461554D01*
X153589820Y-106426995D01*
X153578445Y-106389499D01*
X153574000Y-106344362D01*
X153574000Y-105605638D01*
X153578445Y-105560501D01*
X153589820Y-105523005D01*
X153608292Y-105488446D01*
X153633153Y-105458153D01*
X153663446Y-105433292D01*
X153698005Y-105414820D01*
X153735501Y-105403445D01*
X153780638Y-105399000D01*
X154419362Y-105399000D01*
X154464499Y-105403445D01*
G37*
G36*
X148900170Y-103375803D02*
G01*
X148911875Y-103379354D01*
X148922665Y-103385121D01*
X148932119Y-103392881D01*
X148939879Y-103402335D01*
X148945646Y-103413125D01*
X148949197Y-103424830D01*
X148951000Y-103443138D01*
X148951000Y-104906862D01*
X148949197Y-104925170D01*
X148945646Y-104936875D01*
X148939879Y-104947665D01*
X148932119Y-104957119D01*
X148922665Y-104964879D01*
X148911875Y-104970646D01*
X148900170Y-104974197D01*
X148881862Y-104976000D01*
X148518138Y-104976000D01*
X148499830Y-104974197D01*
X148488125Y-104970646D01*
X148477335Y-104964879D01*
X148467881Y-104957119D01*
X148460121Y-104947665D01*
X148454354Y-104936875D01*
X148450803Y-104925170D01*
X148449000Y-104906862D01*
X148449000Y-103443138D01*
X148450803Y-103424830D01*
X148454354Y-103413125D01*
X148460121Y-103402335D01*
X148467881Y-103392881D01*
X148477335Y-103385121D01*
X148488125Y-103379354D01*
X148499830Y-103375803D01*
X148518138Y-103374000D01*
X148881862Y-103374000D01*
X148900170Y-103375803D01*
G37*
G36*
X149700170Y-103375803D02*
G01*
X149711875Y-103379354D01*
X149722665Y-103385121D01*
X149732119Y-103392881D01*
X149739879Y-103402335D01*
X149745646Y-103413125D01*
X149749197Y-103424830D01*
X149751000Y-103443138D01*
X149751000Y-104906862D01*
X149749197Y-104925170D01*
X149745646Y-104936875D01*
X149739879Y-104947665D01*
X149732119Y-104957119D01*
X149722665Y-104964879D01*
X149711875Y-104970646D01*
X149700170Y-104974197D01*
X149681862Y-104976000D01*
X149318138Y-104976000D01*
X149299830Y-104974197D01*
X149288125Y-104970646D01*
X149277335Y-104964879D01*
X149267881Y-104957119D01*
X149260121Y-104947665D01*
X149254354Y-104936875D01*
X149250803Y-104925170D01*
X149249000Y-104906862D01*
X149249000Y-103443138D01*
X149250803Y-103424830D01*
X149254354Y-103413125D01*
X149260121Y-103402335D01*
X149267881Y-103392881D01*
X149277335Y-103385121D01*
X149288125Y-103379354D01*
X149299830Y-103375803D01*
X149318138Y-103374000D01*
X149681862Y-103374000D01*
X149700170Y-103375803D01*
G37*
G36*
X150500170Y-103375803D02*
G01*
X150511875Y-103379354D01*
X150522665Y-103385121D01*
X150532119Y-103392881D01*
X150539879Y-103402335D01*
X150545646Y-103413125D01*
X150549197Y-103424830D01*
X150551000Y-103443138D01*
X150551000Y-104906862D01*
X150549197Y-104925170D01*
X150545646Y-104936875D01*
X150539879Y-104947665D01*
X150532119Y-104957119D01*
X150522665Y-104964879D01*
X150511875Y-104970646D01*
X150500170Y-104974197D01*
X150481862Y-104976000D01*
X150118138Y-104976000D01*
X150099830Y-104974197D01*
X150088125Y-104970646D01*
X150077335Y-104964879D01*
X150067881Y-104957119D01*
X150060121Y-104947665D01*
X150054354Y-104936875D01*
X150050803Y-104925170D01*
X150049000Y-104906862D01*
X150049000Y-103443138D01*
X150050803Y-103424830D01*
X150054354Y-103413125D01*
X150060121Y-103402335D01*
X150067881Y-103392881D01*
X150077335Y-103385121D01*
X150088125Y-103379354D01*
X150099830Y-103375803D01*
X150118138Y-103374000D01*
X150481862Y-103374000D01*
X150500170Y-103375803D01*
G37*
G36*
X151300170Y-103375803D02*
G01*
X151311875Y-103379354D01*
X151322665Y-103385121D01*
X151332119Y-103392881D01*
X151339879Y-103402335D01*
X151345646Y-103413125D01*
X151349197Y-103424830D01*
X151351000Y-103443138D01*
X151351000Y-104906862D01*
X151349197Y-104925170D01*
X151345646Y-104936875D01*
X151339879Y-104947665D01*
X151332119Y-104957119D01*
X151322665Y-104964879D01*
X151311875Y-104970646D01*
X151300170Y-104974197D01*
X151281862Y-104976000D01*
X150918138Y-104976000D01*
X150899830Y-104974197D01*
X150888125Y-104970646D01*
X150877335Y-104964879D01*
X150867881Y-104957119D01*
X150860121Y-104947665D01*
X150854354Y-104936875D01*
X150850803Y-104925170D01*
X150849000Y-104906862D01*
X150849000Y-103443138D01*
X150850803Y-103424830D01*
X150854354Y-103413125D01*
X150860121Y-103402335D01*
X150867881Y-103392881D01*
X150877335Y-103385121D01*
X150888125Y-103379354D01*
X150899830Y-103375803D01*
X150918138Y-103374000D01*
X151281862Y-103374000D01*
X151300170Y-103375803D01*
G37*
G36*
X152100170Y-103375803D02*
G01*
X152111875Y-103379354D01*
X152122665Y-103385121D01*
X152132119Y-103392881D01*
X152139879Y-103402335D01*
X152145646Y-103413125D01*
X152149197Y-103424830D01*
X152151000Y-103443138D01*
X152151000Y-104906862D01*
X152149197Y-104925170D01*
X152145646Y-104936875D01*
X152139879Y-104947665D01*
X152132119Y-104957119D01*
X152122665Y-104964879D01*
X152111875Y-104970646D01*
X152100170Y-104974197D01*
X152081862Y-104976000D01*
X151718138Y-104976000D01*
X151699830Y-104974197D01*
X151688125Y-104970646D01*
X151677335Y-104964879D01*
X151667881Y-104957119D01*
X151660121Y-104947665D01*
X151654354Y-104936875D01*
X151650803Y-104925170D01*
X151649000Y-104906862D01*
X151649000Y-103443138D01*
X151650803Y-103424830D01*
X151654354Y-103413125D01*
X151660121Y-103402335D01*
X151667881Y-103392881D01*
X151677335Y-103385121D01*
X151688125Y-103379354D01*
X151699830Y-103375803D01*
X151718138Y-103374000D01*
X152081862Y-103374000D01*
X152100170Y-103375803D01*
G37*
G36*
X152900170Y-103375803D02*
G01*
X152911875Y-103379354D01*
X152922665Y-103385121D01*
X152932119Y-103392881D01*
X152939879Y-103402335D01*
X152945646Y-103413125D01*
X152949197Y-103424830D01*
X152951000Y-103443138D01*
X152951000Y-104906862D01*
X152949197Y-104925170D01*
X152945646Y-104936875D01*
X152939879Y-104947665D01*
X152932119Y-104957119D01*
X152922665Y-104964879D01*
X152911875Y-104970646D01*
X152900170Y-104974197D01*
X152881862Y-104976000D01*
X152518138Y-104976000D01*
X152499830Y-104974197D01*
X152488125Y-104970646D01*
X152477335Y-104964879D01*
X152467881Y-104957119D01*
X152460121Y-104947665D01*
X152454354Y-104936875D01*
X152450803Y-104925170D01*
X152449000Y-104906862D01*
X152449000Y-103443138D01*
X152450803Y-103424830D01*
X152454354Y-103413125D01*
X152460121Y-103402335D01*
X152467881Y-103392881D01*
X152477335Y-103385121D01*
X152488125Y-103379354D01*
X152499830Y-103375803D01*
X152518138Y-103374000D01*
X152881862Y-103374000D01*
X152900170Y-103375803D01*
G37*
G36*
X148100170Y-103375803D02*
G01*
X148111875Y-103379354D01*
X148122665Y-103385121D01*
X148132119Y-103392881D01*
X148139879Y-103402335D01*
X148145646Y-103413125D01*
X148149197Y-103424830D01*
X148151000Y-103443138D01*
X148151000Y-104906862D01*
X148149197Y-104925170D01*
X148145646Y-104936875D01*
X148139879Y-104947665D01*
X148132119Y-104957119D01*
X148122665Y-104964879D01*
X148111875Y-104970646D01*
X148100170Y-104974197D01*
X148081862Y-104976000D01*
X147718138Y-104976000D01*
X147699830Y-104974197D01*
X147688125Y-104970646D01*
X147677335Y-104964879D01*
X147667881Y-104957119D01*
X147660121Y-104947665D01*
X147654354Y-104936875D01*
X147650803Y-104925170D01*
X147649000Y-104906862D01*
X147649000Y-103443138D01*
X147650803Y-103424830D01*
X147654354Y-103413125D01*
X147660121Y-103402335D01*
X147667881Y-103392881D01*
X147677335Y-103385121D01*
X147688125Y-103379354D01*
X147699830Y-103375803D01*
X147718138Y-103374000D01*
X148081862Y-103374000D01*
X148100170Y-103375803D01*
G37*
G36*
X147300170Y-103375803D02*
G01*
X147311875Y-103379354D01*
X147322665Y-103385121D01*
X147332119Y-103392881D01*
X147339879Y-103402335D01*
X147345646Y-103413125D01*
X147349197Y-103424830D01*
X147351000Y-103443138D01*
X147351000Y-104906862D01*
X147349197Y-104925170D01*
X147345646Y-104936875D01*
X147339879Y-104947665D01*
X147332119Y-104957119D01*
X147322665Y-104964879D01*
X147311875Y-104970646D01*
X147300170Y-104974197D01*
X147281862Y-104976000D01*
X146918138Y-104976000D01*
X146899830Y-104974197D01*
X146888125Y-104970646D01*
X146877335Y-104964879D01*
X146867881Y-104957119D01*
X146860121Y-104947665D01*
X146854354Y-104936875D01*
X146850803Y-104925170D01*
X146849000Y-104906862D01*
X146849000Y-103443138D01*
X146850803Y-103424830D01*
X146854354Y-103413125D01*
X146860121Y-103402335D01*
X146867881Y-103392881D01*
X146877335Y-103385121D01*
X146888125Y-103379354D01*
X146899830Y-103375803D01*
X146918138Y-103374000D01*
X147281862Y-103374000D01*
X147300170Y-103375803D01*
G37*
G36*
X154464499Y-103653445D02*
G01*
X154501995Y-103664820D01*
X154536554Y-103683292D01*
X154566847Y-103708153D01*
X154591708Y-103738446D01*
X154610180Y-103773005D01*
X154621555Y-103810501D01*
X154626000Y-103855638D01*
X154626000Y-104594362D01*
X154621555Y-104639499D01*
X154610180Y-104676995D01*
X154591708Y-104711554D01*
X154566847Y-104741847D01*
X154536554Y-104766708D01*
X154501995Y-104785180D01*
X154464499Y-104796555D01*
X154419362Y-104801000D01*
X153780638Y-104801000D01*
X153735501Y-104796555D01*
X153698005Y-104785180D01*
X153663446Y-104766708D01*
X153633153Y-104741847D01*
X153608292Y-104711554D01*
X153589820Y-104676995D01*
X153578445Y-104639499D01*
X153574000Y-104594362D01*
X153574000Y-103855638D01*
X153578445Y-103810501D01*
X153589820Y-103773005D01*
X153608292Y-103738446D01*
X153633153Y-103708153D01*
X153663446Y-103683292D01*
X153698005Y-103664820D01*
X153735501Y-103653445D01*
X153780638Y-103649000D01*
X154419362Y-103649000D01*
X154464499Y-103653445D01*
G37*
G36*
X158913512Y-102843927D02*
G01*
X159062812Y-102873624D01*
X159226784Y-102941544D01*
X159374354Y-103040147D01*
X159499853Y-103165646D01*
X159598456Y-103313216D01*
X159666376Y-103477188D01*
X159701000Y-103651259D01*
X159701000Y-103828741D01*
X159666376Y-104002812D01*
X159598456Y-104166784D01*
X159499853Y-104314354D01*
X159374354Y-104439853D01*
X159226784Y-104538456D01*
X159062812Y-104606376D01*
X158913512Y-104636073D01*
X158888742Y-104641000D01*
X158711258Y-104641000D01*
X158686488Y-104636073D01*
X158537188Y-104606376D01*
X158373216Y-104538456D01*
X158225646Y-104439853D01*
X158100147Y-104314354D01*
X158001544Y-104166784D01*
X157933624Y-104002812D01*
X157899000Y-103828741D01*
X157899000Y-103651259D01*
X157933624Y-103477188D01*
X158001544Y-103313216D01*
X158100147Y-103165646D01*
X158225646Y-103040147D01*
X158373216Y-102941544D01*
X158537188Y-102873624D01*
X158686488Y-102843927D01*
X158711258Y-102839000D01*
X158888742Y-102839000D01*
X158913512Y-102843927D01*
G37*
G36*
X141113512Y-102843927D02*
G01*
X141262812Y-102873624D01*
X141426784Y-102941544D01*
X141574354Y-103040147D01*
X141699853Y-103165646D01*
X141798456Y-103313216D01*
X141866376Y-103477188D01*
X141901000Y-103651259D01*
X141901000Y-103828741D01*
X141866376Y-104002812D01*
X141798456Y-104166784D01*
X141699853Y-104314354D01*
X141574354Y-104439853D01*
X141426784Y-104538456D01*
X141262812Y-104606376D01*
X141113512Y-104636073D01*
X141088742Y-104641000D01*
X140911258Y-104641000D01*
X140886488Y-104636073D01*
X140737188Y-104606376D01*
X140573216Y-104538456D01*
X140425646Y-104439853D01*
X140300147Y-104314354D01*
X140201544Y-104166784D01*
X140133624Y-104002812D01*
X140099000Y-103828741D01*
X140099000Y-103651259D01*
X140133624Y-103477188D01*
X140201544Y-103313216D01*
X140300147Y-103165646D01*
X140425646Y-103040147D01*
X140573216Y-102941544D01*
X140737188Y-102873624D01*
X140886488Y-102843927D01*
X140911258Y-102839000D01*
X141088742Y-102839000D01*
X141113512Y-102843927D01*
G37*
G36*
X146475170Y-102550803D02*
G01*
X146486875Y-102554354D01*
X146497665Y-102560121D01*
X146507119Y-102567881D01*
X146514879Y-102577335D01*
X146520646Y-102588125D01*
X146524197Y-102599830D01*
X146526000Y-102618138D01*
X146526000Y-102981862D01*
X146524197Y-103000170D01*
X146520646Y-103011875D01*
X146514879Y-103022665D01*
X146507119Y-103032119D01*
X146497665Y-103039879D01*
X146486875Y-103045646D01*
X146475170Y-103049197D01*
X146456862Y-103051000D01*
X144993138Y-103051000D01*
X144974830Y-103049197D01*
X144963125Y-103045646D01*
X144952335Y-103039879D01*
X144942881Y-103032119D01*
X144935121Y-103022665D01*
X144929354Y-103011875D01*
X144925803Y-103000170D01*
X144924000Y-102981862D01*
X144924000Y-102618138D01*
X144925803Y-102599830D01*
X144929354Y-102588125D01*
X144935121Y-102577335D01*
X144942881Y-102567881D01*
X144952335Y-102560121D01*
X144963125Y-102554354D01*
X144974830Y-102550803D01*
X144993138Y-102549000D01*
X146456862Y-102549000D01*
X146475170Y-102550803D01*
G37*
G36*
X154825170Y-102550803D02*
G01*
X154836875Y-102554354D01*
X154847665Y-102560121D01*
X154857119Y-102567881D01*
X154864879Y-102577335D01*
X154870646Y-102588125D01*
X154874197Y-102599830D01*
X154876000Y-102618138D01*
X154876000Y-102981862D01*
X154874197Y-103000170D01*
X154870646Y-103011875D01*
X154864879Y-103022665D01*
X154857119Y-103032119D01*
X154847665Y-103039879D01*
X154836875Y-103045646D01*
X154825170Y-103049197D01*
X154806862Y-103051000D01*
X153343138Y-103051000D01*
X153324830Y-103049197D01*
X153313125Y-103045646D01*
X153302335Y-103039879D01*
X153292881Y-103032119D01*
X153285121Y-103022665D01*
X153279354Y-103011875D01*
X153275803Y-103000170D01*
X153274000Y-102981862D01*
X153274000Y-102618138D01*
X153275803Y-102599830D01*
X153279354Y-102588125D01*
X153285121Y-102577335D01*
X153292881Y-102567881D01*
X153302335Y-102560121D01*
X153313125Y-102554354D01*
X153324830Y-102550803D01*
X153343138Y-102549000D01*
X154806862Y-102549000D01*
X154825170Y-102550803D01*
G37*
G36*
X146475170Y-101750803D02*
G01*
X146486875Y-101754354D01*
X146497665Y-101760121D01*
X146507119Y-101767881D01*
X146514879Y-101777335D01*
X146520646Y-101788125D01*
X146524197Y-101799830D01*
X146526000Y-101818138D01*
X146526000Y-102181862D01*
X146524197Y-102200170D01*
X146520646Y-102211875D01*
X146514879Y-102222665D01*
X146507119Y-102232119D01*
X146497665Y-102239879D01*
X146486875Y-102245646D01*
X146475170Y-102249197D01*
X146456862Y-102251000D01*
X144993138Y-102251000D01*
X144974830Y-102249197D01*
X144963125Y-102245646D01*
X144952335Y-102239879D01*
X144942881Y-102232119D01*
X144935121Y-102222665D01*
X144929354Y-102211875D01*
X144925803Y-102200170D01*
X144924000Y-102181862D01*
X144924000Y-101818138D01*
X144925803Y-101799830D01*
X144929354Y-101788125D01*
X144935121Y-101777335D01*
X144942881Y-101767881D01*
X144952335Y-101760121D01*
X144963125Y-101754354D01*
X144974830Y-101750803D01*
X144993138Y-101749000D01*
X146456862Y-101749000D01*
X146475170Y-101750803D01*
G37*
G36*
X154825170Y-101750803D02*
G01*
X154836875Y-101754354D01*
X154847665Y-101760121D01*
X154857119Y-101767881D01*
X154864879Y-101777335D01*
X154870646Y-101788125D01*
X154874197Y-101799830D01*
X154876000Y-101818138D01*
X154876000Y-102181862D01*
X154874197Y-102200170D01*
X154870646Y-102211875D01*
X154864879Y-102222665D01*
X154857119Y-102232119D01*
X154847665Y-102239879D01*
X154836875Y-102245646D01*
X154825170Y-102249197D01*
X154806862Y-102251000D01*
X153343138Y-102251000D01*
X153324830Y-102249197D01*
X153313125Y-102245646D01*
X153302335Y-102239879D01*
X153292881Y-102232119D01*
X153285121Y-102222665D01*
X153279354Y-102211875D01*
X153275803Y-102200170D01*
X153274000Y-102181862D01*
X153274000Y-101818138D01*
X153275803Y-101799830D01*
X153279354Y-101788125D01*
X153285121Y-101777335D01*
X153292881Y-101767881D01*
X153302335Y-101760121D01*
X153313125Y-101754354D01*
X153324830Y-101750803D01*
X153343138Y-101749000D01*
X154806862Y-101749000D01*
X154825170Y-101750803D01*
G37*
G36*
X158913512Y-100303927D02*
G01*
X159062812Y-100333624D01*
X159226784Y-100401544D01*
X159374354Y-100500147D01*
X159499853Y-100625646D01*
X159598456Y-100773216D01*
X159666376Y-100937188D01*
X159701000Y-101111259D01*
X159701000Y-101288741D01*
X159666376Y-101462812D01*
X159598456Y-101626784D01*
X159499853Y-101774354D01*
X159374354Y-101899853D01*
X159226784Y-101998456D01*
X159062812Y-102066376D01*
X158913512Y-102096073D01*
X158888742Y-102101000D01*
X158711258Y-102101000D01*
X158686488Y-102096073D01*
X158537188Y-102066376D01*
X158373216Y-101998456D01*
X158225646Y-101899853D01*
X158100147Y-101774354D01*
X158001544Y-101626784D01*
X157933624Y-101462812D01*
X157899000Y-101288741D01*
X157899000Y-101111259D01*
X157933624Y-100937188D01*
X158001544Y-100773216D01*
X158100147Y-100625646D01*
X158225646Y-100500147D01*
X158373216Y-100401544D01*
X158537188Y-100333624D01*
X158686488Y-100303927D01*
X158711258Y-100299000D01*
X158888742Y-100299000D01*
X158913512Y-100303927D01*
G37*
G36*
X141113512Y-100303927D02*
G01*
X141262812Y-100333624D01*
X141426784Y-100401544D01*
X141574354Y-100500147D01*
X141699853Y-100625646D01*
X141798456Y-100773216D01*
X141866376Y-100937188D01*
X141901000Y-101111259D01*
X141901000Y-101288741D01*
X141866376Y-101462812D01*
X141798456Y-101626784D01*
X141699853Y-101774354D01*
X141574354Y-101899853D01*
X141426784Y-101998456D01*
X141262812Y-102066376D01*
X141113512Y-102096073D01*
X141088742Y-102101000D01*
X140911258Y-102101000D01*
X140886488Y-102096073D01*
X140737188Y-102066376D01*
X140573216Y-101998456D01*
X140425646Y-101899853D01*
X140300147Y-101774354D01*
X140201544Y-101626784D01*
X140133624Y-101462812D01*
X140099000Y-101288741D01*
X140099000Y-101111259D01*
X140133624Y-100937188D01*
X140201544Y-100773216D01*
X140300147Y-100625646D01*
X140425646Y-100500147D01*
X140573216Y-100401544D01*
X140737188Y-100333624D01*
X140886488Y-100303927D01*
X140911258Y-100299000D01*
X141088742Y-100299000D01*
X141113512Y-100303927D01*
G37*
G36*
X154825170Y-100950803D02*
G01*
X154836875Y-100954354D01*
X154847665Y-100960121D01*
X154857119Y-100967881D01*
X154864879Y-100977335D01*
X154870646Y-100988125D01*
X154874197Y-100999830D01*
X154876000Y-101018138D01*
X154876000Y-101381862D01*
X154874197Y-101400170D01*
X154870646Y-101411875D01*
X154864879Y-101422665D01*
X154857119Y-101432119D01*
X154847665Y-101439879D01*
X154836875Y-101445646D01*
X154825170Y-101449197D01*
X154806862Y-101451000D01*
X153343138Y-101451000D01*
X153324830Y-101449197D01*
X153313125Y-101445646D01*
X153302335Y-101439879D01*
X153292881Y-101432119D01*
X153285121Y-101422665D01*
X153279354Y-101411875D01*
X153275803Y-101400170D01*
X153274000Y-101381862D01*
X153274000Y-101018138D01*
X153275803Y-100999830D01*
X153279354Y-100988125D01*
X153285121Y-100977335D01*
X153292881Y-100967881D01*
X153302335Y-100960121D01*
X153313125Y-100954354D01*
X153324830Y-100950803D01*
X153343138Y-100949000D01*
X154806862Y-100949000D01*
X154825170Y-100950803D01*
G37*
G36*
X146475170Y-100950803D02*
G01*
X146486875Y-100954354D01*
X146497665Y-100960121D01*
X146507119Y-100967881D01*
X146514879Y-100977335D01*
X146520646Y-100988125D01*
X146524197Y-100999830D01*
X146526000Y-101018138D01*
X146526000Y-101381862D01*
X146524197Y-101400170D01*
X146520646Y-101411875D01*
X146514879Y-101422665D01*
X146507119Y-101432119D01*
X146497665Y-101439879D01*
X146486875Y-101445646D01*
X146475170Y-101449197D01*
X146456862Y-101451000D01*
X144993138Y-101451000D01*
X144974830Y-101449197D01*
X144963125Y-101445646D01*
X144952335Y-101439879D01*
X144942881Y-101432119D01*
X144935121Y-101422665D01*
X144929354Y-101411875D01*
X144925803Y-101400170D01*
X144924000Y-101381862D01*
X144924000Y-101018138D01*
X144925803Y-100999830D01*
X144929354Y-100988125D01*
X144935121Y-100977335D01*
X144942881Y-100967881D01*
X144952335Y-100960121D01*
X144963125Y-100954354D01*
X144974830Y-100950803D01*
X144993138Y-100949000D01*
X146456862Y-100949000D01*
X146475170Y-100950803D01*
G37*
G36*
X154825170Y-100150803D02*
G01*
X154836875Y-100154354D01*
X154847665Y-100160121D01*
X154857119Y-100167881D01*
X154864879Y-100177335D01*
X154870646Y-100188125D01*
X154874197Y-100199830D01*
X154876000Y-100218138D01*
X154876000Y-100581862D01*
X154874197Y-100600170D01*
X154870646Y-100611875D01*
X154864879Y-100622665D01*
X154857119Y-100632119D01*
X154847665Y-100639879D01*
X154836875Y-100645646D01*
X154825170Y-100649197D01*
X154806862Y-100651000D01*
X153343138Y-100651000D01*
X153324830Y-100649197D01*
X153313125Y-100645646D01*
X153302335Y-100639879D01*
X153292881Y-100632119D01*
X153285121Y-100622665D01*
X153279354Y-100611875D01*
X153275803Y-100600170D01*
X153274000Y-100581862D01*
X153274000Y-100218138D01*
X153275803Y-100199830D01*
X153279354Y-100188125D01*
X153285121Y-100177335D01*
X153292881Y-100167881D01*
X153302335Y-100160121D01*
X153313125Y-100154354D01*
X153324830Y-100150803D01*
X153343138Y-100149000D01*
X154806862Y-100149000D01*
X154825170Y-100150803D01*
G37*
G36*
X146475170Y-100150803D02*
G01*
X146486875Y-100154354D01*
X146497665Y-100160121D01*
X146507119Y-100167881D01*
X146514879Y-100177335D01*
X146520646Y-100188125D01*
X146524197Y-100199830D01*
X146526000Y-100218138D01*
X146526000Y-100581862D01*
X146524197Y-100600170D01*
X146520646Y-100611875D01*
X146514879Y-100622665D01*
X146507119Y-100632119D01*
X146497665Y-100639879D01*
X146486875Y-100645646D01*
X146475170Y-100649197D01*
X146456862Y-100651000D01*
X144993138Y-100651000D01*
X144974830Y-100649197D01*
X144963125Y-100645646D01*
X144952335Y-100639879D01*
X144942881Y-100632119D01*
X144935121Y-100622665D01*
X144929354Y-100611875D01*
X144925803Y-100600170D01*
X144924000Y-100581862D01*
X144924000Y-100218138D01*
X144925803Y-100199830D01*
X144929354Y-100188125D01*
X144935121Y-100177335D01*
X144942881Y-100167881D01*
X144952335Y-100160121D01*
X144963125Y-100154354D01*
X144974830Y-100150803D01*
X144993138Y-100149000D01*
X146456862Y-100149000D01*
X146475170Y-100150803D01*
G37*
G36*
X154825170Y-99350803D02*
G01*
X154836875Y-99354354D01*
X154847665Y-99360121D01*
X154857119Y-99367881D01*
X154864879Y-99377335D01*
X154870646Y-99388125D01*
X154874197Y-99399830D01*
X154876000Y-99418138D01*
X154876000Y-99781862D01*
X154874197Y-99800170D01*
X154870646Y-99811875D01*
X154864879Y-99822665D01*
X154857119Y-99832119D01*
X154847665Y-99839879D01*
X154836875Y-99845646D01*
X154825170Y-99849197D01*
X154806862Y-99851000D01*
X153343138Y-99851000D01*
X153324830Y-99849197D01*
X153313125Y-99845646D01*
X153302335Y-99839879D01*
X153292881Y-99832119D01*
X153285121Y-99822665D01*
X153279354Y-99811875D01*
X153275803Y-99800170D01*
X153274000Y-99781862D01*
X153274000Y-99418138D01*
X153275803Y-99399830D01*
X153279354Y-99388125D01*
X153285121Y-99377335D01*
X153292881Y-99367881D01*
X153302335Y-99360121D01*
X153313125Y-99354354D01*
X153324830Y-99350803D01*
X153343138Y-99349000D01*
X154806862Y-99349000D01*
X154825170Y-99350803D01*
G37*
G36*
X146475170Y-99350803D02*
G01*
X146486875Y-99354354D01*
X146497665Y-99360121D01*
X146507119Y-99367881D01*
X146514879Y-99377335D01*
X146520646Y-99388125D01*
X146524197Y-99399830D01*
X146526000Y-99418138D01*
X146526000Y-99781862D01*
X146524197Y-99800170D01*
X146520646Y-99811875D01*
X146514879Y-99822665D01*
X146507119Y-99832119D01*
X146497665Y-99839879D01*
X146486875Y-99845646D01*
X146475170Y-99849197D01*
X146456862Y-99851000D01*
X144993138Y-99851000D01*
X144974830Y-99849197D01*
X144963125Y-99845646D01*
X144952335Y-99839879D01*
X144942881Y-99832119D01*
X144935121Y-99822665D01*
X144929354Y-99811875D01*
X144925803Y-99800170D01*
X144924000Y-99781862D01*
X144924000Y-99418138D01*
X144925803Y-99399830D01*
X144929354Y-99388125D01*
X144935121Y-99377335D01*
X144942881Y-99367881D01*
X144952335Y-99360121D01*
X144963125Y-99354354D01*
X144974830Y-99350803D01*
X144993138Y-99349000D01*
X146456862Y-99349000D01*
X146475170Y-99350803D01*
G37*
G36*
X141113512Y-97763927D02*
G01*
X141262812Y-97793624D01*
X141426784Y-97861544D01*
X141574354Y-97960147D01*
X141699853Y-98085646D01*
X141798456Y-98233216D01*
X141866376Y-98397188D01*
X141896073Y-98546488D01*
X141897638Y-98554354D01*
X141901000Y-98571259D01*
X141901000Y-98748741D01*
X141866376Y-98922812D01*
X141798456Y-99086784D01*
X141699853Y-99234354D01*
X141574354Y-99359853D01*
X141426784Y-99458456D01*
X141262812Y-99526376D01*
X141113512Y-99556073D01*
X141088742Y-99561000D01*
X140911258Y-99561000D01*
X140886488Y-99556073D01*
X140737188Y-99526376D01*
X140573216Y-99458456D01*
X140425646Y-99359853D01*
X140300147Y-99234354D01*
X140201544Y-99086784D01*
X140133624Y-98922812D01*
X140099000Y-98748741D01*
X140099000Y-98571259D01*
X140102363Y-98554354D01*
X140103927Y-98546488D01*
X140133624Y-98397188D01*
X140201544Y-98233216D01*
X140300147Y-98085646D01*
X140425646Y-97960147D01*
X140573216Y-97861544D01*
X140737188Y-97793624D01*
X140886488Y-97763927D01*
X140911258Y-97759000D01*
X141088742Y-97759000D01*
X141113512Y-97763927D01*
G37*
G36*
X158913512Y-97763927D02*
G01*
X159062812Y-97793624D01*
X159226784Y-97861544D01*
X159374354Y-97960147D01*
X159499853Y-98085646D01*
X159598456Y-98233216D01*
X159666376Y-98397188D01*
X159696073Y-98546488D01*
X159697638Y-98554354D01*
X159701000Y-98571259D01*
X159701000Y-98748741D01*
X159666376Y-98922812D01*
X159598456Y-99086784D01*
X159499853Y-99234354D01*
X159374354Y-99359853D01*
X159226784Y-99458456D01*
X159062812Y-99526376D01*
X158913512Y-99556073D01*
X158888742Y-99561000D01*
X158711258Y-99561000D01*
X158686488Y-99556073D01*
X158537188Y-99526376D01*
X158373216Y-99458456D01*
X158225646Y-99359853D01*
X158100147Y-99234354D01*
X158001544Y-99086784D01*
X157933624Y-98922812D01*
X157899000Y-98748741D01*
X157899000Y-98571259D01*
X157902363Y-98554354D01*
X157903927Y-98546488D01*
X157933624Y-98397188D01*
X158001544Y-98233216D01*
X158100147Y-98085646D01*
X158225646Y-97960147D01*
X158373216Y-97861544D01*
X158537188Y-97793624D01*
X158686488Y-97763927D01*
X158711258Y-97759000D01*
X158888742Y-97759000D01*
X158913512Y-97763927D01*
G37*
G36*
X146475170Y-98550803D02*
G01*
X146486875Y-98554354D01*
X146497665Y-98560121D01*
X146507119Y-98567881D01*
X146514879Y-98577335D01*
X146520646Y-98588125D01*
X146524197Y-98599830D01*
X146526000Y-98618138D01*
X146526000Y-98981862D01*
X146524197Y-99000170D01*
X146520646Y-99011875D01*
X146514879Y-99022665D01*
X146507119Y-99032119D01*
X146497665Y-99039879D01*
X146486875Y-99045646D01*
X146475170Y-99049197D01*
X146456862Y-99051000D01*
X144993138Y-99051000D01*
X144974830Y-99049197D01*
X144963125Y-99045646D01*
X144952335Y-99039879D01*
X144942881Y-99032119D01*
X144935121Y-99022665D01*
X144929354Y-99011875D01*
X144925803Y-99000170D01*
X144924000Y-98981862D01*
X144924000Y-98618138D01*
X144925803Y-98599830D01*
X144929354Y-98588125D01*
X144935121Y-98577335D01*
X144942881Y-98567881D01*
X144952335Y-98560121D01*
X144963125Y-98554354D01*
X144974830Y-98550803D01*
X144993138Y-98549000D01*
X146456862Y-98549000D01*
X146475170Y-98550803D01*
G37*
G36*
X154825170Y-98550803D02*
G01*
X154836875Y-98554354D01*
X154847665Y-98560121D01*
X154857119Y-98567881D01*
X154864879Y-98577335D01*
X154870646Y-98588125D01*
X154874197Y-98599830D01*
X154876000Y-98618138D01*
X154876000Y-98981862D01*
X154874197Y-99000170D01*
X154870646Y-99011875D01*
X154864879Y-99022665D01*
X154857119Y-99032119D01*
X154847665Y-99039879D01*
X154836875Y-99045646D01*
X154825170Y-99049197D01*
X154806862Y-99051000D01*
X153343138Y-99051000D01*
X153324830Y-99049197D01*
X153313125Y-99045646D01*
X153302335Y-99039879D01*
X153292881Y-99032119D01*
X153285121Y-99022665D01*
X153279354Y-99011875D01*
X153275803Y-99000170D01*
X153274000Y-98981862D01*
X153274000Y-98618138D01*
X153275803Y-98599830D01*
X153279354Y-98588125D01*
X153285121Y-98577335D01*
X153292881Y-98567881D01*
X153302335Y-98560121D01*
X153313125Y-98554354D01*
X153324830Y-98550803D01*
X153343138Y-98549000D01*
X154806862Y-98549000D01*
X154825170Y-98550803D01*
G37*
G36*
X154825170Y-97750803D02*
G01*
X154836875Y-97754354D01*
X154847665Y-97760121D01*
X154857119Y-97767881D01*
X154864879Y-97777335D01*
X154870646Y-97788125D01*
X154874197Y-97799830D01*
X154876000Y-97818138D01*
X154876000Y-98181862D01*
X154874197Y-98200170D01*
X154870646Y-98211875D01*
X154864879Y-98222665D01*
X154857119Y-98232119D01*
X154847665Y-98239879D01*
X154836875Y-98245646D01*
X154825170Y-98249197D01*
X154806862Y-98251000D01*
X153343138Y-98251000D01*
X153324830Y-98249197D01*
X153313125Y-98245646D01*
X153302335Y-98239879D01*
X153292881Y-98232119D01*
X153285121Y-98222665D01*
X153279354Y-98211875D01*
X153275803Y-98200170D01*
X153274000Y-98181862D01*
X153274000Y-97818138D01*
X153275803Y-97799830D01*
X153279354Y-97788125D01*
X153285121Y-97777335D01*
X153292881Y-97767881D01*
X153302335Y-97760121D01*
X153313125Y-97754354D01*
X153324830Y-97750803D01*
X153343138Y-97749000D01*
X154806862Y-97749000D01*
X154825170Y-97750803D01*
G37*
G36*
X146475170Y-97750803D02*
G01*
X146486875Y-97754354D01*
X146497665Y-97760121D01*
X146507119Y-97767881D01*
X146514879Y-97777335D01*
X146520646Y-97788125D01*
X146524197Y-97799830D01*
X146526000Y-97818138D01*
X146526000Y-98181862D01*
X146524197Y-98200170D01*
X146520646Y-98211875D01*
X146514879Y-98222665D01*
X146507119Y-98232119D01*
X146497665Y-98239879D01*
X146486875Y-98245646D01*
X146475170Y-98249197D01*
X146456862Y-98251000D01*
X144993138Y-98251000D01*
X144974830Y-98249197D01*
X144963125Y-98245646D01*
X144952335Y-98239879D01*
X144942881Y-98232119D01*
X144935121Y-98222665D01*
X144929354Y-98211875D01*
X144925803Y-98200170D01*
X144924000Y-98181862D01*
X144924000Y-97818138D01*
X144925803Y-97799830D01*
X144929354Y-97788125D01*
X144935121Y-97777335D01*
X144942881Y-97767881D01*
X144952335Y-97760121D01*
X144963125Y-97754354D01*
X144974830Y-97750803D01*
X144993138Y-97749000D01*
X146456862Y-97749000D01*
X146475170Y-97750803D01*
G37*
G36*
X146475170Y-96950803D02*
G01*
X146486875Y-96954354D01*
X146497665Y-96960121D01*
X146507119Y-96967881D01*
X146514879Y-96977335D01*
X146520646Y-96988125D01*
X146524197Y-96999830D01*
X146526000Y-97018138D01*
X146526000Y-97381862D01*
X146524197Y-97400170D01*
X146520646Y-97411875D01*
X146514879Y-97422665D01*
X146507119Y-97432119D01*
X146497665Y-97439879D01*
X146486875Y-97445646D01*
X146475170Y-97449197D01*
X146456862Y-97451000D01*
X144993138Y-97451000D01*
X144974830Y-97449197D01*
X144963125Y-97445646D01*
X144952335Y-97439879D01*
X144942881Y-97432119D01*
X144935121Y-97422665D01*
X144929354Y-97411875D01*
X144925803Y-97400170D01*
X144924000Y-97381862D01*
X144924000Y-97018138D01*
X144925803Y-96999830D01*
X144929354Y-96988125D01*
X144935121Y-96977335D01*
X144942881Y-96967881D01*
X144952335Y-96960121D01*
X144963125Y-96954354D01*
X144974830Y-96950803D01*
X144993138Y-96949000D01*
X146456862Y-96949000D01*
X146475170Y-96950803D01*
G37*
G36*
X154825170Y-96950803D02*
G01*
X154836875Y-96954354D01*
X154847665Y-96960121D01*
X154857119Y-96967881D01*
X154864879Y-96977335D01*
X154870646Y-96988125D01*
X154874197Y-96999830D01*
X154876000Y-97018138D01*
X154876000Y-97381862D01*
X154874197Y-97400170D01*
X154870646Y-97411875D01*
X154864879Y-97422665D01*
X154857119Y-97432119D01*
X154847665Y-97439879D01*
X154836875Y-97445646D01*
X154825170Y-97449197D01*
X154806862Y-97451000D01*
X153343138Y-97451000D01*
X153324830Y-97449197D01*
X153313125Y-97445646D01*
X153302335Y-97439879D01*
X153292881Y-97432119D01*
X153285121Y-97422665D01*
X153279354Y-97411875D01*
X153275803Y-97400170D01*
X153274000Y-97381862D01*
X153274000Y-97018138D01*
X153275803Y-96999830D01*
X153279354Y-96988125D01*
X153285121Y-96977335D01*
X153292881Y-96967881D01*
X153302335Y-96960121D01*
X153313125Y-96954354D01*
X153324830Y-96950803D01*
X153343138Y-96949000D01*
X154806862Y-96949000D01*
X154825170Y-96950803D01*
G37*
G36*
X158913512Y-95223927D02*
G01*
X159062812Y-95253624D01*
X159226784Y-95321544D01*
X159374354Y-95420147D01*
X159499853Y-95545646D01*
X159598456Y-95693216D01*
X159666376Y-95857188D01*
X159701000Y-96031259D01*
X159701000Y-96208741D01*
X159666376Y-96382812D01*
X159598456Y-96546784D01*
X159499853Y-96694354D01*
X159374354Y-96819853D01*
X159226784Y-96918456D01*
X159062812Y-96986376D01*
X158913512Y-97016073D01*
X158888742Y-97021000D01*
X158711258Y-97021000D01*
X158686488Y-97016073D01*
X158537188Y-96986376D01*
X158373216Y-96918456D01*
X158225646Y-96819853D01*
X158100147Y-96694354D01*
X158001544Y-96546784D01*
X157933624Y-96382812D01*
X157899000Y-96208741D01*
X157899000Y-96031259D01*
X157933624Y-95857188D01*
X158001544Y-95693216D01*
X158100147Y-95545646D01*
X158225646Y-95420147D01*
X158373216Y-95321544D01*
X158537188Y-95253624D01*
X158686488Y-95223927D01*
X158711258Y-95219000D01*
X158888742Y-95219000D01*
X158913512Y-95223927D01*
G37*
G36*
X141113512Y-95223927D02*
G01*
X141262812Y-95253624D01*
X141426784Y-95321544D01*
X141574354Y-95420147D01*
X141699853Y-95545646D01*
X141798456Y-95693216D01*
X141866376Y-95857188D01*
X141901000Y-96031259D01*
X141901000Y-96208741D01*
X141866376Y-96382812D01*
X141798456Y-96546784D01*
X141699853Y-96694354D01*
X141574354Y-96819853D01*
X141426784Y-96918456D01*
X141262812Y-96986376D01*
X141113512Y-97016073D01*
X141088742Y-97021000D01*
X140911258Y-97021000D01*
X140886488Y-97016073D01*
X140737188Y-96986376D01*
X140573216Y-96918456D01*
X140425646Y-96819853D01*
X140300147Y-96694354D01*
X140201544Y-96546784D01*
X140133624Y-96382812D01*
X140099000Y-96208741D01*
X140099000Y-96031259D01*
X140133624Y-95857188D01*
X140201544Y-95693216D01*
X140300147Y-95545646D01*
X140425646Y-95420147D01*
X140573216Y-95321544D01*
X140737188Y-95253624D01*
X140886488Y-95223927D01*
X140911258Y-95219000D01*
X141088742Y-95219000D01*
X141113512Y-95223927D01*
G37*
G36*
X150500170Y-95025803D02*
G01*
X150511875Y-95029354D01*
X150522665Y-95035121D01*
X150532119Y-95042881D01*
X150539879Y-95052335D01*
X150545646Y-95063125D01*
X150549197Y-95074830D01*
X150551000Y-95093138D01*
X150551000Y-96556862D01*
X150549197Y-96575170D01*
X150545646Y-96586875D01*
X150539879Y-96597665D01*
X150532119Y-96607119D01*
X150522665Y-96614879D01*
X150511875Y-96620646D01*
X150500170Y-96624197D01*
X150481862Y-96626000D01*
X150118138Y-96626000D01*
X150099830Y-96624197D01*
X150088125Y-96620646D01*
X150077335Y-96614879D01*
X150067881Y-96607119D01*
X150060121Y-96597665D01*
X150054354Y-96586875D01*
X150050803Y-96575170D01*
X150049000Y-96556862D01*
X150049000Y-95093138D01*
X150050803Y-95074830D01*
X150054354Y-95063125D01*
X150060121Y-95052335D01*
X150067881Y-95042881D01*
X150077335Y-95035121D01*
X150088125Y-95029354D01*
X150099830Y-95025803D01*
X150118138Y-95024000D01*
X150481862Y-95024000D01*
X150500170Y-95025803D01*
G37*
G36*
X151300170Y-95025803D02*
G01*
X151311875Y-95029354D01*
X151322665Y-95035121D01*
X151332119Y-95042881D01*
X151339879Y-95052335D01*
X151345646Y-95063125D01*
X151349197Y-95074830D01*
X151351000Y-95093138D01*
X151351000Y-96556862D01*
X151349197Y-96575170D01*
X151345646Y-96586875D01*
X151339879Y-96597665D01*
X151332119Y-96607119D01*
X151322665Y-96614879D01*
X151311875Y-96620646D01*
X151300170Y-96624197D01*
X151281862Y-96626000D01*
X150918138Y-96626000D01*
X150899830Y-96624197D01*
X150888125Y-96620646D01*
X150877335Y-96614879D01*
X150867881Y-96607119D01*
X150860121Y-96597665D01*
X150854354Y-96586875D01*
X150850803Y-96575170D01*
X150849000Y-96556862D01*
X150849000Y-95093138D01*
X150850803Y-95074830D01*
X150854354Y-95063125D01*
X150860121Y-95052335D01*
X150867881Y-95042881D01*
X150877335Y-95035121D01*
X150888125Y-95029354D01*
X150899830Y-95025803D01*
X150918138Y-95024000D01*
X151281862Y-95024000D01*
X151300170Y-95025803D01*
G37*
G36*
X152100170Y-95025803D02*
G01*
X152111875Y-95029354D01*
X152122665Y-95035121D01*
X152132119Y-95042881D01*
X152139879Y-95052335D01*
X152145646Y-95063125D01*
X152149197Y-95074830D01*
X152151000Y-95093138D01*
X152151000Y-96556862D01*
X152149197Y-96575170D01*
X152145646Y-96586875D01*
X152139879Y-96597665D01*
X152132119Y-96607119D01*
X152122665Y-96614879D01*
X152111875Y-96620646D01*
X152100170Y-96624197D01*
X152081862Y-96626000D01*
X151718138Y-96626000D01*
X151699830Y-96624197D01*
X151688125Y-96620646D01*
X151677335Y-96614879D01*
X151667881Y-96607119D01*
X151660121Y-96597665D01*
X151654354Y-96586875D01*
X151650803Y-96575170D01*
X151649000Y-96556862D01*
X151649000Y-95093138D01*
X151650803Y-95074830D01*
X151654354Y-95063125D01*
X151660121Y-95052335D01*
X151667881Y-95042881D01*
X151677335Y-95035121D01*
X151688125Y-95029354D01*
X151699830Y-95025803D01*
X151718138Y-95024000D01*
X152081862Y-95024000D01*
X152100170Y-95025803D01*
G37*
G36*
X152900170Y-95025803D02*
G01*
X152911875Y-95029354D01*
X152922665Y-95035121D01*
X152932119Y-95042881D01*
X152939879Y-95052335D01*
X152945646Y-95063125D01*
X152949197Y-95074830D01*
X152951000Y-95093138D01*
X152951000Y-96556862D01*
X152949197Y-96575170D01*
X152945646Y-96586875D01*
X152939879Y-96597665D01*
X152932119Y-96607119D01*
X152922665Y-96614879D01*
X152911875Y-96620646D01*
X152900170Y-96624197D01*
X152881862Y-96626000D01*
X152518138Y-96626000D01*
X152499830Y-96624197D01*
X152488125Y-96620646D01*
X152477335Y-96614879D01*
X152467881Y-96607119D01*
X152460121Y-96597665D01*
X152454354Y-96586875D01*
X152450803Y-96575170D01*
X152449000Y-96556862D01*
X152449000Y-95093138D01*
X152450803Y-95074830D01*
X152454354Y-95063125D01*
X152460121Y-95052335D01*
X152467881Y-95042881D01*
X152477335Y-95035121D01*
X152488125Y-95029354D01*
X152499830Y-95025803D01*
X152518138Y-95024000D01*
X152881862Y-95024000D01*
X152900170Y-95025803D01*
G37*
G36*
X149700170Y-95025803D02*
G01*
X149711875Y-95029354D01*
X149722665Y-95035121D01*
X149732119Y-95042881D01*
X149739879Y-95052335D01*
X149745646Y-95063125D01*
X149749197Y-95074830D01*
X149751000Y-95093138D01*
X149751000Y-96556862D01*
X149749197Y-96575170D01*
X149745646Y-96586875D01*
X149739879Y-96597665D01*
X149732119Y-96607119D01*
X149722665Y-96614879D01*
X149711875Y-96620646D01*
X149700170Y-96624197D01*
X149681862Y-96626000D01*
X149318138Y-96626000D01*
X149299830Y-96624197D01*
X149288125Y-96620646D01*
X149277335Y-96614879D01*
X149267881Y-96607119D01*
X149260121Y-96597665D01*
X149254354Y-96586875D01*
X149250803Y-96575170D01*
X149249000Y-96556862D01*
X149249000Y-95093138D01*
X149250803Y-95074830D01*
X149254354Y-95063125D01*
X149260121Y-95052335D01*
X149267881Y-95042881D01*
X149277335Y-95035121D01*
X149288125Y-95029354D01*
X149299830Y-95025803D01*
X149318138Y-95024000D01*
X149681862Y-95024000D01*
X149700170Y-95025803D01*
G37*
G36*
X148900170Y-95025803D02*
G01*
X148911875Y-95029354D01*
X148922665Y-95035121D01*
X148932119Y-95042881D01*
X148939879Y-95052335D01*
X148945646Y-95063125D01*
X148949197Y-95074830D01*
X148951000Y-95093138D01*
X148951000Y-96556862D01*
X148949197Y-96575170D01*
X148945646Y-96586875D01*
X148939879Y-96597665D01*
X148932119Y-96607119D01*
X148922665Y-96614879D01*
X148911875Y-96620646D01*
X148900170Y-96624197D01*
X148881862Y-96626000D01*
X148518138Y-96626000D01*
X148499830Y-96624197D01*
X148488125Y-96620646D01*
X148477335Y-96614879D01*
X148467881Y-96607119D01*
X148460121Y-96597665D01*
X148454354Y-96586875D01*
X148450803Y-96575170D01*
X148449000Y-96556862D01*
X148449000Y-95093138D01*
X148450803Y-95074830D01*
X148454354Y-95063125D01*
X148460121Y-95052335D01*
X148467881Y-95042881D01*
X148477335Y-95035121D01*
X148488125Y-95029354D01*
X148499830Y-95025803D01*
X148518138Y-95024000D01*
X148881862Y-95024000D01*
X148900170Y-95025803D01*
G37*
G36*
X148100170Y-95025803D02*
G01*
X148111875Y-95029354D01*
X148122665Y-95035121D01*
X148132119Y-95042881D01*
X148139879Y-95052335D01*
X148145646Y-95063125D01*
X148149197Y-95074830D01*
X148151000Y-95093138D01*
X148151000Y-96556862D01*
X148149197Y-96575170D01*
X148145646Y-96586875D01*
X148139879Y-96597665D01*
X148132119Y-96607119D01*
X148122665Y-96614879D01*
X148111875Y-96620646D01*
X148100170Y-96624197D01*
X148081862Y-96626000D01*
X147718138Y-96626000D01*
X147699830Y-96624197D01*
X147688125Y-96620646D01*
X147677335Y-96614879D01*
X147667881Y-96607119D01*
X147660121Y-96597665D01*
X147654354Y-96586875D01*
X147650803Y-96575170D01*
X147649000Y-96556862D01*
X147649000Y-95093138D01*
X147650803Y-95074830D01*
X147654354Y-95063125D01*
X147660121Y-95052335D01*
X147667881Y-95042881D01*
X147677335Y-95035121D01*
X147688125Y-95029354D01*
X147699830Y-95025803D01*
X147718138Y-95024000D01*
X148081862Y-95024000D01*
X148100170Y-95025803D01*
G37*
G36*
X147300170Y-95025803D02*
G01*
X147311875Y-95029354D01*
X147322665Y-95035121D01*
X147332119Y-95042881D01*
X147339879Y-95052335D01*
X147345646Y-95063125D01*
X147349197Y-95074830D01*
X147351000Y-95093138D01*
X147351000Y-96556862D01*
X147349197Y-96575170D01*
X147345646Y-96586875D01*
X147339879Y-96597665D01*
X147332119Y-96607119D01*
X147322665Y-96614879D01*
X147311875Y-96620646D01*
X147300170Y-96624197D01*
X147281862Y-96626000D01*
X146918138Y-96626000D01*
X146899830Y-96624197D01*
X146888125Y-96620646D01*
X146877335Y-96614879D01*
X146867881Y-96607119D01*
X146860121Y-96597665D01*
X146854354Y-96586875D01*
X146850803Y-96575170D01*
X146849000Y-96556862D01*
X146849000Y-95093138D01*
X146850803Y-95074830D01*
X146854354Y-95063125D01*
X146860121Y-95052335D01*
X146867881Y-95042881D01*
X146877335Y-95035121D01*
X146888125Y-95029354D01*
X146899830Y-95025803D01*
X146918138Y-95024000D01*
X147281862Y-95024000D01*
X147300170Y-95025803D01*
G37*
G36*
X146064499Y-95203445D02*
G01*
X146101995Y-95214820D01*
X146136554Y-95233292D01*
X146166847Y-95258153D01*
X146191708Y-95288446D01*
X146210180Y-95323005D01*
X146221555Y-95360501D01*
X146226000Y-95405638D01*
X146226000Y-96144362D01*
X146221555Y-96189499D01*
X146210180Y-96226995D01*
X146191708Y-96261554D01*
X146166847Y-96291847D01*
X146136554Y-96316708D01*
X146101995Y-96335180D01*
X146064499Y-96346555D01*
X146019362Y-96351000D01*
X145380638Y-96351000D01*
X145335501Y-96346555D01*
X145298005Y-96335180D01*
X145263446Y-96316708D01*
X145233153Y-96291847D01*
X145208292Y-96261554D01*
X145189820Y-96226995D01*
X145178445Y-96189499D01*
X145174000Y-96144362D01*
X145174000Y-95405638D01*
X145178445Y-95360501D01*
X145189820Y-95323005D01*
X145208292Y-95288446D01*
X145233153Y-95258153D01*
X145263446Y-95233292D01*
X145298005Y-95214820D01*
X145335501Y-95203445D01*
X145380638Y-95199000D01*
X146019362Y-95199000D01*
X146064499Y-95203445D01*
G37*
G36*
X148264499Y-93503445D02*
G01*
X148301995Y-93514820D01*
X148336554Y-93533292D01*
X148366847Y-93558153D01*
X148391708Y-93588446D01*
X148410180Y-93623005D01*
X148421555Y-93660501D01*
X148426000Y-93705638D01*
X148426000Y-94444362D01*
X148421555Y-94489499D01*
X148410180Y-94526995D01*
X148391708Y-94561554D01*
X148366847Y-94591847D01*
X148336554Y-94616708D01*
X148301995Y-94635180D01*
X148264499Y-94646555D01*
X148219362Y-94651000D01*
X147580638Y-94651000D01*
X147535501Y-94646555D01*
X147498005Y-94635180D01*
X147463446Y-94616708D01*
X147433153Y-94591847D01*
X147408292Y-94561554D01*
X147389820Y-94526995D01*
X147378445Y-94489499D01*
X147374000Y-94444362D01*
X147374000Y-93705638D01*
X147378445Y-93660501D01*
X147389820Y-93623005D01*
X147408292Y-93588446D01*
X147433153Y-93558153D01*
X147463446Y-93533292D01*
X147498005Y-93514820D01*
X147535501Y-93503445D01*
X147580638Y-93499000D01*
X148219362Y-93499000D01*
X148264499Y-93503445D01*
G37*
G36*
X146064499Y-93453445D02*
G01*
X146101995Y-93464820D01*
X146136554Y-93483292D01*
X146166847Y-93508153D01*
X146191708Y-93538446D01*
X146210180Y-93573005D01*
X146221555Y-93610501D01*
X146226000Y-93655638D01*
X146226000Y-94394362D01*
X146221555Y-94439499D01*
X146210180Y-94476995D01*
X146191708Y-94511554D01*
X146166847Y-94541847D01*
X146136554Y-94566708D01*
X146101995Y-94585180D01*
X146064499Y-94596555D01*
X146019362Y-94601000D01*
X145380638Y-94601000D01*
X145335501Y-94596555D01*
X145298005Y-94585180D01*
X145263446Y-94566708D01*
X145233153Y-94541847D01*
X145208292Y-94511554D01*
X145189820Y-94476995D01*
X145178445Y-94439499D01*
X145174000Y-94394362D01*
X145174000Y-93655638D01*
X145178445Y-93610501D01*
X145189820Y-93573005D01*
X145208292Y-93538446D01*
X145233153Y-93508153D01*
X145263446Y-93483292D01*
X145298005Y-93464820D01*
X145335501Y-93453445D01*
X145380638Y-93449000D01*
X146019362Y-93449000D01*
X146064499Y-93453445D01*
G37*
G36*
X158913512Y-92683927D02*
G01*
X159062812Y-92713624D01*
X159226784Y-92781544D01*
X159374354Y-92880147D01*
X159499853Y-93005646D01*
X159598456Y-93153216D01*
X159666376Y-93317188D01*
X159693599Y-93454053D01*
X159696577Y-93469020D01*
X159701000Y-93491259D01*
X159701000Y-93668741D01*
X159666376Y-93842812D01*
X159598456Y-94006784D01*
X159499853Y-94154354D01*
X159374354Y-94279853D01*
X159226784Y-94378456D01*
X159062812Y-94446376D01*
X158913512Y-94476073D01*
X158888742Y-94481000D01*
X158711258Y-94481000D01*
X158686488Y-94476073D01*
X158537188Y-94446376D01*
X158373216Y-94378456D01*
X158225646Y-94279853D01*
X158100147Y-94154354D01*
X158001544Y-94006784D01*
X157933624Y-93842812D01*
X157899000Y-93668741D01*
X157899000Y-93491259D01*
X157903424Y-93469020D01*
X157906401Y-93454053D01*
X157933624Y-93317188D01*
X158001544Y-93153216D01*
X158100147Y-93005646D01*
X158225646Y-92880147D01*
X158373216Y-92781544D01*
X158537188Y-92713624D01*
X158686488Y-92683927D01*
X158711258Y-92679000D01*
X158888742Y-92679000D01*
X158913512Y-92683927D01*
G37*
G36*
X141113512Y-92683927D02*
G01*
X141262812Y-92713624D01*
X141426784Y-92781544D01*
X141574354Y-92880147D01*
X141699853Y-93005646D01*
X141798456Y-93153216D01*
X141866376Y-93317188D01*
X141893599Y-93454053D01*
X141896577Y-93469020D01*
X141901000Y-93491259D01*
X141901000Y-93668741D01*
X141866376Y-93842812D01*
X141798456Y-94006784D01*
X141699853Y-94154354D01*
X141574354Y-94279853D01*
X141426784Y-94378456D01*
X141262812Y-94446376D01*
X141113512Y-94476073D01*
X141088742Y-94481000D01*
X140911258Y-94481000D01*
X140886488Y-94476073D01*
X140737188Y-94446376D01*
X140573216Y-94378456D01*
X140425646Y-94279853D01*
X140300147Y-94154354D01*
X140201544Y-94006784D01*
X140133624Y-93842812D01*
X140099000Y-93668741D01*
X140099000Y-93491259D01*
X140103424Y-93469020D01*
X140106401Y-93454053D01*
X140133624Y-93317188D01*
X140201544Y-93153216D01*
X140300147Y-93005646D01*
X140425646Y-92880147D01*
X140573216Y-92781544D01*
X140737188Y-92713624D01*
X140886488Y-92683927D01*
X140911258Y-92679000D01*
X141088742Y-92679000D01*
X141113512Y-92683927D01*
G37*
G36*
X148264499Y-91753445D02*
G01*
X148301995Y-91764820D01*
X148336554Y-91783292D01*
X148366847Y-91808153D01*
X148391708Y-91838446D01*
X148410180Y-91873005D01*
X148421555Y-91910501D01*
X148426000Y-91955638D01*
X148426000Y-92694362D01*
X148421555Y-92739499D01*
X148410180Y-92776995D01*
X148391708Y-92811554D01*
X148366847Y-92841847D01*
X148336554Y-92866708D01*
X148301995Y-92885180D01*
X148264499Y-92896555D01*
X148219362Y-92901000D01*
X147580638Y-92901000D01*
X147535501Y-92896555D01*
X147498005Y-92885180D01*
X147463446Y-92866708D01*
X147433153Y-92841847D01*
X147408292Y-92811554D01*
X147389820Y-92776995D01*
X147378445Y-92739499D01*
X147374000Y-92694362D01*
X147374000Y-91955638D01*
X147378445Y-91910501D01*
X147389820Y-91873005D01*
X147408292Y-91838446D01*
X147433153Y-91808153D01*
X147463446Y-91783292D01*
X147498005Y-91764820D01*
X147535501Y-91753445D01*
X147580638Y-91749000D01*
X148219362Y-91749000D01*
X148264499Y-91753445D01*
G37*
G36*
X158913512Y-90143927D02*
G01*
X159062812Y-90173624D01*
X159226784Y-90241544D01*
X159374354Y-90340147D01*
X159499853Y-90465646D01*
X159598456Y-90613216D01*
X159666376Y-90777188D01*
X159701000Y-90951259D01*
X159701000Y-91128741D01*
X159666376Y-91302812D01*
X159598456Y-91466784D01*
X159499853Y-91614354D01*
X159374354Y-91739853D01*
X159226784Y-91838456D01*
X159062812Y-91906376D01*
X158913512Y-91936073D01*
X158888742Y-91941000D01*
X158711258Y-91941000D01*
X158686488Y-91936073D01*
X158537188Y-91906376D01*
X158373216Y-91838456D01*
X158225646Y-91739853D01*
X158100147Y-91614354D01*
X158001544Y-91466784D01*
X157933624Y-91302812D01*
X157899000Y-91128741D01*
X157899000Y-90951259D01*
X157933624Y-90777188D01*
X158001544Y-90613216D01*
X158100147Y-90465646D01*
X158225646Y-90340147D01*
X158373216Y-90241544D01*
X158537188Y-90173624D01*
X158686488Y-90143927D01*
X158711258Y-90139000D01*
X158888742Y-90139000D01*
X158913512Y-90143927D01*
G37*
G36*
X141113512Y-90143927D02*
G01*
X141262812Y-90173624D01*
X141426784Y-90241544D01*
X141574354Y-90340147D01*
X141699853Y-90465646D01*
X141798456Y-90613216D01*
X141866376Y-90777188D01*
X141901000Y-90951259D01*
X141901000Y-91128741D01*
X141866376Y-91302812D01*
X141798456Y-91466784D01*
X141699853Y-91614354D01*
X141574354Y-91739853D01*
X141426784Y-91838456D01*
X141262812Y-91906376D01*
X141113512Y-91936073D01*
X141088742Y-91941000D01*
X140911258Y-91941000D01*
X140886488Y-91936073D01*
X140737188Y-91906376D01*
X140573216Y-91838456D01*
X140425646Y-91739853D01*
X140300147Y-91614354D01*
X140201544Y-91466784D01*
X140133624Y-91302812D01*
X140099000Y-91128741D01*
X140099000Y-90951259D01*
X140133624Y-90777188D01*
X140201544Y-90613216D01*
X140300147Y-90465646D01*
X140425646Y-90340147D01*
X140573216Y-90241544D01*
X140737188Y-90173624D01*
X140886488Y-90143927D01*
X140911258Y-90139000D01*
X141088742Y-90139000D01*
X141113512Y-90143927D01*
G37*
G36*
X159701000Y-89401000D02*
G01*
X157899000Y-89401000D01*
X157899000Y-87599000D01*
X159701000Y-87599000D01*
X159701000Y-89401000D01*
G37*
G36*
X141113512Y-87603927D02*
G01*
X141262812Y-87633624D01*
X141426784Y-87701544D01*
X141574354Y-87800147D01*
X141699853Y-87925646D01*
X141798456Y-88073216D01*
X141866376Y-88237188D01*
X141901000Y-88411259D01*
X141901000Y-88588741D01*
X141866376Y-88762812D01*
X141798456Y-88926784D01*
X141699853Y-89074354D01*
X141574354Y-89199853D01*
X141426784Y-89298456D01*
X141262812Y-89366376D01*
X141113512Y-89396073D01*
X141088742Y-89401000D01*
X140911258Y-89401000D01*
X140886488Y-89396073D01*
X140737188Y-89366376D01*
X140573216Y-89298456D01*
X140425646Y-89199853D01*
X140300147Y-89074354D01*
X140201544Y-88926784D01*
X140133624Y-88762812D01*
X140099000Y-88588741D01*
X140099000Y-88411259D01*
X140133624Y-88237188D01*
X140201544Y-88073216D01*
X140300147Y-87925646D01*
X140425646Y-87800147D01*
X140573216Y-87701544D01*
X140737188Y-87633624D01*
X140886488Y-87603927D01*
X140911258Y-87599000D01*
X141088742Y-87599000D01*
X141113512Y-87603927D01*
G37*
G36*
X153833512Y-87203927D02*
G01*
X153982812Y-87233624D01*
X154146784Y-87301544D01*
X154294354Y-87400147D01*
X154419853Y-87525646D01*
X154518456Y-87673216D01*
X154586376Y-87837188D01*
X154621000Y-88011259D01*
X154621000Y-88188741D01*
X154586376Y-88362812D01*
X154518456Y-88526784D01*
X154419853Y-88674354D01*
X154294354Y-88799853D01*
X154146784Y-88898456D01*
X153982812Y-88966376D01*
X153833512Y-88996073D01*
X153808742Y-89001000D01*
X153631258Y-89001000D01*
X153606488Y-88996073D01*
X153457188Y-88966376D01*
X153293216Y-88898456D01*
X153145646Y-88799853D01*
X153020147Y-88674354D01*
X152921544Y-88526784D01*
X152853624Y-88362812D01*
X152819000Y-88188741D01*
X152819000Y-88011259D01*
X152853624Y-87837188D01*
X152921544Y-87673216D01*
X153020147Y-87525646D01*
X153145646Y-87400147D01*
X153293216Y-87301544D01*
X153457188Y-87233624D01*
X153606488Y-87203927D01*
X153631258Y-87199000D01*
X153808742Y-87199000D01*
X153833512Y-87203927D01*
G37*
G36*
X151293512Y-87203927D02*
G01*
X151442812Y-87233624D01*
X151606784Y-87301544D01*
X151754354Y-87400147D01*
X151879853Y-87525646D01*
X151978456Y-87673216D01*
X152046376Y-87837188D01*
X152081000Y-88011259D01*
X152081000Y-88188741D01*
X152046376Y-88362812D01*
X151978456Y-88526784D01*
X151879853Y-88674354D01*
X151754354Y-88799853D01*
X151606784Y-88898456D01*
X151442812Y-88966376D01*
X151293512Y-88996073D01*
X151268742Y-89001000D01*
X151091258Y-89001000D01*
X151066488Y-88996073D01*
X150917188Y-88966376D01*
X150753216Y-88898456D01*
X150605646Y-88799853D01*
X150480147Y-88674354D01*
X150381544Y-88526784D01*
X150313624Y-88362812D01*
X150279000Y-88188741D01*
X150279000Y-88011259D01*
X150313624Y-87837188D01*
X150381544Y-87673216D01*
X150480147Y-87525646D01*
X150605646Y-87400147D01*
X150753216Y-87301544D01*
X150917188Y-87233624D01*
X151066488Y-87203927D01*
X151091258Y-87199000D01*
X151268742Y-87199000D01*
X151293512Y-87203927D01*
G37*
G36*
X148753512Y-87203927D02*
G01*
X148902812Y-87233624D01*
X149066784Y-87301544D01*
X149214354Y-87400147D01*
X149339853Y-87525646D01*
X149438456Y-87673216D01*
X149506376Y-87837188D01*
X149541000Y-88011259D01*
X149541000Y-88188741D01*
X149506376Y-88362812D01*
X149438456Y-88526784D01*
X149339853Y-88674354D01*
X149214354Y-88799853D01*
X149066784Y-88898456D01*
X148902812Y-88966376D01*
X148753512Y-88996073D01*
X148728742Y-89001000D01*
X148551258Y-89001000D01*
X148526488Y-88996073D01*
X148377188Y-88966376D01*
X148213216Y-88898456D01*
X148065646Y-88799853D01*
X147940147Y-88674354D01*
X147841544Y-88526784D01*
X147773624Y-88362812D01*
X147739000Y-88188741D01*
X147739000Y-88011259D01*
X147773624Y-87837188D01*
X147841544Y-87673216D01*
X147940147Y-87525646D01*
X148065646Y-87400147D01*
X148213216Y-87301544D01*
X148377188Y-87233624D01*
X148526488Y-87203927D01*
X148551258Y-87199000D01*
X148728742Y-87199000D01*
X148753512Y-87203927D01*
G37*
G36*
X147001000Y-89001000D02*
G01*
X145199000Y-89001000D01*
X145199000Y-87199000D01*
X147001000Y-87199000D01*
X147001000Y-89001000D01*
G37*
G36*
X156620721Y-84300174D02*
G01*
X156720995Y-84341709D01*
X156720996Y-84341710D01*
X156811242Y-84402010D01*
X156887990Y-84478758D01*
X156887991Y-84478760D01*
X156948291Y-84569005D01*
X156979516Y-84644389D01*
X156991067Y-84666000D01*
X157006612Y-84684941D01*
X157025554Y-84700487D01*
X157047165Y-84712038D01*
X157070614Y-84719151D01*
X157095000Y-84721553D01*
X157119386Y-84719151D01*
X157142835Y-84712038D01*
X157164446Y-84700487D01*
X157183387Y-84684942D01*
X157198933Y-84666000D01*
X157210484Y-84644389D01*
X157241709Y-84569005D01*
X157302009Y-84478760D01*
X157302010Y-84478758D01*
X157378758Y-84402010D01*
X157469004Y-84341710D01*
X157469005Y-84341709D01*
X157569279Y-84300174D01*
X157675730Y-84279000D01*
X157784270Y-84279000D01*
X157890721Y-84300174D01*
X157990995Y-84341709D01*
X157990996Y-84341710D01*
X158081242Y-84402010D01*
X158157990Y-84478758D01*
X158157991Y-84478760D01*
X158218291Y-84569005D01*
X158249516Y-84644389D01*
X158261067Y-84666000D01*
X158276612Y-84684941D01*
X158295554Y-84700487D01*
X158317165Y-84712038D01*
X158340614Y-84719151D01*
X158365000Y-84721553D01*
X158389386Y-84719151D01*
X158412835Y-84712038D01*
X158434446Y-84700487D01*
X158453387Y-84684942D01*
X158468933Y-84666000D01*
X158480484Y-84644389D01*
X158511709Y-84569005D01*
X158572009Y-84478760D01*
X158572010Y-84478758D01*
X158648758Y-84402010D01*
X158739004Y-84341710D01*
X158739005Y-84341709D01*
X158839279Y-84300174D01*
X158945730Y-84279000D01*
X159054270Y-84279000D01*
X159160721Y-84300174D01*
X159260995Y-84341709D01*
X159260996Y-84341710D01*
X159351242Y-84402010D01*
X159427990Y-84478758D01*
X159427991Y-84478760D01*
X159488291Y-84569005D01*
X159519516Y-84644389D01*
X159531067Y-84666000D01*
X159546612Y-84684941D01*
X159565554Y-84700487D01*
X159587165Y-84712038D01*
X159610614Y-84719151D01*
X159635000Y-84721553D01*
X159659386Y-84719151D01*
X159682835Y-84712038D01*
X159704446Y-84700487D01*
X159723387Y-84684942D01*
X159738933Y-84666000D01*
X159750484Y-84644389D01*
X159781709Y-84569005D01*
X159842009Y-84478760D01*
X159842010Y-84478758D01*
X159918758Y-84402010D01*
X160009004Y-84341710D01*
X160009005Y-84341709D01*
X160109279Y-84300174D01*
X160215730Y-84279000D01*
X160324270Y-84279000D01*
X160430721Y-84300174D01*
X160530995Y-84341709D01*
X160530996Y-84341710D01*
X160621242Y-84402010D01*
X160697990Y-84478758D01*
X160697991Y-84478760D01*
X160758291Y-84569005D01*
X160789516Y-84644389D01*
X160801067Y-84666000D01*
X160816612Y-84684941D01*
X160835554Y-84700487D01*
X160857165Y-84712038D01*
X160880614Y-84719151D01*
X160905000Y-84721553D01*
X160929386Y-84719151D01*
X160952835Y-84712038D01*
X160974446Y-84700487D01*
X160993387Y-84684942D01*
X161008933Y-84666000D01*
X161020484Y-84644389D01*
X161051709Y-84569005D01*
X161112009Y-84478760D01*
X161112010Y-84478758D01*
X161188758Y-84402010D01*
X161279004Y-84341710D01*
X161279005Y-84341709D01*
X161379279Y-84300174D01*
X161485730Y-84279000D01*
X161594270Y-84279000D01*
X161700721Y-84300174D01*
X161800995Y-84341709D01*
X161800996Y-84341710D01*
X161891242Y-84402010D01*
X161967990Y-84478758D01*
X161967991Y-84478760D01*
X162028291Y-84569005D01*
X162069826Y-84669279D01*
X162091000Y-84775730D01*
X162091000Y-84884270D01*
X162069826Y-84990721D01*
X162028291Y-85090995D01*
X162028290Y-85090996D01*
X161967990Y-85181242D01*
X161891242Y-85257990D01*
X161845812Y-85288345D01*
X161800995Y-85318291D01*
X161725611Y-85349516D01*
X161704000Y-85361067D01*
X161685059Y-85376612D01*
X161669513Y-85395554D01*
X161657962Y-85417165D01*
X161650849Y-85440614D01*
X161648447Y-85465000D01*
X161650849Y-85489386D01*
X161657962Y-85512835D01*
X161669513Y-85534446D01*
X161685058Y-85553387D01*
X161704000Y-85568933D01*
X161725611Y-85580484D01*
X161800995Y-85611709D01*
X161800996Y-85611710D01*
X161891242Y-85672010D01*
X161967990Y-85748758D01*
X161983665Y-85772218D01*
X162028291Y-85839005D01*
X162069826Y-85939279D01*
X162091000Y-86045730D01*
X162091000Y-86154270D01*
X162069826Y-86260721D01*
X162028291Y-86360995D01*
X162028290Y-86360996D01*
X161967990Y-86451242D01*
X161891242Y-86527990D01*
X161845812Y-86558345D01*
X161800995Y-86588291D01*
X161700721Y-86629826D01*
X161594270Y-86651000D01*
X161485730Y-86651000D01*
X161379279Y-86629826D01*
X161279005Y-86588291D01*
X161234188Y-86558345D01*
X161188758Y-86527990D01*
X161112010Y-86451242D01*
X161051710Y-86360996D01*
X161051709Y-86360995D01*
X161020484Y-86285611D01*
X161008933Y-86264000D01*
X160993388Y-86245059D01*
X160974446Y-86229513D01*
X160952835Y-86217962D01*
X160929386Y-86210849D01*
X160905000Y-86208447D01*
X160880614Y-86210849D01*
X160857165Y-86217962D01*
X160835554Y-86229513D01*
X160816613Y-86245058D01*
X160801067Y-86264000D01*
X160789516Y-86285611D01*
X160758291Y-86360995D01*
X160758290Y-86360996D01*
X160697990Y-86451242D01*
X160621242Y-86527990D01*
X160575812Y-86558345D01*
X160530995Y-86588291D01*
X160430721Y-86629826D01*
X160324270Y-86651000D01*
X160215730Y-86651000D01*
X160109279Y-86629826D01*
X160009005Y-86588291D01*
X159964188Y-86558345D01*
X159918758Y-86527990D01*
X159842010Y-86451242D01*
X159781710Y-86360996D01*
X159781709Y-86360995D01*
X159750484Y-86285611D01*
X159738933Y-86264000D01*
X159723388Y-86245059D01*
X159704446Y-86229513D01*
X159682835Y-86217962D01*
X159659386Y-86210849D01*
X159635000Y-86208447D01*
X159610614Y-86210849D01*
X159587165Y-86217962D01*
X159565554Y-86229513D01*
X159546613Y-86245058D01*
X159531067Y-86264000D01*
X159519516Y-86285611D01*
X159488291Y-86360995D01*
X159488290Y-86360996D01*
X159427990Y-86451242D01*
X159351242Y-86527990D01*
X159305812Y-86558345D01*
X159260995Y-86588291D01*
X159160721Y-86629826D01*
X159054270Y-86651000D01*
X158945730Y-86651000D01*
X158839279Y-86629826D01*
X158739005Y-86588291D01*
X158694188Y-86558345D01*
X158648758Y-86527990D01*
X158572010Y-86451242D01*
X158511710Y-86360996D01*
X158511709Y-86360995D01*
X158480484Y-86285611D01*
X158468933Y-86264000D01*
X158453388Y-86245059D01*
X158434446Y-86229513D01*
X158412835Y-86217962D01*
X158389386Y-86210849D01*
X158365000Y-86208447D01*
X158340614Y-86210849D01*
X158317165Y-86217962D01*
X158295554Y-86229513D01*
X158276613Y-86245058D01*
X158261067Y-86264000D01*
X158249516Y-86285611D01*
X158218291Y-86360995D01*
X158218290Y-86360996D01*
X158157990Y-86451242D01*
X158081242Y-86527990D01*
X158035812Y-86558345D01*
X157990995Y-86588291D01*
X157890721Y-86629826D01*
X157784270Y-86651000D01*
X157675730Y-86651000D01*
X157569279Y-86629826D01*
X157469005Y-86588291D01*
X157424188Y-86558345D01*
X157378758Y-86527990D01*
X157302010Y-86451242D01*
X157281012Y-86419816D01*
X157239932Y-86358336D01*
X157224386Y-86339394D01*
X157205444Y-86323849D01*
X157183833Y-86312298D01*
X157160385Y-86305185D01*
X157135998Y-86302783D01*
X157111612Y-86305185D01*
X157088163Y-86312298D01*
X157066553Y-86323849D01*
X157047611Y-86339395D01*
X157032066Y-86358337D01*
X157020515Y-86379948D01*
X157013402Y-86403396D01*
X157011000Y-86427782D01*
X157011000Y-86651000D01*
X155909000Y-86651000D01*
X155909000Y-85549000D01*
X156132218Y-85549000D01*
X156156604Y-85546598D01*
X156180053Y-85539485D01*
X156201664Y-85527934D01*
X156220606Y-85512389D01*
X156236151Y-85493447D01*
X156247702Y-85471836D01*
X156254815Y-85448387D01*
X156257216Y-85424002D01*
X156662783Y-85424002D01*
X156665185Y-85448388D01*
X156672298Y-85471837D01*
X156683849Y-85493447D01*
X156699395Y-85512389D01*
X156718337Y-85527934D01*
X156739948Y-85539485D01*
X156763396Y-85546598D01*
X156787782Y-85549000D01*
X157011000Y-85549000D01*
X157011000Y-85772218D01*
X157013402Y-85796604D01*
X157020515Y-85820053D01*
X157032066Y-85841664D01*
X157047611Y-85860606D01*
X157066553Y-85876151D01*
X157088164Y-85887702D01*
X157111613Y-85894815D01*
X157135999Y-85897217D01*
X157160385Y-85894815D01*
X157183834Y-85887702D01*
X157205445Y-85876151D01*
X157224387Y-85860606D01*
X157239932Y-85841664D01*
X157286335Y-85772218D01*
X157302010Y-85748758D01*
X157378758Y-85672010D01*
X157469004Y-85611710D01*
X157469005Y-85611709D01*
X157544389Y-85580484D01*
X157566000Y-85568933D01*
X157584941Y-85553388D01*
X157600487Y-85534446D01*
X157612038Y-85512835D01*
X157619151Y-85489386D01*
X157621553Y-85465000D01*
X157838447Y-85465000D01*
X157840849Y-85489386D01*
X157847962Y-85512835D01*
X157859513Y-85534446D01*
X157875058Y-85553387D01*
X157894000Y-85568933D01*
X157915611Y-85580484D01*
X157990995Y-85611709D01*
X157990996Y-85611710D01*
X158081242Y-85672010D01*
X158157990Y-85748758D01*
X158173665Y-85772218D01*
X158218291Y-85839005D01*
X158249516Y-85914389D01*
X158261067Y-85936000D01*
X158276612Y-85954941D01*
X158295554Y-85970487D01*
X158317165Y-85982038D01*
X158340614Y-85989151D01*
X158365000Y-85991553D01*
X158389386Y-85989151D01*
X158412835Y-85982038D01*
X158434446Y-85970487D01*
X158453387Y-85954942D01*
X158468933Y-85936000D01*
X158480484Y-85914389D01*
X158511709Y-85839005D01*
X158556335Y-85772218D01*
X158572010Y-85748758D01*
X158648758Y-85672010D01*
X158739004Y-85611710D01*
X158739005Y-85611709D01*
X158814389Y-85580484D01*
X158836000Y-85568933D01*
X158854941Y-85553388D01*
X158870487Y-85534446D01*
X158882038Y-85512835D01*
X158889151Y-85489386D01*
X158891553Y-85465000D01*
X159108447Y-85465000D01*
X159110849Y-85489386D01*
X159117962Y-85512835D01*
X159129513Y-85534446D01*
X159145058Y-85553387D01*
X159164000Y-85568933D01*
X159185611Y-85580484D01*
X159260995Y-85611709D01*
X159260996Y-85611710D01*
X159351242Y-85672010D01*
X159427990Y-85748758D01*
X159443665Y-85772218D01*
X159488291Y-85839005D01*
X159519516Y-85914389D01*
X159531067Y-85936000D01*
X159546612Y-85954941D01*
X159565554Y-85970487D01*
X159587165Y-85982038D01*
X159610614Y-85989151D01*
X159635000Y-85991553D01*
X159659386Y-85989151D01*
X159682835Y-85982038D01*
X159704446Y-85970487D01*
X159723387Y-85954942D01*
X159738933Y-85936000D01*
X159750484Y-85914389D01*
X159781709Y-85839005D01*
X159826335Y-85772218D01*
X159842010Y-85748758D01*
X159918758Y-85672010D01*
X160009004Y-85611710D01*
X160009005Y-85611709D01*
X160084389Y-85580484D01*
X160106000Y-85568933D01*
X160124941Y-85553388D01*
X160140487Y-85534446D01*
X160152038Y-85512835D01*
X160159151Y-85489386D01*
X160161553Y-85465000D01*
X160378447Y-85465000D01*
X160380849Y-85489386D01*
X160387962Y-85512835D01*
X160399513Y-85534446D01*
X160415058Y-85553387D01*
X160434000Y-85568933D01*
X160455611Y-85580484D01*
X160530995Y-85611709D01*
X160530996Y-85611710D01*
X160621242Y-85672010D01*
X160697990Y-85748758D01*
X160713665Y-85772218D01*
X160758291Y-85839005D01*
X160789516Y-85914389D01*
X160801067Y-85936000D01*
X160816612Y-85954941D01*
X160835554Y-85970487D01*
X160857165Y-85982038D01*
X160880614Y-85989151D01*
X160905000Y-85991553D01*
X160929386Y-85989151D01*
X160952835Y-85982038D01*
X160974446Y-85970487D01*
X160993387Y-85954942D01*
X161008933Y-85936000D01*
X161020484Y-85914389D01*
X161051709Y-85839005D01*
X161096335Y-85772218D01*
X161112010Y-85748758D01*
X161188758Y-85672010D01*
X161279004Y-85611710D01*
X161279005Y-85611709D01*
X161354389Y-85580484D01*
X161376000Y-85568933D01*
X161394941Y-85553388D01*
X161410487Y-85534446D01*
X161422038Y-85512835D01*
X161429151Y-85489386D01*
X161431553Y-85465000D01*
X161429151Y-85440614D01*
X161422038Y-85417165D01*
X161410487Y-85395554D01*
X161394942Y-85376613D01*
X161376000Y-85361067D01*
X161354389Y-85349516D01*
X161279005Y-85318291D01*
X161234188Y-85288345D01*
X161188758Y-85257990D01*
X161112010Y-85181242D01*
X161051710Y-85090996D01*
X161051709Y-85090995D01*
X161020484Y-85015611D01*
X161008933Y-84994000D01*
X160993388Y-84975059D01*
X160974446Y-84959513D01*
X160952835Y-84947962D01*
X160929386Y-84940849D01*
X160905000Y-84938447D01*
X160880614Y-84940849D01*
X160857165Y-84947962D01*
X160835554Y-84959513D01*
X160816613Y-84975058D01*
X160801067Y-84994000D01*
X160789516Y-85015611D01*
X160758291Y-85090995D01*
X160758290Y-85090996D01*
X160697990Y-85181242D01*
X160621242Y-85257990D01*
X160575812Y-85288345D01*
X160530995Y-85318291D01*
X160455611Y-85349516D01*
X160434000Y-85361067D01*
X160415059Y-85376612D01*
X160399513Y-85395554D01*
X160387962Y-85417165D01*
X160380849Y-85440614D01*
X160378447Y-85465000D01*
X160161553Y-85465000D01*
X160159151Y-85440614D01*
X160152038Y-85417165D01*
X160140487Y-85395554D01*
X160124942Y-85376613D01*
X160106000Y-85361067D01*
X160084389Y-85349516D01*
X160009005Y-85318291D01*
X159964188Y-85288345D01*
X159918758Y-85257990D01*
X159842010Y-85181242D01*
X159781710Y-85090996D01*
X159781709Y-85090995D01*
X159750484Y-85015611D01*
X159738933Y-84994000D01*
X159723388Y-84975059D01*
X159704446Y-84959513D01*
X159682835Y-84947962D01*
X159659386Y-84940849D01*
X159635000Y-84938447D01*
X159610614Y-84940849D01*
X159587165Y-84947962D01*
X159565554Y-84959513D01*
X159546613Y-84975058D01*
X159531067Y-84994000D01*
X159519516Y-85015611D01*
X159488291Y-85090995D01*
X159488290Y-85090996D01*
X159427990Y-85181242D01*
X159351242Y-85257990D01*
X159305812Y-85288345D01*
X159260995Y-85318291D01*
X159185611Y-85349516D01*
X159164000Y-85361067D01*
X159145059Y-85376612D01*
X159129513Y-85395554D01*
X159117962Y-85417165D01*
X159110849Y-85440614D01*
X159108447Y-85465000D01*
X158891553Y-85465000D01*
X158889151Y-85440614D01*
X158882038Y-85417165D01*
X158870487Y-85395554D01*
X158854942Y-85376613D01*
X158836000Y-85361067D01*
X158814389Y-85349516D01*
X158739005Y-85318291D01*
X158694188Y-85288345D01*
X158648758Y-85257990D01*
X158572010Y-85181242D01*
X158511710Y-85090996D01*
X158511709Y-85090995D01*
X158480484Y-85015611D01*
X158468933Y-84994000D01*
X158453388Y-84975059D01*
X158434446Y-84959513D01*
X158412835Y-84947962D01*
X158389386Y-84940849D01*
X158365000Y-84938447D01*
X158340614Y-84940849D01*
X158317165Y-84947962D01*
X158295554Y-84959513D01*
X158276613Y-84975058D01*
X158261067Y-84994000D01*
X158249516Y-85015611D01*
X158218291Y-85090995D01*
X158218290Y-85090996D01*
X158157990Y-85181242D01*
X158081242Y-85257990D01*
X158035812Y-85288345D01*
X157990995Y-85318291D01*
X157915611Y-85349516D01*
X157894000Y-85361067D01*
X157875059Y-85376612D01*
X157859513Y-85395554D01*
X157847962Y-85417165D01*
X157840849Y-85440614D01*
X157838447Y-85465000D01*
X157621553Y-85465000D01*
X157619151Y-85440614D01*
X157612038Y-85417165D01*
X157600487Y-85395554D01*
X157584942Y-85376613D01*
X157566000Y-85361067D01*
X157544389Y-85349516D01*
X157469005Y-85318291D01*
X157424188Y-85288345D01*
X157378758Y-85257990D01*
X157302010Y-85181242D01*
X157241710Y-85090996D01*
X157241709Y-85090995D01*
X157210484Y-85015611D01*
X157198933Y-84994000D01*
X157183388Y-84975059D01*
X157164446Y-84959513D01*
X157142835Y-84947962D01*
X157119386Y-84940849D01*
X157095000Y-84938447D01*
X157070614Y-84940849D01*
X157047165Y-84947962D01*
X157025554Y-84959513D01*
X157006613Y-84975058D01*
X156991067Y-84994000D01*
X156979516Y-85015611D01*
X156948291Y-85090995D01*
X156948290Y-85090996D01*
X156887990Y-85181242D01*
X156811242Y-85257990D01*
X156779816Y-85278988D01*
X156718336Y-85320068D01*
X156699394Y-85335614D01*
X156683849Y-85354556D01*
X156672298Y-85376167D01*
X156665185Y-85399615D01*
X156662783Y-85424002D01*
X156257216Y-85424002D01*
X156257217Y-85424001D01*
X156254815Y-85399615D01*
X156247702Y-85376166D01*
X156236151Y-85354555D01*
X156220606Y-85335613D01*
X156201664Y-85320068D01*
X156140184Y-85278988D01*
X156108758Y-85257990D01*
X156032010Y-85181242D01*
X155971710Y-85090996D01*
X155971709Y-85090995D01*
X155930174Y-84990721D01*
X155909000Y-84884270D01*
X155909000Y-84775730D01*
X155930174Y-84669279D01*
X155971709Y-84569005D01*
X156032009Y-84478760D01*
X156032010Y-84478758D01*
X156108758Y-84402010D01*
X156199004Y-84341710D01*
X156199005Y-84341709D01*
X156299279Y-84300174D01*
X156405730Y-84279000D01*
X156514270Y-84279000D01*
X156620721Y-84300174D01*
G37*
G36*
X143351000Y-86351000D02*
G01*
X142649000Y-86351000D01*
X142649000Y-85749000D01*
X143351000Y-85749000D01*
X143351000Y-86351000D01*
G37*
G36*
X142351000Y-86351000D02*
G01*
X141649000Y-86351000D01*
X141649000Y-85749000D01*
X142351000Y-85749000D01*
X142351000Y-86351000D01*
G37*
G36*
X141351000Y-86351000D02*
G01*
X140649000Y-86351000D01*
X140649000Y-85749000D01*
X141351000Y-85749000D01*
X141351000Y-86351000D01*
G37*
G36*
X145501000Y-85101000D02*
G01*
X144499000Y-85101000D01*
X144499000Y-84299000D01*
X145501000Y-84299000D01*
X145501000Y-85101000D01*
G37*
G36*
X139501000Y-85101000D02*
G01*
X138499000Y-85101000D01*
X138499000Y-84299000D01*
X139501000Y-84299000D01*
X139501000Y-85101000D01*
G37*
M02*
