M48
; DRILL file {KiCad (5.1.5-0-10_14)} date 2020 June 21, Sunday 17:17:30
; FORMAT={-:-/ absolute / inch / decimal}
; #@! TF.CreationDate,2020-06-21T17:17:30+09:00
; #@! TF.GenerationSoftware,Kicad,Pcbnew,(5.1.5-0-10_14)
FMAT,2
INCH
T1C0.0100
T2C0.0256
T3C0.0394
%
G90
G05
T1
X5.6535Y-4.0157
X5.6811Y-3.9213
X5.6811Y-3.9843
X5.7795Y-3.3268
X5.7913Y-3.3898
X5.8228Y-4.2205
X5.8543Y-4.1985
X5.9173Y-3.6614
X6.0669Y-3.6693
X6.1063Y-4.1417
X6.126Y-3.6693
X6.1693Y-4.1181
X6.1969Y-4.1299
T2
X6.1598Y-3.3398
X6.1598Y-3.3898
X6.2098Y-3.3398
X6.2098Y-3.3898
X6.2598Y-3.3398
X6.2598Y-3.3898
X6.3098Y-3.3398
X6.3098Y-3.3898
X6.3598Y-3.3398
X6.3598Y-3.3898
T3
X5.752Y-3.4685
X5.852Y-3.4685
X5.952Y-3.4685
X6.052Y-3.4685
X6.252Y-3.4843
X6.252Y-3.5843
X6.252Y-3.6843
X6.252Y-3.7843
X6.252Y-3.8843
X6.252Y-3.9843
X6.252Y-4.0843
X6.252Y-4.1843
X5.552Y-4.2874
X5.652Y-4.2874
X5.752Y-4.2874
X5.852Y-4.2874
X5.952Y-4.2874
X6.052Y-4.2874
X6.152Y-4.2874
X6.252Y-4.2874
X5.5512Y-3.4843
X5.5512Y-3.5843
X5.5512Y-3.6843
X5.5512Y-3.7843
X5.5512Y-3.8843
X5.5512Y-3.9843
X5.5512Y-4.0843
X5.5512Y-4.1843
T0
M30
