G04 #@! TF.GenerationSoftware,KiCad,Pcbnew,(5.1.5-0-10_14)*
G04 #@! TF.CreationDate,2020-04-26T19:30:02+09:00*
G04 #@! TF.ProjectId,TriCon,54726943-6f6e-42e6-9b69-6361645f7063,1.0*
G04 #@! TF.SameCoordinates,Original*
G04 #@! TF.FileFunction,Legend,Top*
G04 #@! TF.FilePolarity,Positive*
%FSLAX46Y46*%
G04 Gerber Fmt 4.6, Leading zero omitted, Abs format (unit mm)*
G04 Created by KiCad (PCBNEW (5.1.5-0-10_14)) date 2020-04-26 19:30:02*
%MOMM*%
%LPD*%
G04 APERTURE LIST*
%ADD10C,0.120000*%
%ADD11C,0.200000*%
%ADD12C,0.150000*%
G04 APERTURE END LIST*
D10*
X146290000Y-96690000D02*
X144975000Y-96690000D01*
X146290000Y-96390000D02*
X146290000Y-96690000D01*
X146590000Y-96390000D02*
X146290000Y-96390000D01*
X153510000Y-96390000D02*
X153510000Y-96690000D01*
X153210000Y-96390000D02*
X153510000Y-96390000D01*
X146290000Y-103610000D02*
X146290000Y-103310000D01*
X146590000Y-103610000D02*
X146290000Y-103610000D01*
X153510000Y-103610000D02*
X153510000Y-103310000D01*
X153210000Y-103610000D02*
X153510000Y-103610000D01*
D11*
X144500000Y-97200000D02*
G75*
G03X144500000Y-97200000I-100000J0D01*
G01*
D10*
X153590000Y-104928733D02*
X153590000Y-105271267D01*
X154610000Y-104928733D02*
X154610000Y-105271267D01*
X146210000Y-95071267D02*
X146210000Y-94728733D01*
X145190000Y-95071267D02*
X145190000Y-94728733D01*
X148410000Y-93371267D02*
X148410000Y-93028733D01*
X147390000Y-93371267D02*
X147390000Y-93028733D01*
D12*
X149138095Y-93752380D02*
X149138095Y-94561904D01*
X149185714Y-94657142D01*
X149233333Y-94704761D01*
X149328571Y-94752380D01*
X149519047Y-94752380D01*
X149614285Y-94704761D01*
X149661904Y-94657142D01*
X149709523Y-94561904D01*
X149709523Y-93752380D01*
X150709523Y-94752380D02*
X150138095Y-94752380D01*
X150423809Y-94752380D02*
X150423809Y-93752380D01*
X150328571Y-93895238D01*
X150233333Y-93990476D01*
X150138095Y-94038095D01*
X148447619Y-89552380D02*
X148638095Y-89552380D01*
X148733333Y-89600000D01*
X148828571Y-89695238D01*
X148876190Y-89885714D01*
X148876190Y-90219047D01*
X148828571Y-90409523D01*
X148733333Y-90504761D01*
X148638095Y-90552380D01*
X148447619Y-90552380D01*
X148352380Y-90504761D01*
X148257142Y-90409523D01*
X148209523Y-90219047D01*
X148209523Y-89885714D01*
X148257142Y-89695238D01*
X148352380Y-89600000D01*
X148447619Y-89552380D01*
X149780952Y-90552380D02*
X149304761Y-90552380D01*
X149304761Y-89552380D01*
X150114285Y-90028571D02*
X150447619Y-90028571D01*
X150590476Y-90552380D02*
X150114285Y-90552380D01*
X150114285Y-89552380D01*
X150590476Y-89552380D01*
X151019047Y-90552380D02*
X151019047Y-89552380D01*
X151257142Y-89552380D01*
X151400000Y-89600000D01*
X151495238Y-89695238D01*
X151542857Y-89790476D01*
X151590476Y-89980952D01*
X151590476Y-90123809D01*
X151542857Y-90314285D01*
X151495238Y-90409523D01*
X151400000Y-90504761D01*
X151257142Y-90552380D01*
X151019047Y-90552380D01*
X144209523Y-111257142D02*
X144161904Y-111304761D01*
X144019047Y-111352380D01*
X143923809Y-111352380D01*
X143780952Y-111304761D01*
X143685714Y-111209523D01*
X143638095Y-111114285D01*
X143590476Y-110923809D01*
X143590476Y-110780952D01*
X143638095Y-110590476D01*
X143685714Y-110495238D01*
X143780952Y-110400000D01*
X143923809Y-110352380D01*
X144019047Y-110352380D01*
X144161904Y-110400000D01*
X144209523Y-110447619D01*
X144780952Y-111352380D02*
X144685714Y-111304761D01*
X144638095Y-111257142D01*
X144590476Y-111161904D01*
X144590476Y-110876190D01*
X144638095Y-110780952D01*
X144685714Y-110733333D01*
X144780952Y-110685714D01*
X144923809Y-110685714D01*
X145019047Y-110733333D01*
X145066666Y-110780952D01*
X145114285Y-110876190D01*
X145114285Y-111161904D01*
X145066666Y-111257142D01*
X145019047Y-111304761D01*
X144923809Y-111352380D01*
X144780952Y-111352380D01*
X145542857Y-110685714D02*
X145542857Y-111352380D01*
X145542857Y-110780952D02*
X145590476Y-110733333D01*
X145685714Y-110685714D01*
X145828571Y-110685714D01*
X145923809Y-110733333D01*
X145971428Y-110828571D01*
X145971428Y-111352380D01*
X146304761Y-110685714D02*
X146685714Y-110685714D01*
X146447619Y-110352380D02*
X146447619Y-111209523D01*
X146495238Y-111304761D01*
X146590476Y-111352380D01*
X146685714Y-111352380D01*
X147019047Y-111352380D02*
X147019047Y-110685714D01*
X147019047Y-110876190D02*
X147066666Y-110780952D01*
X147114285Y-110733333D01*
X147209523Y-110685714D01*
X147304761Y-110685714D01*
X147780952Y-111352380D02*
X147685714Y-111304761D01*
X147638095Y-111257142D01*
X147590476Y-111161904D01*
X147590476Y-110876190D01*
X147638095Y-110780952D01*
X147685714Y-110733333D01*
X147780952Y-110685714D01*
X147923809Y-110685714D01*
X148019047Y-110733333D01*
X148066666Y-110780952D01*
X148114285Y-110876190D01*
X148114285Y-111161904D01*
X148066666Y-111257142D01*
X148019047Y-111304761D01*
X147923809Y-111352380D01*
X147780952Y-111352380D01*
X148685714Y-111352380D02*
X148590476Y-111304761D01*
X148542857Y-111209523D01*
X148542857Y-110352380D01*
X149209523Y-111352380D02*
X149114285Y-111304761D01*
X149066666Y-111209523D01*
X149066666Y-110352380D01*
X149971428Y-111304761D02*
X149876190Y-111352380D01*
X149685714Y-111352380D01*
X149590476Y-111304761D01*
X149542857Y-111209523D01*
X149542857Y-110828571D01*
X149590476Y-110733333D01*
X149685714Y-110685714D01*
X149876190Y-110685714D01*
X149971428Y-110733333D01*
X150019047Y-110828571D01*
X150019047Y-110923809D01*
X149542857Y-111019047D01*
X150447619Y-111352380D02*
X150447619Y-110685714D01*
X150447619Y-110876190D02*
X150495238Y-110780952D01*
X150542857Y-110733333D01*
X150638095Y-110685714D01*
X150733333Y-110685714D01*
X152400000Y-111257142D02*
X152352380Y-111304761D01*
X152209523Y-111352380D01*
X152114285Y-111352380D01*
X151971428Y-111304761D01*
X151876190Y-111209523D01*
X151828571Y-111114285D01*
X151780952Y-110923809D01*
X151780952Y-110780952D01*
X151828571Y-110590476D01*
X151876190Y-110495238D01*
X151971428Y-110400000D01*
X152114285Y-110352380D01*
X152209523Y-110352380D01*
X152352380Y-110400000D01*
X152400000Y-110447619D01*
X153209523Y-111304761D02*
X153114285Y-111352380D01*
X152923809Y-111352380D01*
X152828571Y-111304761D01*
X152780952Y-111209523D01*
X152780952Y-110828571D01*
X152828571Y-110733333D01*
X152923809Y-110685714D01*
X153114285Y-110685714D01*
X153209523Y-110733333D01*
X153257142Y-110828571D01*
X153257142Y-110923809D01*
X152780952Y-111019047D01*
X153685714Y-110685714D02*
X153685714Y-111352380D01*
X153685714Y-110780952D02*
X153733333Y-110733333D01*
X153828571Y-110685714D01*
X153971428Y-110685714D01*
X154066666Y-110733333D01*
X154114285Y-110828571D01*
X154114285Y-111352380D01*
X154447619Y-110685714D02*
X154828571Y-110685714D01*
X154590476Y-110352380D02*
X154590476Y-111209523D01*
X154638095Y-111304761D01*
X154733333Y-111352380D01*
X154828571Y-111352380D01*
X155542857Y-111304761D02*
X155447619Y-111352380D01*
X155257142Y-111352380D01*
X155161904Y-111304761D01*
X155114285Y-111209523D01*
X155114285Y-110828571D01*
X155161904Y-110733333D01*
X155257142Y-110685714D01*
X155447619Y-110685714D01*
X155542857Y-110733333D01*
X155590476Y-110828571D01*
X155590476Y-110923809D01*
X155114285Y-111019047D01*
X156019047Y-111352380D02*
X156019047Y-110685714D01*
X156019047Y-110876190D02*
X156066666Y-110780952D01*
X156114285Y-110733333D01*
X156209523Y-110685714D01*
X156304761Y-110685714D01*
X161157142Y-102614285D02*
X161204761Y-102661904D01*
X161252380Y-102804761D01*
X161252380Y-102900000D01*
X161204761Y-103042857D01*
X161109523Y-103138095D01*
X161014285Y-103185714D01*
X160823809Y-103233333D01*
X160680952Y-103233333D01*
X160490476Y-103185714D01*
X160395238Y-103138095D01*
X160300000Y-103042857D01*
X160252380Y-102900000D01*
X160252380Y-102804761D01*
X160300000Y-102661904D01*
X160347619Y-102614285D01*
X161252380Y-102042857D02*
X161204761Y-102138095D01*
X161157142Y-102185714D01*
X161061904Y-102233333D01*
X160776190Y-102233333D01*
X160680952Y-102185714D01*
X160633333Y-102138095D01*
X160585714Y-102042857D01*
X160585714Y-101900000D01*
X160633333Y-101804761D01*
X160680952Y-101757142D01*
X160776190Y-101709523D01*
X161061904Y-101709523D01*
X161157142Y-101757142D01*
X161204761Y-101804761D01*
X161252380Y-101900000D01*
X161252380Y-102042857D01*
X160585714Y-101280952D02*
X161252380Y-101280952D01*
X160680952Y-101280952D02*
X160633333Y-101233333D01*
X160585714Y-101138095D01*
X160585714Y-100995238D01*
X160633333Y-100900000D01*
X160728571Y-100852380D01*
X161252380Y-100852380D01*
X160585714Y-100519047D02*
X160585714Y-100138095D01*
X160252380Y-100376190D02*
X161109523Y-100376190D01*
X161204761Y-100328571D01*
X161252380Y-100233333D01*
X161252380Y-100138095D01*
X161252380Y-99804761D02*
X160585714Y-99804761D01*
X160776190Y-99804761D02*
X160680952Y-99757142D01*
X160633333Y-99709523D01*
X160585714Y-99614285D01*
X160585714Y-99519047D01*
X161252380Y-99042857D02*
X161204761Y-99138095D01*
X161157142Y-99185714D01*
X161061904Y-99233333D01*
X160776190Y-99233333D01*
X160680952Y-99185714D01*
X160633333Y-99138095D01*
X160585714Y-99042857D01*
X160585714Y-98900000D01*
X160633333Y-98804761D01*
X160680952Y-98757142D01*
X160776190Y-98709523D01*
X161061904Y-98709523D01*
X161157142Y-98757142D01*
X161204761Y-98804761D01*
X161252380Y-98900000D01*
X161252380Y-99042857D01*
X161252380Y-98138095D02*
X161204761Y-98233333D01*
X161109523Y-98280952D01*
X160252380Y-98280952D01*
X161252380Y-97614285D02*
X161204761Y-97709523D01*
X161109523Y-97757142D01*
X160252380Y-97757142D01*
X161204761Y-96852380D02*
X161252380Y-96947619D01*
X161252380Y-97138095D01*
X161204761Y-97233333D01*
X161109523Y-97280952D01*
X160728571Y-97280952D01*
X160633333Y-97233333D01*
X160585714Y-97138095D01*
X160585714Y-96947619D01*
X160633333Y-96852380D01*
X160728571Y-96804761D01*
X160823809Y-96804761D01*
X160919047Y-97280952D01*
X161252380Y-96376190D02*
X160585714Y-96376190D01*
X160776190Y-96376190D02*
X160680952Y-96328571D01*
X160633333Y-96280952D01*
X160585714Y-96185714D01*
X160585714Y-96090476D01*
X161252380Y-94423809D02*
X160776190Y-94757142D01*
X161252380Y-94995238D02*
X160252380Y-94995238D01*
X160252380Y-94614285D01*
X160300000Y-94519047D01*
X160347619Y-94471428D01*
X160442857Y-94423809D01*
X160585714Y-94423809D01*
X160680952Y-94471428D01*
X160728571Y-94519047D01*
X160776190Y-94614285D01*
X160776190Y-94995238D01*
X161252380Y-93995238D02*
X160585714Y-93995238D01*
X160252380Y-93995238D02*
X160300000Y-94042857D01*
X160347619Y-93995238D01*
X160300000Y-93947619D01*
X160252380Y-93995238D01*
X160347619Y-93995238D01*
X160585714Y-93090476D02*
X161395238Y-93090476D01*
X161490476Y-93138095D01*
X161538095Y-93185714D01*
X161585714Y-93280952D01*
X161585714Y-93423809D01*
X161538095Y-93519047D01*
X161204761Y-93090476D02*
X161252380Y-93185714D01*
X161252380Y-93376190D01*
X161204761Y-93471428D01*
X161157142Y-93519047D01*
X161061904Y-93566666D01*
X160776190Y-93566666D01*
X160680952Y-93519047D01*
X160633333Y-93471428D01*
X160585714Y-93376190D01*
X160585714Y-93185714D01*
X160633333Y-93090476D01*
X161252380Y-92614285D02*
X160252380Y-92614285D01*
X161252380Y-92185714D02*
X160728571Y-92185714D01*
X160633333Y-92233333D01*
X160585714Y-92328571D01*
X160585714Y-92471428D01*
X160633333Y-92566666D01*
X160680952Y-92614285D01*
X160585714Y-91852380D02*
X160585714Y-91471428D01*
X160252380Y-91709523D02*
X161109523Y-91709523D01*
X161204761Y-91661904D01*
X161252380Y-91566666D01*
X161252380Y-91471428D01*
X138642857Y-92709523D02*
X138595238Y-92661904D01*
X138547619Y-92519047D01*
X138547619Y-92423809D01*
X138595238Y-92280952D01*
X138690476Y-92185714D01*
X138785714Y-92138095D01*
X138976190Y-92090476D01*
X139119047Y-92090476D01*
X139309523Y-92138095D01*
X139404761Y-92185714D01*
X139500000Y-92280952D01*
X139547619Y-92423809D01*
X139547619Y-92519047D01*
X139500000Y-92661904D01*
X139452380Y-92709523D01*
X138547619Y-93280952D02*
X138595238Y-93185714D01*
X138642857Y-93138095D01*
X138738095Y-93090476D01*
X139023809Y-93090476D01*
X139119047Y-93138095D01*
X139166666Y-93185714D01*
X139214285Y-93280952D01*
X139214285Y-93423809D01*
X139166666Y-93519047D01*
X139119047Y-93566666D01*
X139023809Y-93614285D01*
X138738095Y-93614285D01*
X138642857Y-93566666D01*
X138595238Y-93519047D01*
X138547619Y-93423809D01*
X138547619Y-93280952D01*
X139214285Y-94042857D02*
X138547619Y-94042857D01*
X139119047Y-94042857D02*
X139166666Y-94090476D01*
X139214285Y-94185714D01*
X139214285Y-94328571D01*
X139166666Y-94423809D01*
X139071428Y-94471428D01*
X138547619Y-94471428D01*
X139214285Y-94804761D02*
X139214285Y-95185714D01*
X139547619Y-94947619D02*
X138690476Y-94947619D01*
X138595238Y-94995238D01*
X138547619Y-95090476D01*
X138547619Y-95185714D01*
X138547619Y-95519047D02*
X139214285Y-95519047D01*
X139023809Y-95519047D02*
X139119047Y-95566666D01*
X139166666Y-95614285D01*
X139214285Y-95709523D01*
X139214285Y-95804761D01*
X138547619Y-96280952D02*
X138595238Y-96185714D01*
X138642857Y-96138095D01*
X138738095Y-96090476D01*
X139023809Y-96090476D01*
X139119047Y-96138095D01*
X139166666Y-96185714D01*
X139214285Y-96280952D01*
X139214285Y-96423809D01*
X139166666Y-96519047D01*
X139119047Y-96566666D01*
X139023809Y-96614285D01*
X138738095Y-96614285D01*
X138642857Y-96566666D01*
X138595238Y-96519047D01*
X138547619Y-96423809D01*
X138547619Y-96280952D01*
X138547619Y-97185714D02*
X138595238Y-97090476D01*
X138690476Y-97042857D01*
X139547619Y-97042857D01*
X138547619Y-97709523D02*
X138595238Y-97614285D01*
X138690476Y-97566666D01*
X139547619Y-97566666D01*
X138595238Y-98471428D02*
X138547619Y-98376190D01*
X138547619Y-98185714D01*
X138595238Y-98090476D01*
X138690476Y-98042857D01*
X139071428Y-98042857D01*
X139166666Y-98090476D01*
X139214285Y-98185714D01*
X139214285Y-98376190D01*
X139166666Y-98471428D01*
X139071428Y-98519047D01*
X138976190Y-98519047D01*
X138880952Y-98042857D01*
X138547619Y-98947619D02*
X139214285Y-98947619D01*
X139023809Y-98947619D02*
X139119047Y-98995238D01*
X139166666Y-99042857D01*
X139214285Y-99138095D01*
X139214285Y-99233333D01*
X138547619Y-100804761D02*
X138547619Y-100328571D01*
X139547619Y-100328571D01*
X138595238Y-101519047D02*
X138547619Y-101423809D01*
X138547619Y-101233333D01*
X138595238Y-101138095D01*
X138690476Y-101090476D01*
X139071428Y-101090476D01*
X139166666Y-101138095D01*
X139214285Y-101233333D01*
X139214285Y-101423809D01*
X139166666Y-101519047D01*
X139071428Y-101566666D01*
X138976190Y-101566666D01*
X138880952Y-101090476D01*
X139214285Y-101852380D02*
X139214285Y-102233333D01*
X138547619Y-101995238D02*
X139404761Y-101995238D01*
X139500000Y-102042857D01*
X139547619Y-102138095D01*
X139547619Y-102233333D01*
X139214285Y-102423809D02*
X139214285Y-102804761D01*
X139547619Y-102566666D02*
X138690476Y-102566666D01*
X138595238Y-102614285D01*
X138547619Y-102709523D01*
X138547619Y-102804761D01*
X155533333Y-106757142D02*
X155485714Y-106804761D01*
X155342857Y-106852380D01*
X155247619Y-106852380D01*
X155104761Y-106804761D01*
X155009523Y-106709523D01*
X154961904Y-106614285D01*
X154914285Y-106423809D01*
X154914285Y-106280952D01*
X154961904Y-106090476D01*
X155009523Y-105995238D01*
X155104761Y-105900000D01*
X155247619Y-105852380D01*
X155342857Y-105852380D01*
X155485714Y-105900000D01*
X155533333Y-105947619D01*
X155914285Y-105947619D02*
X155961904Y-105900000D01*
X156057142Y-105852380D01*
X156295238Y-105852380D01*
X156390476Y-105900000D01*
X156438095Y-105947619D01*
X156485714Y-106042857D01*
X156485714Y-106138095D01*
X156438095Y-106280952D01*
X155866666Y-106852380D01*
X156485714Y-106852380D01*
X143933333Y-95257142D02*
X143885714Y-95304761D01*
X143742857Y-95352380D01*
X143647619Y-95352380D01*
X143504761Y-95304761D01*
X143409523Y-95209523D01*
X143361904Y-95114285D01*
X143314285Y-94923809D01*
X143314285Y-94780952D01*
X143361904Y-94590476D01*
X143409523Y-94495238D01*
X143504761Y-94400000D01*
X143647619Y-94352380D01*
X143742857Y-94352380D01*
X143885714Y-94400000D01*
X143933333Y-94447619D01*
X144885714Y-95352380D02*
X144314285Y-95352380D01*
X144600000Y-95352380D02*
X144600000Y-94352380D01*
X144504761Y-94495238D01*
X144409523Y-94590476D01*
X144314285Y-94638095D01*
X146033333Y-92852380D02*
X145700000Y-92376190D01*
X145461904Y-92852380D02*
X145461904Y-91852380D01*
X145842857Y-91852380D01*
X145938095Y-91900000D01*
X145985714Y-91947619D01*
X146033333Y-92042857D01*
X146033333Y-92185714D01*
X145985714Y-92280952D01*
X145938095Y-92328571D01*
X145842857Y-92376190D01*
X145461904Y-92376190D01*
X146985714Y-92852380D02*
X146414285Y-92852380D01*
X146700000Y-92852380D02*
X146700000Y-91852380D01*
X146604761Y-91995238D01*
X146509523Y-92090476D01*
X146414285Y-92138095D01*
M02*
