G04 #@! TF.GenerationSoftware,KiCad,Pcbnew,(5.1.5-0-10_14)*
G04 #@! TF.CreationDate,2020-04-26T19:30:02+09:00*
G04 #@! TF.ProjectId,TriCon,54726943-6f6e-42e6-9b69-6361645f7063,1.0*
G04 #@! TF.SameCoordinates,Original*
G04 #@! TF.FileFunction,Legend,Bot*
G04 #@! TF.FilePolarity,Positive*
%FSLAX46Y46*%
G04 Gerber Fmt 4.6, Leading zero omitted, Abs format (unit mm)*
G04 Created by KiCad (PCBNEW (5.1.5-0-10_14)) date 2020-04-26 19:30:02*
%MOMM*%
%LPD*%
G04 APERTURE LIST*
%ADD10C,0.120000*%
%ADD11C,0.150000*%
G04 APERTURE END LIST*
D10*
X161210000Y-104828733D02*
X161210000Y-105171267D01*
X160190000Y-104828733D02*
X160190000Y-105171267D01*
X140471267Y-111310000D02*
X140128733Y-111310000D01*
X140471267Y-110290000D02*
X140128733Y-110290000D01*
X138590000Y-89971267D02*
X138590000Y-89628733D01*
X139610000Y-89971267D02*
X139610000Y-89628733D01*
D11*
X151995238Y-99157142D02*
X152042857Y-99204761D01*
X152185714Y-99252380D01*
X152280952Y-99252380D01*
X152423809Y-99204761D01*
X152519047Y-99109523D01*
X152566666Y-99014285D01*
X152614285Y-98823809D01*
X152614285Y-98680952D01*
X152566666Y-98490476D01*
X152519047Y-98395238D01*
X152423809Y-98300000D01*
X152280952Y-98252380D01*
X152185714Y-98252380D01*
X152042857Y-98300000D01*
X151995238Y-98347619D01*
X150995238Y-99252380D02*
X151328571Y-98776190D01*
X151566666Y-99252380D02*
X151566666Y-98252380D01*
X151185714Y-98252380D01*
X151090476Y-98300000D01*
X151042857Y-98347619D01*
X150995238Y-98442857D01*
X150995238Y-98585714D01*
X151042857Y-98680952D01*
X151090476Y-98728571D01*
X151185714Y-98776190D01*
X151566666Y-98776190D01*
X150614285Y-98347619D02*
X150566666Y-98300000D01*
X150471428Y-98252380D01*
X150233333Y-98252380D01*
X150138095Y-98300000D01*
X150090476Y-98347619D01*
X150042857Y-98442857D01*
X150042857Y-98538095D01*
X150090476Y-98680952D01*
X150661904Y-99252380D01*
X150042857Y-99252380D01*
X149423809Y-98252380D02*
X149328571Y-98252380D01*
X149233333Y-98300000D01*
X149185714Y-98347619D01*
X149138095Y-98442857D01*
X149090476Y-98633333D01*
X149090476Y-98871428D01*
X149138095Y-99061904D01*
X149185714Y-99157142D01*
X149233333Y-99204761D01*
X149328571Y-99252380D01*
X149423809Y-99252380D01*
X149519047Y-99204761D01*
X149566666Y-99157142D01*
X149614285Y-99061904D01*
X149661904Y-98871428D01*
X149661904Y-98633333D01*
X149614285Y-98442857D01*
X149566666Y-98347619D01*
X149519047Y-98300000D01*
X149423809Y-98252380D01*
X148757142Y-98252380D02*
X148138095Y-98252380D01*
X148471428Y-98633333D01*
X148328571Y-98633333D01*
X148233333Y-98680952D01*
X148185714Y-98728571D01*
X148138095Y-98823809D01*
X148138095Y-99061904D01*
X148185714Y-99157142D01*
X148233333Y-99204761D01*
X148328571Y-99252380D01*
X148614285Y-99252380D01*
X148709523Y-99204761D01*
X148757142Y-99157142D01*
X147757142Y-98347619D02*
X147709523Y-98300000D01*
X147614285Y-98252380D01*
X147376190Y-98252380D01*
X147280952Y-98300000D01*
X147233333Y-98347619D01*
X147185714Y-98442857D01*
X147185714Y-98538095D01*
X147233333Y-98680952D01*
X147804761Y-99252380D01*
X147185714Y-99252380D01*
X162457142Y-104833333D02*
X162504761Y-104785714D01*
X162552380Y-104642857D01*
X162552380Y-104547619D01*
X162504761Y-104404761D01*
X162409523Y-104309523D01*
X162314285Y-104261904D01*
X162123809Y-104214285D01*
X161980952Y-104214285D01*
X161790476Y-104261904D01*
X161695238Y-104309523D01*
X161600000Y-104404761D01*
X161552380Y-104547619D01*
X161552380Y-104642857D01*
X161600000Y-104785714D01*
X161647619Y-104833333D01*
X161552380Y-105738095D02*
X161552380Y-105261904D01*
X162028571Y-105214285D01*
X161980952Y-105261904D01*
X161933333Y-105357142D01*
X161933333Y-105595238D01*
X161980952Y-105690476D01*
X162028571Y-105738095D01*
X162123809Y-105785714D01*
X162361904Y-105785714D01*
X162457142Y-105738095D01*
X162504761Y-105690476D01*
X162552380Y-105595238D01*
X162552380Y-105357142D01*
X162504761Y-105261904D01*
X162457142Y-105214285D01*
X140466666Y-112557142D02*
X140514285Y-112604761D01*
X140657142Y-112652380D01*
X140752380Y-112652380D01*
X140895238Y-112604761D01*
X140990476Y-112509523D01*
X141038095Y-112414285D01*
X141085714Y-112223809D01*
X141085714Y-112080952D01*
X141038095Y-111890476D01*
X140990476Y-111795238D01*
X140895238Y-111700000D01*
X140752380Y-111652380D01*
X140657142Y-111652380D01*
X140514285Y-111700000D01*
X140466666Y-111747619D01*
X139609523Y-111985714D02*
X139609523Y-112652380D01*
X139847619Y-111604761D02*
X140085714Y-112319047D01*
X139466666Y-112319047D01*
X138157142Y-89633333D02*
X138204761Y-89585714D01*
X138252380Y-89442857D01*
X138252380Y-89347619D01*
X138204761Y-89204761D01*
X138109523Y-89109523D01*
X138014285Y-89061904D01*
X137823809Y-89014285D01*
X137680952Y-89014285D01*
X137490476Y-89061904D01*
X137395238Y-89109523D01*
X137300000Y-89204761D01*
X137252380Y-89347619D01*
X137252380Y-89442857D01*
X137300000Y-89585714D01*
X137347619Y-89633333D01*
X137252380Y-89966666D02*
X137252380Y-90585714D01*
X137633333Y-90252380D01*
X137633333Y-90395238D01*
X137680952Y-90490476D01*
X137728571Y-90538095D01*
X137823809Y-90585714D01*
X138061904Y-90585714D01*
X138157142Y-90538095D01*
X138204761Y-90490476D01*
X138252380Y-90395238D01*
X138252380Y-90109523D01*
X138204761Y-90014285D01*
X138157142Y-89966666D01*
M02*
