G04 #@! TF.GenerationSoftware,KiCad,Pcbnew,(5.1.5-0-10_14)*
G04 #@! TF.CreationDate,2020-04-26T19:30:02+09:00*
G04 #@! TF.ProjectId,TriCon,54726943-6f6e-42e6-9b69-6361645f7063,1.0*
G04 #@! TF.SameCoordinates,Original*
G04 #@! TF.FileFunction,Paste,Top*
G04 #@! TF.FilePolarity,Positive*
%FSLAX46Y46*%
G04 Gerber Fmt 4.6, Leading zero omitted, Abs format (unit mm)*
G04 Created by KiCad (PCBNEW (5.1.5-0-10_14)) date 2020-04-26 19:30:02*
%MOMM*%
%LPD*%
G04 APERTURE LIST*
%ADD10C,0.100000*%
%ADD11R,0.900000X0.700000*%
%ADD12R,0.600000X0.500000*%
G04 APERTURE END LIST*
D10*
G36*
X147209802Y-95075482D02*
G01*
X147219509Y-95076921D01*
X147229028Y-95079306D01*
X147238268Y-95082612D01*
X147247140Y-95086808D01*
X147255557Y-95091853D01*
X147263439Y-95097699D01*
X147270711Y-95104289D01*
X147277301Y-95111561D01*
X147283147Y-95119443D01*
X147288192Y-95127860D01*
X147292388Y-95136732D01*
X147295694Y-95145972D01*
X147298079Y-95155491D01*
X147299518Y-95165198D01*
X147300000Y-95175000D01*
X147300000Y-96475000D01*
X147299518Y-96484802D01*
X147298079Y-96494509D01*
X147295694Y-96504028D01*
X147292388Y-96513268D01*
X147288192Y-96522140D01*
X147283147Y-96530557D01*
X147277301Y-96538439D01*
X147270711Y-96545711D01*
X147263439Y-96552301D01*
X147255557Y-96558147D01*
X147247140Y-96563192D01*
X147238268Y-96567388D01*
X147229028Y-96570694D01*
X147219509Y-96573079D01*
X147209802Y-96574518D01*
X147200000Y-96575000D01*
X147000000Y-96575000D01*
X146990198Y-96574518D01*
X146980491Y-96573079D01*
X146970972Y-96570694D01*
X146961732Y-96567388D01*
X146952860Y-96563192D01*
X146944443Y-96558147D01*
X146936561Y-96552301D01*
X146929289Y-96545711D01*
X146922699Y-96538439D01*
X146916853Y-96530557D01*
X146911808Y-96522140D01*
X146907612Y-96513268D01*
X146904306Y-96504028D01*
X146901921Y-96494509D01*
X146900482Y-96484802D01*
X146900000Y-96475000D01*
X146900000Y-95175000D01*
X146900482Y-95165198D01*
X146901921Y-95155491D01*
X146904306Y-95145972D01*
X146907612Y-95136732D01*
X146911808Y-95127860D01*
X146916853Y-95119443D01*
X146922699Y-95111561D01*
X146929289Y-95104289D01*
X146936561Y-95097699D01*
X146944443Y-95091853D01*
X146952860Y-95086808D01*
X146961732Y-95082612D01*
X146970972Y-95079306D01*
X146980491Y-95076921D01*
X146990198Y-95075482D01*
X147000000Y-95075000D01*
X147200000Y-95075000D01*
X147209802Y-95075482D01*
G37*
G36*
X148009802Y-95075482D02*
G01*
X148019509Y-95076921D01*
X148029028Y-95079306D01*
X148038268Y-95082612D01*
X148047140Y-95086808D01*
X148055557Y-95091853D01*
X148063439Y-95097699D01*
X148070711Y-95104289D01*
X148077301Y-95111561D01*
X148083147Y-95119443D01*
X148088192Y-95127860D01*
X148092388Y-95136732D01*
X148095694Y-95145972D01*
X148098079Y-95155491D01*
X148099518Y-95165198D01*
X148100000Y-95175000D01*
X148100000Y-96475000D01*
X148099518Y-96484802D01*
X148098079Y-96494509D01*
X148095694Y-96504028D01*
X148092388Y-96513268D01*
X148088192Y-96522140D01*
X148083147Y-96530557D01*
X148077301Y-96538439D01*
X148070711Y-96545711D01*
X148063439Y-96552301D01*
X148055557Y-96558147D01*
X148047140Y-96563192D01*
X148038268Y-96567388D01*
X148029028Y-96570694D01*
X148019509Y-96573079D01*
X148009802Y-96574518D01*
X148000000Y-96575000D01*
X147800000Y-96575000D01*
X147790198Y-96574518D01*
X147780491Y-96573079D01*
X147770972Y-96570694D01*
X147761732Y-96567388D01*
X147752860Y-96563192D01*
X147744443Y-96558147D01*
X147736561Y-96552301D01*
X147729289Y-96545711D01*
X147722699Y-96538439D01*
X147716853Y-96530557D01*
X147711808Y-96522140D01*
X147707612Y-96513268D01*
X147704306Y-96504028D01*
X147701921Y-96494509D01*
X147700482Y-96484802D01*
X147700000Y-96475000D01*
X147700000Y-95175000D01*
X147700482Y-95165198D01*
X147701921Y-95155491D01*
X147704306Y-95145972D01*
X147707612Y-95136732D01*
X147711808Y-95127860D01*
X147716853Y-95119443D01*
X147722699Y-95111561D01*
X147729289Y-95104289D01*
X147736561Y-95097699D01*
X147744443Y-95091853D01*
X147752860Y-95086808D01*
X147761732Y-95082612D01*
X147770972Y-95079306D01*
X147780491Y-95076921D01*
X147790198Y-95075482D01*
X147800000Y-95075000D01*
X148000000Y-95075000D01*
X148009802Y-95075482D01*
G37*
G36*
X148809802Y-95075482D02*
G01*
X148819509Y-95076921D01*
X148829028Y-95079306D01*
X148838268Y-95082612D01*
X148847140Y-95086808D01*
X148855557Y-95091853D01*
X148863439Y-95097699D01*
X148870711Y-95104289D01*
X148877301Y-95111561D01*
X148883147Y-95119443D01*
X148888192Y-95127860D01*
X148892388Y-95136732D01*
X148895694Y-95145972D01*
X148898079Y-95155491D01*
X148899518Y-95165198D01*
X148900000Y-95175000D01*
X148900000Y-96475000D01*
X148899518Y-96484802D01*
X148898079Y-96494509D01*
X148895694Y-96504028D01*
X148892388Y-96513268D01*
X148888192Y-96522140D01*
X148883147Y-96530557D01*
X148877301Y-96538439D01*
X148870711Y-96545711D01*
X148863439Y-96552301D01*
X148855557Y-96558147D01*
X148847140Y-96563192D01*
X148838268Y-96567388D01*
X148829028Y-96570694D01*
X148819509Y-96573079D01*
X148809802Y-96574518D01*
X148800000Y-96575000D01*
X148600000Y-96575000D01*
X148590198Y-96574518D01*
X148580491Y-96573079D01*
X148570972Y-96570694D01*
X148561732Y-96567388D01*
X148552860Y-96563192D01*
X148544443Y-96558147D01*
X148536561Y-96552301D01*
X148529289Y-96545711D01*
X148522699Y-96538439D01*
X148516853Y-96530557D01*
X148511808Y-96522140D01*
X148507612Y-96513268D01*
X148504306Y-96504028D01*
X148501921Y-96494509D01*
X148500482Y-96484802D01*
X148500000Y-96475000D01*
X148500000Y-95175000D01*
X148500482Y-95165198D01*
X148501921Y-95155491D01*
X148504306Y-95145972D01*
X148507612Y-95136732D01*
X148511808Y-95127860D01*
X148516853Y-95119443D01*
X148522699Y-95111561D01*
X148529289Y-95104289D01*
X148536561Y-95097699D01*
X148544443Y-95091853D01*
X148552860Y-95086808D01*
X148561732Y-95082612D01*
X148570972Y-95079306D01*
X148580491Y-95076921D01*
X148590198Y-95075482D01*
X148600000Y-95075000D01*
X148800000Y-95075000D01*
X148809802Y-95075482D01*
G37*
G36*
X149609802Y-95075482D02*
G01*
X149619509Y-95076921D01*
X149629028Y-95079306D01*
X149638268Y-95082612D01*
X149647140Y-95086808D01*
X149655557Y-95091853D01*
X149663439Y-95097699D01*
X149670711Y-95104289D01*
X149677301Y-95111561D01*
X149683147Y-95119443D01*
X149688192Y-95127860D01*
X149692388Y-95136732D01*
X149695694Y-95145972D01*
X149698079Y-95155491D01*
X149699518Y-95165198D01*
X149700000Y-95175000D01*
X149700000Y-96475000D01*
X149699518Y-96484802D01*
X149698079Y-96494509D01*
X149695694Y-96504028D01*
X149692388Y-96513268D01*
X149688192Y-96522140D01*
X149683147Y-96530557D01*
X149677301Y-96538439D01*
X149670711Y-96545711D01*
X149663439Y-96552301D01*
X149655557Y-96558147D01*
X149647140Y-96563192D01*
X149638268Y-96567388D01*
X149629028Y-96570694D01*
X149619509Y-96573079D01*
X149609802Y-96574518D01*
X149600000Y-96575000D01*
X149400000Y-96575000D01*
X149390198Y-96574518D01*
X149380491Y-96573079D01*
X149370972Y-96570694D01*
X149361732Y-96567388D01*
X149352860Y-96563192D01*
X149344443Y-96558147D01*
X149336561Y-96552301D01*
X149329289Y-96545711D01*
X149322699Y-96538439D01*
X149316853Y-96530557D01*
X149311808Y-96522140D01*
X149307612Y-96513268D01*
X149304306Y-96504028D01*
X149301921Y-96494509D01*
X149300482Y-96484802D01*
X149300000Y-96475000D01*
X149300000Y-95175000D01*
X149300482Y-95165198D01*
X149301921Y-95155491D01*
X149304306Y-95145972D01*
X149307612Y-95136732D01*
X149311808Y-95127860D01*
X149316853Y-95119443D01*
X149322699Y-95111561D01*
X149329289Y-95104289D01*
X149336561Y-95097699D01*
X149344443Y-95091853D01*
X149352860Y-95086808D01*
X149361732Y-95082612D01*
X149370972Y-95079306D01*
X149380491Y-95076921D01*
X149390198Y-95075482D01*
X149400000Y-95075000D01*
X149600000Y-95075000D01*
X149609802Y-95075482D01*
G37*
G36*
X150409802Y-95075482D02*
G01*
X150419509Y-95076921D01*
X150429028Y-95079306D01*
X150438268Y-95082612D01*
X150447140Y-95086808D01*
X150455557Y-95091853D01*
X150463439Y-95097699D01*
X150470711Y-95104289D01*
X150477301Y-95111561D01*
X150483147Y-95119443D01*
X150488192Y-95127860D01*
X150492388Y-95136732D01*
X150495694Y-95145972D01*
X150498079Y-95155491D01*
X150499518Y-95165198D01*
X150500000Y-95175000D01*
X150500000Y-96475000D01*
X150499518Y-96484802D01*
X150498079Y-96494509D01*
X150495694Y-96504028D01*
X150492388Y-96513268D01*
X150488192Y-96522140D01*
X150483147Y-96530557D01*
X150477301Y-96538439D01*
X150470711Y-96545711D01*
X150463439Y-96552301D01*
X150455557Y-96558147D01*
X150447140Y-96563192D01*
X150438268Y-96567388D01*
X150429028Y-96570694D01*
X150419509Y-96573079D01*
X150409802Y-96574518D01*
X150400000Y-96575000D01*
X150200000Y-96575000D01*
X150190198Y-96574518D01*
X150180491Y-96573079D01*
X150170972Y-96570694D01*
X150161732Y-96567388D01*
X150152860Y-96563192D01*
X150144443Y-96558147D01*
X150136561Y-96552301D01*
X150129289Y-96545711D01*
X150122699Y-96538439D01*
X150116853Y-96530557D01*
X150111808Y-96522140D01*
X150107612Y-96513268D01*
X150104306Y-96504028D01*
X150101921Y-96494509D01*
X150100482Y-96484802D01*
X150100000Y-96475000D01*
X150100000Y-95175000D01*
X150100482Y-95165198D01*
X150101921Y-95155491D01*
X150104306Y-95145972D01*
X150107612Y-95136732D01*
X150111808Y-95127860D01*
X150116853Y-95119443D01*
X150122699Y-95111561D01*
X150129289Y-95104289D01*
X150136561Y-95097699D01*
X150144443Y-95091853D01*
X150152860Y-95086808D01*
X150161732Y-95082612D01*
X150170972Y-95079306D01*
X150180491Y-95076921D01*
X150190198Y-95075482D01*
X150200000Y-95075000D01*
X150400000Y-95075000D01*
X150409802Y-95075482D01*
G37*
G36*
X151209802Y-95075482D02*
G01*
X151219509Y-95076921D01*
X151229028Y-95079306D01*
X151238268Y-95082612D01*
X151247140Y-95086808D01*
X151255557Y-95091853D01*
X151263439Y-95097699D01*
X151270711Y-95104289D01*
X151277301Y-95111561D01*
X151283147Y-95119443D01*
X151288192Y-95127860D01*
X151292388Y-95136732D01*
X151295694Y-95145972D01*
X151298079Y-95155491D01*
X151299518Y-95165198D01*
X151300000Y-95175000D01*
X151300000Y-96475000D01*
X151299518Y-96484802D01*
X151298079Y-96494509D01*
X151295694Y-96504028D01*
X151292388Y-96513268D01*
X151288192Y-96522140D01*
X151283147Y-96530557D01*
X151277301Y-96538439D01*
X151270711Y-96545711D01*
X151263439Y-96552301D01*
X151255557Y-96558147D01*
X151247140Y-96563192D01*
X151238268Y-96567388D01*
X151229028Y-96570694D01*
X151219509Y-96573079D01*
X151209802Y-96574518D01*
X151200000Y-96575000D01*
X151000000Y-96575000D01*
X150990198Y-96574518D01*
X150980491Y-96573079D01*
X150970972Y-96570694D01*
X150961732Y-96567388D01*
X150952860Y-96563192D01*
X150944443Y-96558147D01*
X150936561Y-96552301D01*
X150929289Y-96545711D01*
X150922699Y-96538439D01*
X150916853Y-96530557D01*
X150911808Y-96522140D01*
X150907612Y-96513268D01*
X150904306Y-96504028D01*
X150901921Y-96494509D01*
X150900482Y-96484802D01*
X150900000Y-96475000D01*
X150900000Y-95175000D01*
X150900482Y-95165198D01*
X150901921Y-95155491D01*
X150904306Y-95145972D01*
X150907612Y-95136732D01*
X150911808Y-95127860D01*
X150916853Y-95119443D01*
X150922699Y-95111561D01*
X150929289Y-95104289D01*
X150936561Y-95097699D01*
X150944443Y-95091853D01*
X150952860Y-95086808D01*
X150961732Y-95082612D01*
X150970972Y-95079306D01*
X150980491Y-95076921D01*
X150990198Y-95075482D01*
X151000000Y-95075000D01*
X151200000Y-95075000D01*
X151209802Y-95075482D01*
G37*
G36*
X152009802Y-95075482D02*
G01*
X152019509Y-95076921D01*
X152029028Y-95079306D01*
X152038268Y-95082612D01*
X152047140Y-95086808D01*
X152055557Y-95091853D01*
X152063439Y-95097699D01*
X152070711Y-95104289D01*
X152077301Y-95111561D01*
X152083147Y-95119443D01*
X152088192Y-95127860D01*
X152092388Y-95136732D01*
X152095694Y-95145972D01*
X152098079Y-95155491D01*
X152099518Y-95165198D01*
X152100000Y-95175000D01*
X152100000Y-96475000D01*
X152099518Y-96484802D01*
X152098079Y-96494509D01*
X152095694Y-96504028D01*
X152092388Y-96513268D01*
X152088192Y-96522140D01*
X152083147Y-96530557D01*
X152077301Y-96538439D01*
X152070711Y-96545711D01*
X152063439Y-96552301D01*
X152055557Y-96558147D01*
X152047140Y-96563192D01*
X152038268Y-96567388D01*
X152029028Y-96570694D01*
X152019509Y-96573079D01*
X152009802Y-96574518D01*
X152000000Y-96575000D01*
X151800000Y-96575000D01*
X151790198Y-96574518D01*
X151780491Y-96573079D01*
X151770972Y-96570694D01*
X151761732Y-96567388D01*
X151752860Y-96563192D01*
X151744443Y-96558147D01*
X151736561Y-96552301D01*
X151729289Y-96545711D01*
X151722699Y-96538439D01*
X151716853Y-96530557D01*
X151711808Y-96522140D01*
X151707612Y-96513268D01*
X151704306Y-96504028D01*
X151701921Y-96494509D01*
X151700482Y-96484802D01*
X151700000Y-96475000D01*
X151700000Y-95175000D01*
X151700482Y-95165198D01*
X151701921Y-95155491D01*
X151704306Y-95145972D01*
X151707612Y-95136732D01*
X151711808Y-95127860D01*
X151716853Y-95119443D01*
X151722699Y-95111561D01*
X151729289Y-95104289D01*
X151736561Y-95097699D01*
X151744443Y-95091853D01*
X151752860Y-95086808D01*
X151761732Y-95082612D01*
X151770972Y-95079306D01*
X151780491Y-95076921D01*
X151790198Y-95075482D01*
X151800000Y-95075000D01*
X152000000Y-95075000D01*
X152009802Y-95075482D01*
G37*
G36*
X152809802Y-95075482D02*
G01*
X152819509Y-95076921D01*
X152829028Y-95079306D01*
X152838268Y-95082612D01*
X152847140Y-95086808D01*
X152855557Y-95091853D01*
X152863439Y-95097699D01*
X152870711Y-95104289D01*
X152877301Y-95111561D01*
X152883147Y-95119443D01*
X152888192Y-95127860D01*
X152892388Y-95136732D01*
X152895694Y-95145972D01*
X152898079Y-95155491D01*
X152899518Y-95165198D01*
X152900000Y-95175000D01*
X152900000Y-96475000D01*
X152899518Y-96484802D01*
X152898079Y-96494509D01*
X152895694Y-96504028D01*
X152892388Y-96513268D01*
X152888192Y-96522140D01*
X152883147Y-96530557D01*
X152877301Y-96538439D01*
X152870711Y-96545711D01*
X152863439Y-96552301D01*
X152855557Y-96558147D01*
X152847140Y-96563192D01*
X152838268Y-96567388D01*
X152829028Y-96570694D01*
X152819509Y-96573079D01*
X152809802Y-96574518D01*
X152800000Y-96575000D01*
X152600000Y-96575000D01*
X152590198Y-96574518D01*
X152580491Y-96573079D01*
X152570972Y-96570694D01*
X152561732Y-96567388D01*
X152552860Y-96563192D01*
X152544443Y-96558147D01*
X152536561Y-96552301D01*
X152529289Y-96545711D01*
X152522699Y-96538439D01*
X152516853Y-96530557D01*
X152511808Y-96522140D01*
X152507612Y-96513268D01*
X152504306Y-96504028D01*
X152501921Y-96494509D01*
X152500482Y-96484802D01*
X152500000Y-96475000D01*
X152500000Y-95175000D01*
X152500482Y-95165198D01*
X152501921Y-95155491D01*
X152504306Y-95145972D01*
X152507612Y-95136732D01*
X152511808Y-95127860D01*
X152516853Y-95119443D01*
X152522699Y-95111561D01*
X152529289Y-95104289D01*
X152536561Y-95097699D01*
X152544443Y-95091853D01*
X152552860Y-95086808D01*
X152561732Y-95082612D01*
X152570972Y-95079306D01*
X152580491Y-95076921D01*
X152590198Y-95075482D01*
X152600000Y-95075000D01*
X152800000Y-95075000D01*
X152809802Y-95075482D01*
G37*
G36*
X154734802Y-97000482D02*
G01*
X154744509Y-97001921D01*
X154754028Y-97004306D01*
X154763268Y-97007612D01*
X154772140Y-97011808D01*
X154780557Y-97016853D01*
X154788439Y-97022699D01*
X154795711Y-97029289D01*
X154802301Y-97036561D01*
X154808147Y-97044443D01*
X154813192Y-97052860D01*
X154817388Y-97061732D01*
X154820694Y-97070972D01*
X154823079Y-97080491D01*
X154824518Y-97090198D01*
X154825000Y-97100000D01*
X154825000Y-97300000D01*
X154824518Y-97309802D01*
X154823079Y-97319509D01*
X154820694Y-97329028D01*
X154817388Y-97338268D01*
X154813192Y-97347140D01*
X154808147Y-97355557D01*
X154802301Y-97363439D01*
X154795711Y-97370711D01*
X154788439Y-97377301D01*
X154780557Y-97383147D01*
X154772140Y-97388192D01*
X154763268Y-97392388D01*
X154754028Y-97395694D01*
X154744509Y-97398079D01*
X154734802Y-97399518D01*
X154725000Y-97400000D01*
X153425000Y-97400000D01*
X153415198Y-97399518D01*
X153405491Y-97398079D01*
X153395972Y-97395694D01*
X153386732Y-97392388D01*
X153377860Y-97388192D01*
X153369443Y-97383147D01*
X153361561Y-97377301D01*
X153354289Y-97370711D01*
X153347699Y-97363439D01*
X153341853Y-97355557D01*
X153336808Y-97347140D01*
X153332612Y-97338268D01*
X153329306Y-97329028D01*
X153326921Y-97319509D01*
X153325482Y-97309802D01*
X153325000Y-97300000D01*
X153325000Y-97100000D01*
X153325482Y-97090198D01*
X153326921Y-97080491D01*
X153329306Y-97070972D01*
X153332612Y-97061732D01*
X153336808Y-97052860D01*
X153341853Y-97044443D01*
X153347699Y-97036561D01*
X153354289Y-97029289D01*
X153361561Y-97022699D01*
X153369443Y-97016853D01*
X153377860Y-97011808D01*
X153386732Y-97007612D01*
X153395972Y-97004306D01*
X153405491Y-97001921D01*
X153415198Y-97000482D01*
X153425000Y-97000000D01*
X154725000Y-97000000D01*
X154734802Y-97000482D01*
G37*
G36*
X154734802Y-97800482D02*
G01*
X154744509Y-97801921D01*
X154754028Y-97804306D01*
X154763268Y-97807612D01*
X154772140Y-97811808D01*
X154780557Y-97816853D01*
X154788439Y-97822699D01*
X154795711Y-97829289D01*
X154802301Y-97836561D01*
X154808147Y-97844443D01*
X154813192Y-97852860D01*
X154817388Y-97861732D01*
X154820694Y-97870972D01*
X154823079Y-97880491D01*
X154824518Y-97890198D01*
X154825000Y-97900000D01*
X154825000Y-98100000D01*
X154824518Y-98109802D01*
X154823079Y-98119509D01*
X154820694Y-98129028D01*
X154817388Y-98138268D01*
X154813192Y-98147140D01*
X154808147Y-98155557D01*
X154802301Y-98163439D01*
X154795711Y-98170711D01*
X154788439Y-98177301D01*
X154780557Y-98183147D01*
X154772140Y-98188192D01*
X154763268Y-98192388D01*
X154754028Y-98195694D01*
X154744509Y-98198079D01*
X154734802Y-98199518D01*
X154725000Y-98200000D01*
X153425000Y-98200000D01*
X153415198Y-98199518D01*
X153405491Y-98198079D01*
X153395972Y-98195694D01*
X153386732Y-98192388D01*
X153377860Y-98188192D01*
X153369443Y-98183147D01*
X153361561Y-98177301D01*
X153354289Y-98170711D01*
X153347699Y-98163439D01*
X153341853Y-98155557D01*
X153336808Y-98147140D01*
X153332612Y-98138268D01*
X153329306Y-98129028D01*
X153326921Y-98119509D01*
X153325482Y-98109802D01*
X153325000Y-98100000D01*
X153325000Y-97900000D01*
X153325482Y-97890198D01*
X153326921Y-97880491D01*
X153329306Y-97870972D01*
X153332612Y-97861732D01*
X153336808Y-97852860D01*
X153341853Y-97844443D01*
X153347699Y-97836561D01*
X153354289Y-97829289D01*
X153361561Y-97822699D01*
X153369443Y-97816853D01*
X153377860Y-97811808D01*
X153386732Y-97807612D01*
X153395972Y-97804306D01*
X153405491Y-97801921D01*
X153415198Y-97800482D01*
X153425000Y-97800000D01*
X154725000Y-97800000D01*
X154734802Y-97800482D01*
G37*
G36*
X154734802Y-98600482D02*
G01*
X154744509Y-98601921D01*
X154754028Y-98604306D01*
X154763268Y-98607612D01*
X154772140Y-98611808D01*
X154780557Y-98616853D01*
X154788439Y-98622699D01*
X154795711Y-98629289D01*
X154802301Y-98636561D01*
X154808147Y-98644443D01*
X154813192Y-98652860D01*
X154817388Y-98661732D01*
X154820694Y-98670972D01*
X154823079Y-98680491D01*
X154824518Y-98690198D01*
X154825000Y-98700000D01*
X154825000Y-98900000D01*
X154824518Y-98909802D01*
X154823079Y-98919509D01*
X154820694Y-98929028D01*
X154817388Y-98938268D01*
X154813192Y-98947140D01*
X154808147Y-98955557D01*
X154802301Y-98963439D01*
X154795711Y-98970711D01*
X154788439Y-98977301D01*
X154780557Y-98983147D01*
X154772140Y-98988192D01*
X154763268Y-98992388D01*
X154754028Y-98995694D01*
X154744509Y-98998079D01*
X154734802Y-98999518D01*
X154725000Y-99000000D01*
X153425000Y-99000000D01*
X153415198Y-98999518D01*
X153405491Y-98998079D01*
X153395972Y-98995694D01*
X153386732Y-98992388D01*
X153377860Y-98988192D01*
X153369443Y-98983147D01*
X153361561Y-98977301D01*
X153354289Y-98970711D01*
X153347699Y-98963439D01*
X153341853Y-98955557D01*
X153336808Y-98947140D01*
X153332612Y-98938268D01*
X153329306Y-98929028D01*
X153326921Y-98919509D01*
X153325482Y-98909802D01*
X153325000Y-98900000D01*
X153325000Y-98700000D01*
X153325482Y-98690198D01*
X153326921Y-98680491D01*
X153329306Y-98670972D01*
X153332612Y-98661732D01*
X153336808Y-98652860D01*
X153341853Y-98644443D01*
X153347699Y-98636561D01*
X153354289Y-98629289D01*
X153361561Y-98622699D01*
X153369443Y-98616853D01*
X153377860Y-98611808D01*
X153386732Y-98607612D01*
X153395972Y-98604306D01*
X153405491Y-98601921D01*
X153415198Y-98600482D01*
X153425000Y-98600000D01*
X154725000Y-98600000D01*
X154734802Y-98600482D01*
G37*
G36*
X154734802Y-99400482D02*
G01*
X154744509Y-99401921D01*
X154754028Y-99404306D01*
X154763268Y-99407612D01*
X154772140Y-99411808D01*
X154780557Y-99416853D01*
X154788439Y-99422699D01*
X154795711Y-99429289D01*
X154802301Y-99436561D01*
X154808147Y-99444443D01*
X154813192Y-99452860D01*
X154817388Y-99461732D01*
X154820694Y-99470972D01*
X154823079Y-99480491D01*
X154824518Y-99490198D01*
X154825000Y-99500000D01*
X154825000Y-99700000D01*
X154824518Y-99709802D01*
X154823079Y-99719509D01*
X154820694Y-99729028D01*
X154817388Y-99738268D01*
X154813192Y-99747140D01*
X154808147Y-99755557D01*
X154802301Y-99763439D01*
X154795711Y-99770711D01*
X154788439Y-99777301D01*
X154780557Y-99783147D01*
X154772140Y-99788192D01*
X154763268Y-99792388D01*
X154754028Y-99795694D01*
X154744509Y-99798079D01*
X154734802Y-99799518D01*
X154725000Y-99800000D01*
X153425000Y-99800000D01*
X153415198Y-99799518D01*
X153405491Y-99798079D01*
X153395972Y-99795694D01*
X153386732Y-99792388D01*
X153377860Y-99788192D01*
X153369443Y-99783147D01*
X153361561Y-99777301D01*
X153354289Y-99770711D01*
X153347699Y-99763439D01*
X153341853Y-99755557D01*
X153336808Y-99747140D01*
X153332612Y-99738268D01*
X153329306Y-99729028D01*
X153326921Y-99719509D01*
X153325482Y-99709802D01*
X153325000Y-99700000D01*
X153325000Y-99500000D01*
X153325482Y-99490198D01*
X153326921Y-99480491D01*
X153329306Y-99470972D01*
X153332612Y-99461732D01*
X153336808Y-99452860D01*
X153341853Y-99444443D01*
X153347699Y-99436561D01*
X153354289Y-99429289D01*
X153361561Y-99422699D01*
X153369443Y-99416853D01*
X153377860Y-99411808D01*
X153386732Y-99407612D01*
X153395972Y-99404306D01*
X153405491Y-99401921D01*
X153415198Y-99400482D01*
X153425000Y-99400000D01*
X154725000Y-99400000D01*
X154734802Y-99400482D01*
G37*
G36*
X154734802Y-100200482D02*
G01*
X154744509Y-100201921D01*
X154754028Y-100204306D01*
X154763268Y-100207612D01*
X154772140Y-100211808D01*
X154780557Y-100216853D01*
X154788439Y-100222699D01*
X154795711Y-100229289D01*
X154802301Y-100236561D01*
X154808147Y-100244443D01*
X154813192Y-100252860D01*
X154817388Y-100261732D01*
X154820694Y-100270972D01*
X154823079Y-100280491D01*
X154824518Y-100290198D01*
X154825000Y-100300000D01*
X154825000Y-100500000D01*
X154824518Y-100509802D01*
X154823079Y-100519509D01*
X154820694Y-100529028D01*
X154817388Y-100538268D01*
X154813192Y-100547140D01*
X154808147Y-100555557D01*
X154802301Y-100563439D01*
X154795711Y-100570711D01*
X154788439Y-100577301D01*
X154780557Y-100583147D01*
X154772140Y-100588192D01*
X154763268Y-100592388D01*
X154754028Y-100595694D01*
X154744509Y-100598079D01*
X154734802Y-100599518D01*
X154725000Y-100600000D01*
X153425000Y-100600000D01*
X153415198Y-100599518D01*
X153405491Y-100598079D01*
X153395972Y-100595694D01*
X153386732Y-100592388D01*
X153377860Y-100588192D01*
X153369443Y-100583147D01*
X153361561Y-100577301D01*
X153354289Y-100570711D01*
X153347699Y-100563439D01*
X153341853Y-100555557D01*
X153336808Y-100547140D01*
X153332612Y-100538268D01*
X153329306Y-100529028D01*
X153326921Y-100519509D01*
X153325482Y-100509802D01*
X153325000Y-100500000D01*
X153325000Y-100300000D01*
X153325482Y-100290198D01*
X153326921Y-100280491D01*
X153329306Y-100270972D01*
X153332612Y-100261732D01*
X153336808Y-100252860D01*
X153341853Y-100244443D01*
X153347699Y-100236561D01*
X153354289Y-100229289D01*
X153361561Y-100222699D01*
X153369443Y-100216853D01*
X153377860Y-100211808D01*
X153386732Y-100207612D01*
X153395972Y-100204306D01*
X153405491Y-100201921D01*
X153415198Y-100200482D01*
X153425000Y-100200000D01*
X154725000Y-100200000D01*
X154734802Y-100200482D01*
G37*
G36*
X154734802Y-101000482D02*
G01*
X154744509Y-101001921D01*
X154754028Y-101004306D01*
X154763268Y-101007612D01*
X154772140Y-101011808D01*
X154780557Y-101016853D01*
X154788439Y-101022699D01*
X154795711Y-101029289D01*
X154802301Y-101036561D01*
X154808147Y-101044443D01*
X154813192Y-101052860D01*
X154817388Y-101061732D01*
X154820694Y-101070972D01*
X154823079Y-101080491D01*
X154824518Y-101090198D01*
X154825000Y-101100000D01*
X154825000Y-101300000D01*
X154824518Y-101309802D01*
X154823079Y-101319509D01*
X154820694Y-101329028D01*
X154817388Y-101338268D01*
X154813192Y-101347140D01*
X154808147Y-101355557D01*
X154802301Y-101363439D01*
X154795711Y-101370711D01*
X154788439Y-101377301D01*
X154780557Y-101383147D01*
X154772140Y-101388192D01*
X154763268Y-101392388D01*
X154754028Y-101395694D01*
X154744509Y-101398079D01*
X154734802Y-101399518D01*
X154725000Y-101400000D01*
X153425000Y-101400000D01*
X153415198Y-101399518D01*
X153405491Y-101398079D01*
X153395972Y-101395694D01*
X153386732Y-101392388D01*
X153377860Y-101388192D01*
X153369443Y-101383147D01*
X153361561Y-101377301D01*
X153354289Y-101370711D01*
X153347699Y-101363439D01*
X153341853Y-101355557D01*
X153336808Y-101347140D01*
X153332612Y-101338268D01*
X153329306Y-101329028D01*
X153326921Y-101319509D01*
X153325482Y-101309802D01*
X153325000Y-101300000D01*
X153325000Y-101100000D01*
X153325482Y-101090198D01*
X153326921Y-101080491D01*
X153329306Y-101070972D01*
X153332612Y-101061732D01*
X153336808Y-101052860D01*
X153341853Y-101044443D01*
X153347699Y-101036561D01*
X153354289Y-101029289D01*
X153361561Y-101022699D01*
X153369443Y-101016853D01*
X153377860Y-101011808D01*
X153386732Y-101007612D01*
X153395972Y-101004306D01*
X153405491Y-101001921D01*
X153415198Y-101000482D01*
X153425000Y-101000000D01*
X154725000Y-101000000D01*
X154734802Y-101000482D01*
G37*
G36*
X154734802Y-101800482D02*
G01*
X154744509Y-101801921D01*
X154754028Y-101804306D01*
X154763268Y-101807612D01*
X154772140Y-101811808D01*
X154780557Y-101816853D01*
X154788439Y-101822699D01*
X154795711Y-101829289D01*
X154802301Y-101836561D01*
X154808147Y-101844443D01*
X154813192Y-101852860D01*
X154817388Y-101861732D01*
X154820694Y-101870972D01*
X154823079Y-101880491D01*
X154824518Y-101890198D01*
X154825000Y-101900000D01*
X154825000Y-102100000D01*
X154824518Y-102109802D01*
X154823079Y-102119509D01*
X154820694Y-102129028D01*
X154817388Y-102138268D01*
X154813192Y-102147140D01*
X154808147Y-102155557D01*
X154802301Y-102163439D01*
X154795711Y-102170711D01*
X154788439Y-102177301D01*
X154780557Y-102183147D01*
X154772140Y-102188192D01*
X154763268Y-102192388D01*
X154754028Y-102195694D01*
X154744509Y-102198079D01*
X154734802Y-102199518D01*
X154725000Y-102200000D01*
X153425000Y-102200000D01*
X153415198Y-102199518D01*
X153405491Y-102198079D01*
X153395972Y-102195694D01*
X153386732Y-102192388D01*
X153377860Y-102188192D01*
X153369443Y-102183147D01*
X153361561Y-102177301D01*
X153354289Y-102170711D01*
X153347699Y-102163439D01*
X153341853Y-102155557D01*
X153336808Y-102147140D01*
X153332612Y-102138268D01*
X153329306Y-102129028D01*
X153326921Y-102119509D01*
X153325482Y-102109802D01*
X153325000Y-102100000D01*
X153325000Y-101900000D01*
X153325482Y-101890198D01*
X153326921Y-101880491D01*
X153329306Y-101870972D01*
X153332612Y-101861732D01*
X153336808Y-101852860D01*
X153341853Y-101844443D01*
X153347699Y-101836561D01*
X153354289Y-101829289D01*
X153361561Y-101822699D01*
X153369443Y-101816853D01*
X153377860Y-101811808D01*
X153386732Y-101807612D01*
X153395972Y-101804306D01*
X153405491Y-101801921D01*
X153415198Y-101800482D01*
X153425000Y-101800000D01*
X154725000Y-101800000D01*
X154734802Y-101800482D01*
G37*
G36*
X154734802Y-102600482D02*
G01*
X154744509Y-102601921D01*
X154754028Y-102604306D01*
X154763268Y-102607612D01*
X154772140Y-102611808D01*
X154780557Y-102616853D01*
X154788439Y-102622699D01*
X154795711Y-102629289D01*
X154802301Y-102636561D01*
X154808147Y-102644443D01*
X154813192Y-102652860D01*
X154817388Y-102661732D01*
X154820694Y-102670972D01*
X154823079Y-102680491D01*
X154824518Y-102690198D01*
X154825000Y-102700000D01*
X154825000Y-102900000D01*
X154824518Y-102909802D01*
X154823079Y-102919509D01*
X154820694Y-102929028D01*
X154817388Y-102938268D01*
X154813192Y-102947140D01*
X154808147Y-102955557D01*
X154802301Y-102963439D01*
X154795711Y-102970711D01*
X154788439Y-102977301D01*
X154780557Y-102983147D01*
X154772140Y-102988192D01*
X154763268Y-102992388D01*
X154754028Y-102995694D01*
X154744509Y-102998079D01*
X154734802Y-102999518D01*
X154725000Y-103000000D01*
X153425000Y-103000000D01*
X153415198Y-102999518D01*
X153405491Y-102998079D01*
X153395972Y-102995694D01*
X153386732Y-102992388D01*
X153377860Y-102988192D01*
X153369443Y-102983147D01*
X153361561Y-102977301D01*
X153354289Y-102970711D01*
X153347699Y-102963439D01*
X153341853Y-102955557D01*
X153336808Y-102947140D01*
X153332612Y-102938268D01*
X153329306Y-102929028D01*
X153326921Y-102919509D01*
X153325482Y-102909802D01*
X153325000Y-102900000D01*
X153325000Y-102700000D01*
X153325482Y-102690198D01*
X153326921Y-102680491D01*
X153329306Y-102670972D01*
X153332612Y-102661732D01*
X153336808Y-102652860D01*
X153341853Y-102644443D01*
X153347699Y-102636561D01*
X153354289Y-102629289D01*
X153361561Y-102622699D01*
X153369443Y-102616853D01*
X153377860Y-102611808D01*
X153386732Y-102607612D01*
X153395972Y-102604306D01*
X153405491Y-102601921D01*
X153415198Y-102600482D01*
X153425000Y-102600000D01*
X154725000Y-102600000D01*
X154734802Y-102600482D01*
G37*
G36*
X152809802Y-103425482D02*
G01*
X152819509Y-103426921D01*
X152829028Y-103429306D01*
X152838268Y-103432612D01*
X152847140Y-103436808D01*
X152855557Y-103441853D01*
X152863439Y-103447699D01*
X152870711Y-103454289D01*
X152877301Y-103461561D01*
X152883147Y-103469443D01*
X152888192Y-103477860D01*
X152892388Y-103486732D01*
X152895694Y-103495972D01*
X152898079Y-103505491D01*
X152899518Y-103515198D01*
X152900000Y-103525000D01*
X152900000Y-104825000D01*
X152899518Y-104834802D01*
X152898079Y-104844509D01*
X152895694Y-104854028D01*
X152892388Y-104863268D01*
X152888192Y-104872140D01*
X152883147Y-104880557D01*
X152877301Y-104888439D01*
X152870711Y-104895711D01*
X152863439Y-104902301D01*
X152855557Y-104908147D01*
X152847140Y-104913192D01*
X152838268Y-104917388D01*
X152829028Y-104920694D01*
X152819509Y-104923079D01*
X152809802Y-104924518D01*
X152800000Y-104925000D01*
X152600000Y-104925000D01*
X152590198Y-104924518D01*
X152580491Y-104923079D01*
X152570972Y-104920694D01*
X152561732Y-104917388D01*
X152552860Y-104913192D01*
X152544443Y-104908147D01*
X152536561Y-104902301D01*
X152529289Y-104895711D01*
X152522699Y-104888439D01*
X152516853Y-104880557D01*
X152511808Y-104872140D01*
X152507612Y-104863268D01*
X152504306Y-104854028D01*
X152501921Y-104844509D01*
X152500482Y-104834802D01*
X152500000Y-104825000D01*
X152500000Y-103525000D01*
X152500482Y-103515198D01*
X152501921Y-103505491D01*
X152504306Y-103495972D01*
X152507612Y-103486732D01*
X152511808Y-103477860D01*
X152516853Y-103469443D01*
X152522699Y-103461561D01*
X152529289Y-103454289D01*
X152536561Y-103447699D01*
X152544443Y-103441853D01*
X152552860Y-103436808D01*
X152561732Y-103432612D01*
X152570972Y-103429306D01*
X152580491Y-103426921D01*
X152590198Y-103425482D01*
X152600000Y-103425000D01*
X152800000Y-103425000D01*
X152809802Y-103425482D01*
G37*
G36*
X152009802Y-103425482D02*
G01*
X152019509Y-103426921D01*
X152029028Y-103429306D01*
X152038268Y-103432612D01*
X152047140Y-103436808D01*
X152055557Y-103441853D01*
X152063439Y-103447699D01*
X152070711Y-103454289D01*
X152077301Y-103461561D01*
X152083147Y-103469443D01*
X152088192Y-103477860D01*
X152092388Y-103486732D01*
X152095694Y-103495972D01*
X152098079Y-103505491D01*
X152099518Y-103515198D01*
X152100000Y-103525000D01*
X152100000Y-104825000D01*
X152099518Y-104834802D01*
X152098079Y-104844509D01*
X152095694Y-104854028D01*
X152092388Y-104863268D01*
X152088192Y-104872140D01*
X152083147Y-104880557D01*
X152077301Y-104888439D01*
X152070711Y-104895711D01*
X152063439Y-104902301D01*
X152055557Y-104908147D01*
X152047140Y-104913192D01*
X152038268Y-104917388D01*
X152029028Y-104920694D01*
X152019509Y-104923079D01*
X152009802Y-104924518D01*
X152000000Y-104925000D01*
X151800000Y-104925000D01*
X151790198Y-104924518D01*
X151780491Y-104923079D01*
X151770972Y-104920694D01*
X151761732Y-104917388D01*
X151752860Y-104913192D01*
X151744443Y-104908147D01*
X151736561Y-104902301D01*
X151729289Y-104895711D01*
X151722699Y-104888439D01*
X151716853Y-104880557D01*
X151711808Y-104872140D01*
X151707612Y-104863268D01*
X151704306Y-104854028D01*
X151701921Y-104844509D01*
X151700482Y-104834802D01*
X151700000Y-104825000D01*
X151700000Y-103525000D01*
X151700482Y-103515198D01*
X151701921Y-103505491D01*
X151704306Y-103495972D01*
X151707612Y-103486732D01*
X151711808Y-103477860D01*
X151716853Y-103469443D01*
X151722699Y-103461561D01*
X151729289Y-103454289D01*
X151736561Y-103447699D01*
X151744443Y-103441853D01*
X151752860Y-103436808D01*
X151761732Y-103432612D01*
X151770972Y-103429306D01*
X151780491Y-103426921D01*
X151790198Y-103425482D01*
X151800000Y-103425000D01*
X152000000Y-103425000D01*
X152009802Y-103425482D01*
G37*
G36*
X151209802Y-103425482D02*
G01*
X151219509Y-103426921D01*
X151229028Y-103429306D01*
X151238268Y-103432612D01*
X151247140Y-103436808D01*
X151255557Y-103441853D01*
X151263439Y-103447699D01*
X151270711Y-103454289D01*
X151277301Y-103461561D01*
X151283147Y-103469443D01*
X151288192Y-103477860D01*
X151292388Y-103486732D01*
X151295694Y-103495972D01*
X151298079Y-103505491D01*
X151299518Y-103515198D01*
X151300000Y-103525000D01*
X151300000Y-104825000D01*
X151299518Y-104834802D01*
X151298079Y-104844509D01*
X151295694Y-104854028D01*
X151292388Y-104863268D01*
X151288192Y-104872140D01*
X151283147Y-104880557D01*
X151277301Y-104888439D01*
X151270711Y-104895711D01*
X151263439Y-104902301D01*
X151255557Y-104908147D01*
X151247140Y-104913192D01*
X151238268Y-104917388D01*
X151229028Y-104920694D01*
X151219509Y-104923079D01*
X151209802Y-104924518D01*
X151200000Y-104925000D01*
X151000000Y-104925000D01*
X150990198Y-104924518D01*
X150980491Y-104923079D01*
X150970972Y-104920694D01*
X150961732Y-104917388D01*
X150952860Y-104913192D01*
X150944443Y-104908147D01*
X150936561Y-104902301D01*
X150929289Y-104895711D01*
X150922699Y-104888439D01*
X150916853Y-104880557D01*
X150911808Y-104872140D01*
X150907612Y-104863268D01*
X150904306Y-104854028D01*
X150901921Y-104844509D01*
X150900482Y-104834802D01*
X150900000Y-104825000D01*
X150900000Y-103525000D01*
X150900482Y-103515198D01*
X150901921Y-103505491D01*
X150904306Y-103495972D01*
X150907612Y-103486732D01*
X150911808Y-103477860D01*
X150916853Y-103469443D01*
X150922699Y-103461561D01*
X150929289Y-103454289D01*
X150936561Y-103447699D01*
X150944443Y-103441853D01*
X150952860Y-103436808D01*
X150961732Y-103432612D01*
X150970972Y-103429306D01*
X150980491Y-103426921D01*
X150990198Y-103425482D01*
X151000000Y-103425000D01*
X151200000Y-103425000D01*
X151209802Y-103425482D01*
G37*
G36*
X150409802Y-103425482D02*
G01*
X150419509Y-103426921D01*
X150429028Y-103429306D01*
X150438268Y-103432612D01*
X150447140Y-103436808D01*
X150455557Y-103441853D01*
X150463439Y-103447699D01*
X150470711Y-103454289D01*
X150477301Y-103461561D01*
X150483147Y-103469443D01*
X150488192Y-103477860D01*
X150492388Y-103486732D01*
X150495694Y-103495972D01*
X150498079Y-103505491D01*
X150499518Y-103515198D01*
X150500000Y-103525000D01*
X150500000Y-104825000D01*
X150499518Y-104834802D01*
X150498079Y-104844509D01*
X150495694Y-104854028D01*
X150492388Y-104863268D01*
X150488192Y-104872140D01*
X150483147Y-104880557D01*
X150477301Y-104888439D01*
X150470711Y-104895711D01*
X150463439Y-104902301D01*
X150455557Y-104908147D01*
X150447140Y-104913192D01*
X150438268Y-104917388D01*
X150429028Y-104920694D01*
X150419509Y-104923079D01*
X150409802Y-104924518D01*
X150400000Y-104925000D01*
X150200000Y-104925000D01*
X150190198Y-104924518D01*
X150180491Y-104923079D01*
X150170972Y-104920694D01*
X150161732Y-104917388D01*
X150152860Y-104913192D01*
X150144443Y-104908147D01*
X150136561Y-104902301D01*
X150129289Y-104895711D01*
X150122699Y-104888439D01*
X150116853Y-104880557D01*
X150111808Y-104872140D01*
X150107612Y-104863268D01*
X150104306Y-104854028D01*
X150101921Y-104844509D01*
X150100482Y-104834802D01*
X150100000Y-104825000D01*
X150100000Y-103525000D01*
X150100482Y-103515198D01*
X150101921Y-103505491D01*
X150104306Y-103495972D01*
X150107612Y-103486732D01*
X150111808Y-103477860D01*
X150116853Y-103469443D01*
X150122699Y-103461561D01*
X150129289Y-103454289D01*
X150136561Y-103447699D01*
X150144443Y-103441853D01*
X150152860Y-103436808D01*
X150161732Y-103432612D01*
X150170972Y-103429306D01*
X150180491Y-103426921D01*
X150190198Y-103425482D01*
X150200000Y-103425000D01*
X150400000Y-103425000D01*
X150409802Y-103425482D01*
G37*
G36*
X149609802Y-103425482D02*
G01*
X149619509Y-103426921D01*
X149629028Y-103429306D01*
X149638268Y-103432612D01*
X149647140Y-103436808D01*
X149655557Y-103441853D01*
X149663439Y-103447699D01*
X149670711Y-103454289D01*
X149677301Y-103461561D01*
X149683147Y-103469443D01*
X149688192Y-103477860D01*
X149692388Y-103486732D01*
X149695694Y-103495972D01*
X149698079Y-103505491D01*
X149699518Y-103515198D01*
X149700000Y-103525000D01*
X149700000Y-104825000D01*
X149699518Y-104834802D01*
X149698079Y-104844509D01*
X149695694Y-104854028D01*
X149692388Y-104863268D01*
X149688192Y-104872140D01*
X149683147Y-104880557D01*
X149677301Y-104888439D01*
X149670711Y-104895711D01*
X149663439Y-104902301D01*
X149655557Y-104908147D01*
X149647140Y-104913192D01*
X149638268Y-104917388D01*
X149629028Y-104920694D01*
X149619509Y-104923079D01*
X149609802Y-104924518D01*
X149600000Y-104925000D01*
X149400000Y-104925000D01*
X149390198Y-104924518D01*
X149380491Y-104923079D01*
X149370972Y-104920694D01*
X149361732Y-104917388D01*
X149352860Y-104913192D01*
X149344443Y-104908147D01*
X149336561Y-104902301D01*
X149329289Y-104895711D01*
X149322699Y-104888439D01*
X149316853Y-104880557D01*
X149311808Y-104872140D01*
X149307612Y-104863268D01*
X149304306Y-104854028D01*
X149301921Y-104844509D01*
X149300482Y-104834802D01*
X149300000Y-104825000D01*
X149300000Y-103525000D01*
X149300482Y-103515198D01*
X149301921Y-103505491D01*
X149304306Y-103495972D01*
X149307612Y-103486732D01*
X149311808Y-103477860D01*
X149316853Y-103469443D01*
X149322699Y-103461561D01*
X149329289Y-103454289D01*
X149336561Y-103447699D01*
X149344443Y-103441853D01*
X149352860Y-103436808D01*
X149361732Y-103432612D01*
X149370972Y-103429306D01*
X149380491Y-103426921D01*
X149390198Y-103425482D01*
X149400000Y-103425000D01*
X149600000Y-103425000D01*
X149609802Y-103425482D01*
G37*
G36*
X148809802Y-103425482D02*
G01*
X148819509Y-103426921D01*
X148829028Y-103429306D01*
X148838268Y-103432612D01*
X148847140Y-103436808D01*
X148855557Y-103441853D01*
X148863439Y-103447699D01*
X148870711Y-103454289D01*
X148877301Y-103461561D01*
X148883147Y-103469443D01*
X148888192Y-103477860D01*
X148892388Y-103486732D01*
X148895694Y-103495972D01*
X148898079Y-103505491D01*
X148899518Y-103515198D01*
X148900000Y-103525000D01*
X148900000Y-104825000D01*
X148899518Y-104834802D01*
X148898079Y-104844509D01*
X148895694Y-104854028D01*
X148892388Y-104863268D01*
X148888192Y-104872140D01*
X148883147Y-104880557D01*
X148877301Y-104888439D01*
X148870711Y-104895711D01*
X148863439Y-104902301D01*
X148855557Y-104908147D01*
X148847140Y-104913192D01*
X148838268Y-104917388D01*
X148829028Y-104920694D01*
X148819509Y-104923079D01*
X148809802Y-104924518D01*
X148800000Y-104925000D01*
X148600000Y-104925000D01*
X148590198Y-104924518D01*
X148580491Y-104923079D01*
X148570972Y-104920694D01*
X148561732Y-104917388D01*
X148552860Y-104913192D01*
X148544443Y-104908147D01*
X148536561Y-104902301D01*
X148529289Y-104895711D01*
X148522699Y-104888439D01*
X148516853Y-104880557D01*
X148511808Y-104872140D01*
X148507612Y-104863268D01*
X148504306Y-104854028D01*
X148501921Y-104844509D01*
X148500482Y-104834802D01*
X148500000Y-104825000D01*
X148500000Y-103525000D01*
X148500482Y-103515198D01*
X148501921Y-103505491D01*
X148504306Y-103495972D01*
X148507612Y-103486732D01*
X148511808Y-103477860D01*
X148516853Y-103469443D01*
X148522699Y-103461561D01*
X148529289Y-103454289D01*
X148536561Y-103447699D01*
X148544443Y-103441853D01*
X148552860Y-103436808D01*
X148561732Y-103432612D01*
X148570972Y-103429306D01*
X148580491Y-103426921D01*
X148590198Y-103425482D01*
X148600000Y-103425000D01*
X148800000Y-103425000D01*
X148809802Y-103425482D01*
G37*
G36*
X148009802Y-103425482D02*
G01*
X148019509Y-103426921D01*
X148029028Y-103429306D01*
X148038268Y-103432612D01*
X148047140Y-103436808D01*
X148055557Y-103441853D01*
X148063439Y-103447699D01*
X148070711Y-103454289D01*
X148077301Y-103461561D01*
X148083147Y-103469443D01*
X148088192Y-103477860D01*
X148092388Y-103486732D01*
X148095694Y-103495972D01*
X148098079Y-103505491D01*
X148099518Y-103515198D01*
X148100000Y-103525000D01*
X148100000Y-104825000D01*
X148099518Y-104834802D01*
X148098079Y-104844509D01*
X148095694Y-104854028D01*
X148092388Y-104863268D01*
X148088192Y-104872140D01*
X148083147Y-104880557D01*
X148077301Y-104888439D01*
X148070711Y-104895711D01*
X148063439Y-104902301D01*
X148055557Y-104908147D01*
X148047140Y-104913192D01*
X148038268Y-104917388D01*
X148029028Y-104920694D01*
X148019509Y-104923079D01*
X148009802Y-104924518D01*
X148000000Y-104925000D01*
X147800000Y-104925000D01*
X147790198Y-104924518D01*
X147780491Y-104923079D01*
X147770972Y-104920694D01*
X147761732Y-104917388D01*
X147752860Y-104913192D01*
X147744443Y-104908147D01*
X147736561Y-104902301D01*
X147729289Y-104895711D01*
X147722699Y-104888439D01*
X147716853Y-104880557D01*
X147711808Y-104872140D01*
X147707612Y-104863268D01*
X147704306Y-104854028D01*
X147701921Y-104844509D01*
X147700482Y-104834802D01*
X147700000Y-104825000D01*
X147700000Y-103525000D01*
X147700482Y-103515198D01*
X147701921Y-103505491D01*
X147704306Y-103495972D01*
X147707612Y-103486732D01*
X147711808Y-103477860D01*
X147716853Y-103469443D01*
X147722699Y-103461561D01*
X147729289Y-103454289D01*
X147736561Y-103447699D01*
X147744443Y-103441853D01*
X147752860Y-103436808D01*
X147761732Y-103432612D01*
X147770972Y-103429306D01*
X147780491Y-103426921D01*
X147790198Y-103425482D01*
X147800000Y-103425000D01*
X148000000Y-103425000D01*
X148009802Y-103425482D01*
G37*
G36*
X147209802Y-103425482D02*
G01*
X147219509Y-103426921D01*
X147229028Y-103429306D01*
X147238268Y-103432612D01*
X147247140Y-103436808D01*
X147255557Y-103441853D01*
X147263439Y-103447699D01*
X147270711Y-103454289D01*
X147277301Y-103461561D01*
X147283147Y-103469443D01*
X147288192Y-103477860D01*
X147292388Y-103486732D01*
X147295694Y-103495972D01*
X147298079Y-103505491D01*
X147299518Y-103515198D01*
X147300000Y-103525000D01*
X147300000Y-104825000D01*
X147299518Y-104834802D01*
X147298079Y-104844509D01*
X147295694Y-104854028D01*
X147292388Y-104863268D01*
X147288192Y-104872140D01*
X147283147Y-104880557D01*
X147277301Y-104888439D01*
X147270711Y-104895711D01*
X147263439Y-104902301D01*
X147255557Y-104908147D01*
X147247140Y-104913192D01*
X147238268Y-104917388D01*
X147229028Y-104920694D01*
X147219509Y-104923079D01*
X147209802Y-104924518D01*
X147200000Y-104925000D01*
X147000000Y-104925000D01*
X146990198Y-104924518D01*
X146980491Y-104923079D01*
X146970972Y-104920694D01*
X146961732Y-104917388D01*
X146952860Y-104913192D01*
X146944443Y-104908147D01*
X146936561Y-104902301D01*
X146929289Y-104895711D01*
X146922699Y-104888439D01*
X146916853Y-104880557D01*
X146911808Y-104872140D01*
X146907612Y-104863268D01*
X146904306Y-104854028D01*
X146901921Y-104844509D01*
X146900482Y-104834802D01*
X146900000Y-104825000D01*
X146900000Y-103525000D01*
X146900482Y-103515198D01*
X146901921Y-103505491D01*
X146904306Y-103495972D01*
X146907612Y-103486732D01*
X146911808Y-103477860D01*
X146916853Y-103469443D01*
X146922699Y-103461561D01*
X146929289Y-103454289D01*
X146936561Y-103447699D01*
X146944443Y-103441853D01*
X146952860Y-103436808D01*
X146961732Y-103432612D01*
X146970972Y-103429306D01*
X146980491Y-103426921D01*
X146990198Y-103425482D01*
X147000000Y-103425000D01*
X147200000Y-103425000D01*
X147209802Y-103425482D01*
G37*
G36*
X146384802Y-102600482D02*
G01*
X146394509Y-102601921D01*
X146404028Y-102604306D01*
X146413268Y-102607612D01*
X146422140Y-102611808D01*
X146430557Y-102616853D01*
X146438439Y-102622699D01*
X146445711Y-102629289D01*
X146452301Y-102636561D01*
X146458147Y-102644443D01*
X146463192Y-102652860D01*
X146467388Y-102661732D01*
X146470694Y-102670972D01*
X146473079Y-102680491D01*
X146474518Y-102690198D01*
X146475000Y-102700000D01*
X146475000Y-102900000D01*
X146474518Y-102909802D01*
X146473079Y-102919509D01*
X146470694Y-102929028D01*
X146467388Y-102938268D01*
X146463192Y-102947140D01*
X146458147Y-102955557D01*
X146452301Y-102963439D01*
X146445711Y-102970711D01*
X146438439Y-102977301D01*
X146430557Y-102983147D01*
X146422140Y-102988192D01*
X146413268Y-102992388D01*
X146404028Y-102995694D01*
X146394509Y-102998079D01*
X146384802Y-102999518D01*
X146375000Y-103000000D01*
X145075000Y-103000000D01*
X145065198Y-102999518D01*
X145055491Y-102998079D01*
X145045972Y-102995694D01*
X145036732Y-102992388D01*
X145027860Y-102988192D01*
X145019443Y-102983147D01*
X145011561Y-102977301D01*
X145004289Y-102970711D01*
X144997699Y-102963439D01*
X144991853Y-102955557D01*
X144986808Y-102947140D01*
X144982612Y-102938268D01*
X144979306Y-102929028D01*
X144976921Y-102919509D01*
X144975482Y-102909802D01*
X144975000Y-102900000D01*
X144975000Y-102700000D01*
X144975482Y-102690198D01*
X144976921Y-102680491D01*
X144979306Y-102670972D01*
X144982612Y-102661732D01*
X144986808Y-102652860D01*
X144991853Y-102644443D01*
X144997699Y-102636561D01*
X145004289Y-102629289D01*
X145011561Y-102622699D01*
X145019443Y-102616853D01*
X145027860Y-102611808D01*
X145036732Y-102607612D01*
X145045972Y-102604306D01*
X145055491Y-102601921D01*
X145065198Y-102600482D01*
X145075000Y-102600000D01*
X146375000Y-102600000D01*
X146384802Y-102600482D01*
G37*
G36*
X146384802Y-101800482D02*
G01*
X146394509Y-101801921D01*
X146404028Y-101804306D01*
X146413268Y-101807612D01*
X146422140Y-101811808D01*
X146430557Y-101816853D01*
X146438439Y-101822699D01*
X146445711Y-101829289D01*
X146452301Y-101836561D01*
X146458147Y-101844443D01*
X146463192Y-101852860D01*
X146467388Y-101861732D01*
X146470694Y-101870972D01*
X146473079Y-101880491D01*
X146474518Y-101890198D01*
X146475000Y-101900000D01*
X146475000Y-102100000D01*
X146474518Y-102109802D01*
X146473079Y-102119509D01*
X146470694Y-102129028D01*
X146467388Y-102138268D01*
X146463192Y-102147140D01*
X146458147Y-102155557D01*
X146452301Y-102163439D01*
X146445711Y-102170711D01*
X146438439Y-102177301D01*
X146430557Y-102183147D01*
X146422140Y-102188192D01*
X146413268Y-102192388D01*
X146404028Y-102195694D01*
X146394509Y-102198079D01*
X146384802Y-102199518D01*
X146375000Y-102200000D01*
X145075000Y-102200000D01*
X145065198Y-102199518D01*
X145055491Y-102198079D01*
X145045972Y-102195694D01*
X145036732Y-102192388D01*
X145027860Y-102188192D01*
X145019443Y-102183147D01*
X145011561Y-102177301D01*
X145004289Y-102170711D01*
X144997699Y-102163439D01*
X144991853Y-102155557D01*
X144986808Y-102147140D01*
X144982612Y-102138268D01*
X144979306Y-102129028D01*
X144976921Y-102119509D01*
X144975482Y-102109802D01*
X144975000Y-102100000D01*
X144975000Y-101900000D01*
X144975482Y-101890198D01*
X144976921Y-101880491D01*
X144979306Y-101870972D01*
X144982612Y-101861732D01*
X144986808Y-101852860D01*
X144991853Y-101844443D01*
X144997699Y-101836561D01*
X145004289Y-101829289D01*
X145011561Y-101822699D01*
X145019443Y-101816853D01*
X145027860Y-101811808D01*
X145036732Y-101807612D01*
X145045972Y-101804306D01*
X145055491Y-101801921D01*
X145065198Y-101800482D01*
X145075000Y-101800000D01*
X146375000Y-101800000D01*
X146384802Y-101800482D01*
G37*
G36*
X146384802Y-101000482D02*
G01*
X146394509Y-101001921D01*
X146404028Y-101004306D01*
X146413268Y-101007612D01*
X146422140Y-101011808D01*
X146430557Y-101016853D01*
X146438439Y-101022699D01*
X146445711Y-101029289D01*
X146452301Y-101036561D01*
X146458147Y-101044443D01*
X146463192Y-101052860D01*
X146467388Y-101061732D01*
X146470694Y-101070972D01*
X146473079Y-101080491D01*
X146474518Y-101090198D01*
X146475000Y-101100000D01*
X146475000Y-101300000D01*
X146474518Y-101309802D01*
X146473079Y-101319509D01*
X146470694Y-101329028D01*
X146467388Y-101338268D01*
X146463192Y-101347140D01*
X146458147Y-101355557D01*
X146452301Y-101363439D01*
X146445711Y-101370711D01*
X146438439Y-101377301D01*
X146430557Y-101383147D01*
X146422140Y-101388192D01*
X146413268Y-101392388D01*
X146404028Y-101395694D01*
X146394509Y-101398079D01*
X146384802Y-101399518D01*
X146375000Y-101400000D01*
X145075000Y-101400000D01*
X145065198Y-101399518D01*
X145055491Y-101398079D01*
X145045972Y-101395694D01*
X145036732Y-101392388D01*
X145027860Y-101388192D01*
X145019443Y-101383147D01*
X145011561Y-101377301D01*
X145004289Y-101370711D01*
X144997699Y-101363439D01*
X144991853Y-101355557D01*
X144986808Y-101347140D01*
X144982612Y-101338268D01*
X144979306Y-101329028D01*
X144976921Y-101319509D01*
X144975482Y-101309802D01*
X144975000Y-101300000D01*
X144975000Y-101100000D01*
X144975482Y-101090198D01*
X144976921Y-101080491D01*
X144979306Y-101070972D01*
X144982612Y-101061732D01*
X144986808Y-101052860D01*
X144991853Y-101044443D01*
X144997699Y-101036561D01*
X145004289Y-101029289D01*
X145011561Y-101022699D01*
X145019443Y-101016853D01*
X145027860Y-101011808D01*
X145036732Y-101007612D01*
X145045972Y-101004306D01*
X145055491Y-101001921D01*
X145065198Y-101000482D01*
X145075000Y-101000000D01*
X146375000Y-101000000D01*
X146384802Y-101000482D01*
G37*
G36*
X146384802Y-100200482D02*
G01*
X146394509Y-100201921D01*
X146404028Y-100204306D01*
X146413268Y-100207612D01*
X146422140Y-100211808D01*
X146430557Y-100216853D01*
X146438439Y-100222699D01*
X146445711Y-100229289D01*
X146452301Y-100236561D01*
X146458147Y-100244443D01*
X146463192Y-100252860D01*
X146467388Y-100261732D01*
X146470694Y-100270972D01*
X146473079Y-100280491D01*
X146474518Y-100290198D01*
X146475000Y-100300000D01*
X146475000Y-100500000D01*
X146474518Y-100509802D01*
X146473079Y-100519509D01*
X146470694Y-100529028D01*
X146467388Y-100538268D01*
X146463192Y-100547140D01*
X146458147Y-100555557D01*
X146452301Y-100563439D01*
X146445711Y-100570711D01*
X146438439Y-100577301D01*
X146430557Y-100583147D01*
X146422140Y-100588192D01*
X146413268Y-100592388D01*
X146404028Y-100595694D01*
X146394509Y-100598079D01*
X146384802Y-100599518D01*
X146375000Y-100600000D01*
X145075000Y-100600000D01*
X145065198Y-100599518D01*
X145055491Y-100598079D01*
X145045972Y-100595694D01*
X145036732Y-100592388D01*
X145027860Y-100588192D01*
X145019443Y-100583147D01*
X145011561Y-100577301D01*
X145004289Y-100570711D01*
X144997699Y-100563439D01*
X144991853Y-100555557D01*
X144986808Y-100547140D01*
X144982612Y-100538268D01*
X144979306Y-100529028D01*
X144976921Y-100519509D01*
X144975482Y-100509802D01*
X144975000Y-100500000D01*
X144975000Y-100300000D01*
X144975482Y-100290198D01*
X144976921Y-100280491D01*
X144979306Y-100270972D01*
X144982612Y-100261732D01*
X144986808Y-100252860D01*
X144991853Y-100244443D01*
X144997699Y-100236561D01*
X145004289Y-100229289D01*
X145011561Y-100222699D01*
X145019443Y-100216853D01*
X145027860Y-100211808D01*
X145036732Y-100207612D01*
X145045972Y-100204306D01*
X145055491Y-100201921D01*
X145065198Y-100200482D01*
X145075000Y-100200000D01*
X146375000Y-100200000D01*
X146384802Y-100200482D01*
G37*
G36*
X146384802Y-99400482D02*
G01*
X146394509Y-99401921D01*
X146404028Y-99404306D01*
X146413268Y-99407612D01*
X146422140Y-99411808D01*
X146430557Y-99416853D01*
X146438439Y-99422699D01*
X146445711Y-99429289D01*
X146452301Y-99436561D01*
X146458147Y-99444443D01*
X146463192Y-99452860D01*
X146467388Y-99461732D01*
X146470694Y-99470972D01*
X146473079Y-99480491D01*
X146474518Y-99490198D01*
X146475000Y-99500000D01*
X146475000Y-99700000D01*
X146474518Y-99709802D01*
X146473079Y-99719509D01*
X146470694Y-99729028D01*
X146467388Y-99738268D01*
X146463192Y-99747140D01*
X146458147Y-99755557D01*
X146452301Y-99763439D01*
X146445711Y-99770711D01*
X146438439Y-99777301D01*
X146430557Y-99783147D01*
X146422140Y-99788192D01*
X146413268Y-99792388D01*
X146404028Y-99795694D01*
X146394509Y-99798079D01*
X146384802Y-99799518D01*
X146375000Y-99800000D01*
X145075000Y-99800000D01*
X145065198Y-99799518D01*
X145055491Y-99798079D01*
X145045972Y-99795694D01*
X145036732Y-99792388D01*
X145027860Y-99788192D01*
X145019443Y-99783147D01*
X145011561Y-99777301D01*
X145004289Y-99770711D01*
X144997699Y-99763439D01*
X144991853Y-99755557D01*
X144986808Y-99747140D01*
X144982612Y-99738268D01*
X144979306Y-99729028D01*
X144976921Y-99719509D01*
X144975482Y-99709802D01*
X144975000Y-99700000D01*
X144975000Y-99500000D01*
X144975482Y-99490198D01*
X144976921Y-99480491D01*
X144979306Y-99470972D01*
X144982612Y-99461732D01*
X144986808Y-99452860D01*
X144991853Y-99444443D01*
X144997699Y-99436561D01*
X145004289Y-99429289D01*
X145011561Y-99422699D01*
X145019443Y-99416853D01*
X145027860Y-99411808D01*
X145036732Y-99407612D01*
X145045972Y-99404306D01*
X145055491Y-99401921D01*
X145065198Y-99400482D01*
X145075000Y-99400000D01*
X146375000Y-99400000D01*
X146384802Y-99400482D01*
G37*
G36*
X146384802Y-98600482D02*
G01*
X146394509Y-98601921D01*
X146404028Y-98604306D01*
X146413268Y-98607612D01*
X146422140Y-98611808D01*
X146430557Y-98616853D01*
X146438439Y-98622699D01*
X146445711Y-98629289D01*
X146452301Y-98636561D01*
X146458147Y-98644443D01*
X146463192Y-98652860D01*
X146467388Y-98661732D01*
X146470694Y-98670972D01*
X146473079Y-98680491D01*
X146474518Y-98690198D01*
X146475000Y-98700000D01*
X146475000Y-98900000D01*
X146474518Y-98909802D01*
X146473079Y-98919509D01*
X146470694Y-98929028D01*
X146467388Y-98938268D01*
X146463192Y-98947140D01*
X146458147Y-98955557D01*
X146452301Y-98963439D01*
X146445711Y-98970711D01*
X146438439Y-98977301D01*
X146430557Y-98983147D01*
X146422140Y-98988192D01*
X146413268Y-98992388D01*
X146404028Y-98995694D01*
X146394509Y-98998079D01*
X146384802Y-98999518D01*
X146375000Y-99000000D01*
X145075000Y-99000000D01*
X145065198Y-98999518D01*
X145055491Y-98998079D01*
X145045972Y-98995694D01*
X145036732Y-98992388D01*
X145027860Y-98988192D01*
X145019443Y-98983147D01*
X145011561Y-98977301D01*
X145004289Y-98970711D01*
X144997699Y-98963439D01*
X144991853Y-98955557D01*
X144986808Y-98947140D01*
X144982612Y-98938268D01*
X144979306Y-98929028D01*
X144976921Y-98919509D01*
X144975482Y-98909802D01*
X144975000Y-98900000D01*
X144975000Y-98700000D01*
X144975482Y-98690198D01*
X144976921Y-98680491D01*
X144979306Y-98670972D01*
X144982612Y-98661732D01*
X144986808Y-98652860D01*
X144991853Y-98644443D01*
X144997699Y-98636561D01*
X145004289Y-98629289D01*
X145011561Y-98622699D01*
X145019443Y-98616853D01*
X145027860Y-98611808D01*
X145036732Y-98607612D01*
X145045972Y-98604306D01*
X145055491Y-98601921D01*
X145065198Y-98600482D01*
X145075000Y-98600000D01*
X146375000Y-98600000D01*
X146384802Y-98600482D01*
G37*
G36*
X146384802Y-97800482D02*
G01*
X146394509Y-97801921D01*
X146404028Y-97804306D01*
X146413268Y-97807612D01*
X146422140Y-97811808D01*
X146430557Y-97816853D01*
X146438439Y-97822699D01*
X146445711Y-97829289D01*
X146452301Y-97836561D01*
X146458147Y-97844443D01*
X146463192Y-97852860D01*
X146467388Y-97861732D01*
X146470694Y-97870972D01*
X146473079Y-97880491D01*
X146474518Y-97890198D01*
X146475000Y-97900000D01*
X146475000Y-98100000D01*
X146474518Y-98109802D01*
X146473079Y-98119509D01*
X146470694Y-98129028D01*
X146467388Y-98138268D01*
X146463192Y-98147140D01*
X146458147Y-98155557D01*
X146452301Y-98163439D01*
X146445711Y-98170711D01*
X146438439Y-98177301D01*
X146430557Y-98183147D01*
X146422140Y-98188192D01*
X146413268Y-98192388D01*
X146404028Y-98195694D01*
X146394509Y-98198079D01*
X146384802Y-98199518D01*
X146375000Y-98200000D01*
X145075000Y-98200000D01*
X145065198Y-98199518D01*
X145055491Y-98198079D01*
X145045972Y-98195694D01*
X145036732Y-98192388D01*
X145027860Y-98188192D01*
X145019443Y-98183147D01*
X145011561Y-98177301D01*
X145004289Y-98170711D01*
X144997699Y-98163439D01*
X144991853Y-98155557D01*
X144986808Y-98147140D01*
X144982612Y-98138268D01*
X144979306Y-98129028D01*
X144976921Y-98119509D01*
X144975482Y-98109802D01*
X144975000Y-98100000D01*
X144975000Y-97900000D01*
X144975482Y-97890198D01*
X144976921Y-97880491D01*
X144979306Y-97870972D01*
X144982612Y-97861732D01*
X144986808Y-97852860D01*
X144991853Y-97844443D01*
X144997699Y-97836561D01*
X145004289Y-97829289D01*
X145011561Y-97822699D01*
X145019443Y-97816853D01*
X145027860Y-97811808D01*
X145036732Y-97807612D01*
X145045972Y-97804306D01*
X145055491Y-97801921D01*
X145065198Y-97800482D01*
X145075000Y-97800000D01*
X146375000Y-97800000D01*
X146384802Y-97800482D01*
G37*
G36*
X146384802Y-97000482D02*
G01*
X146394509Y-97001921D01*
X146404028Y-97004306D01*
X146413268Y-97007612D01*
X146422140Y-97011808D01*
X146430557Y-97016853D01*
X146438439Y-97022699D01*
X146445711Y-97029289D01*
X146452301Y-97036561D01*
X146458147Y-97044443D01*
X146463192Y-97052860D01*
X146467388Y-97061732D01*
X146470694Y-97070972D01*
X146473079Y-97080491D01*
X146474518Y-97090198D01*
X146475000Y-97100000D01*
X146475000Y-97300000D01*
X146474518Y-97309802D01*
X146473079Y-97319509D01*
X146470694Y-97329028D01*
X146467388Y-97338268D01*
X146463192Y-97347140D01*
X146458147Y-97355557D01*
X146452301Y-97363439D01*
X146445711Y-97370711D01*
X146438439Y-97377301D01*
X146430557Y-97383147D01*
X146422140Y-97388192D01*
X146413268Y-97392388D01*
X146404028Y-97395694D01*
X146394509Y-97398079D01*
X146384802Y-97399518D01*
X146375000Y-97400000D01*
X145075000Y-97400000D01*
X145065198Y-97399518D01*
X145055491Y-97398079D01*
X145045972Y-97395694D01*
X145036732Y-97392388D01*
X145027860Y-97388192D01*
X145019443Y-97383147D01*
X145011561Y-97377301D01*
X145004289Y-97370711D01*
X144997699Y-97363439D01*
X144991853Y-97355557D01*
X144986808Y-97347140D01*
X144982612Y-97338268D01*
X144979306Y-97329028D01*
X144976921Y-97319509D01*
X144975482Y-97309802D01*
X144975000Y-97300000D01*
X144975000Y-97100000D01*
X144975482Y-97090198D01*
X144976921Y-97080491D01*
X144979306Y-97070972D01*
X144982612Y-97061732D01*
X144986808Y-97052860D01*
X144991853Y-97044443D01*
X144997699Y-97036561D01*
X145004289Y-97029289D01*
X145011561Y-97022699D01*
X145019443Y-97016853D01*
X145027860Y-97011808D01*
X145036732Y-97007612D01*
X145045972Y-97004306D01*
X145055491Y-97001921D01*
X145065198Y-97000482D01*
X145075000Y-97000000D01*
X146375000Y-97000000D01*
X146384802Y-97000482D01*
G37*
G36*
X154360779Y-105451144D02*
G01*
X154383834Y-105454563D01*
X154406443Y-105460227D01*
X154428387Y-105468079D01*
X154449457Y-105478044D01*
X154469448Y-105490026D01*
X154488168Y-105503910D01*
X154505438Y-105519562D01*
X154521090Y-105536832D01*
X154534974Y-105555552D01*
X154546956Y-105575543D01*
X154556921Y-105596613D01*
X154564773Y-105618557D01*
X154570437Y-105641166D01*
X154573856Y-105664221D01*
X154575000Y-105687500D01*
X154575000Y-106262500D01*
X154573856Y-106285779D01*
X154570437Y-106308834D01*
X154564773Y-106331443D01*
X154556921Y-106353387D01*
X154546956Y-106374457D01*
X154534974Y-106394448D01*
X154521090Y-106413168D01*
X154505438Y-106430438D01*
X154488168Y-106446090D01*
X154469448Y-106459974D01*
X154449457Y-106471956D01*
X154428387Y-106481921D01*
X154406443Y-106489773D01*
X154383834Y-106495437D01*
X154360779Y-106498856D01*
X154337500Y-106500000D01*
X153862500Y-106500000D01*
X153839221Y-106498856D01*
X153816166Y-106495437D01*
X153793557Y-106489773D01*
X153771613Y-106481921D01*
X153750543Y-106471956D01*
X153730552Y-106459974D01*
X153711832Y-106446090D01*
X153694562Y-106430438D01*
X153678910Y-106413168D01*
X153665026Y-106394448D01*
X153653044Y-106374457D01*
X153643079Y-106353387D01*
X153635227Y-106331443D01*
X153629563Y-106308834D01*
X153626144Y-106285779D01*
X153625000Y-106262500D01*
X153625000Y-105687500D01*
X153626144Y-105664221D01*
X153629563Y-105641166D01*
X153635227Y-105618557D01*
X153643079Y-105596613D01*
X153653044Y-105575543D01*
X153665026Y-105555552D01*
X153678910Y-105536832D01*
X153694562Y-105519562D01*
X153711832Y-105503910D01*
X153730552Y-105490026D01*
X153750543Y-105478044D01*
X153771613Y-105468079D01*
X153793557Y-105460227D01*
X153816166Y-105454563D01*
X153839221Y-105451144D01*
X153862500Y-105450000D01*
X154337500Y-105450000D01*
X154360779Y-105451144D01*
G37*
G36*
X154360779Y-103701144D02*
G01*
X154383834Y-103704563D01*
X154406443Y-103710227D01*
X154428387Y-103718079D01*
X154449457Y-103728044D01*
X154469448Y-103740026D01*
X154488168Y-103753910D01*
X154505438Y-103769562D01*
X154521090Y-103786832D01*
X154534974Y-103805552D01*
X154546956Y-103825543D01*
X154556921Y-103846613D01*
X154564773Y-103868557D01*
X154570437Y-103891166D01*
X154573856Y-103914221D01*
X154575000Y-103937500D01*
X154575000Y-104512500D01*
X154573856Y-104535779D01*
X154570437Y-104558834D01*
X154564773Y-104581443D01*
X154556921Y-104603387D01*
X154546956Y-104624457D01*
X154534974Y-104644448D01*
X154521090Y-104663168D01*
X154505438Y-104680438D01*
X154488168Y-104696090D01*
X154469448Y-104709974D01*
X154449457Y-104721956D01*
X154428387Y-104731921D01*
X154406443Y-104739773D01*
X154383834Y-104745437D01*
X154360779Y-104748856D01*
X154337500Y-104750000D01*
X153862500Y-104750000D01*
X153839221Y-104748856D01*
X153816166Y-104745437D01*
X153793557Y-104739773D01*
X153771613Y-104731921D01*
X153750543Y-104721956D01*
X153730552Y-104709974D01*
X153711832Y-104696090D01*
X153694562Y-104680438D01*
X153678910Y-104663168D01*
X153665026Y-104644448D01*
X153653044Y-104624457D01*
X153643079Y-104603387D01*
X153635227Y-104581443D01*
X153629563Y-104558834D01*
X153626144Y-104535779D01*
X153625000Y-104512500D01*
X153625000Y-103937500D01*
X153626144Y-103914221D01*
X153629563Y-103891166D01*
X153635227Y-103868557D01*
X153643079Y-103846613D01*
X153653044Y-103825543D01*
X153665026Y-103805552D01*
X153678910Y-103786832D01*
X153694562Y-103769562D01*
X153711832Y-103753910D01*
X153730552Y-103740026D01*
X153750543Y-103728044D01*
X153771613Y-103718079D01*
X153793557Y-103710227D01*
X153816166Y-103704563D01*
X153839221Y-103701144D01*
X153862500Y-103700000D01*
X154337500Y-103700000D01*
X154360779Y-103701144D01*
G37*
G36*
X145960779Y-93501144D02*
G01*
X145983834Y-93504563D01*
X146006443Y-93510227D01*
X146028387Y-93518079D01*
X146049457Y-93528044D01*
X146069448Y-93540026D01*
X146088168Y-93553910D01*
X146105438Y-93569562D01*
X146121090Y-93586832D01*
X146134974Y-93605552D01*
X146146956Y-93625543D01*
X146156921Y-93646613D01*
X146164773Y-93668557D01*
X146170437Y-93691166D01*
X146173856Y-93714221D01*
X146175000Y-93737500D01*
X146175000Y-94312500D01*
X146173856Y-94335779D01*
X146170437Y-94358834D01*
X146164773Y-94381443D01*
X146156921Y-94403387D01*
X146146956Y-94424457D01*
X146134974Y-94444448D01*
X146121090Y-94463168D01*
X146105438Y-94480438D01*
X146088168Y-94496090D01*
X146069448Y-94509974D01*
X146049457Y-94521956D01*
X146028387Y-94531921D01*
X146006443Y-94539773D01*
X145983834Y-94545437D01*
X145960779Y-94548856D01*
X145937500Y-94550000D01*
X145462500Y-94550000D01*
X145439221Y-94548856D01*
X145416166Y-94545437D01*
X145393557Y-94539773D01*
X145371613Y-94531921D01*
X145350543Y-94521956D01*
X145330552Y-94509974D01*
X145311832Y-94496090D01*
X145294562Y-94480438D01*
X145278910Y-94463168D01*
X145265026Y-94444448D01*
X145253044Y-94424457D01*
X145243079Y-94403387D01*
X145235227Y-94381443D01*
X145229563Y-94358834D01*
X145226144Y-94335779D01*
X145225000Y-94312500D01*
X145225000Y-93737500D01*
X145226144Y-93714221D01*
X145229563Y-93691166D01*
X145235227Y-93668557D01*
X145243079Y-93646613D01*
X145253044Y-93625543D01*
X145265026Y-93605552D01*
X145278910Y-93586832D01*
X145294562Y-93569562D01*
X145311832Y-93553910D01*
X145330552Y-93540026D01*
X145350543Y-93528044D01*
X145371613Y-93518079D01*
X145393557Y-93510227D01*
X145416166Y-93504563D01*
X145439221Y-93501144D01*
X145462500Y-93500000D01*
X145937500Y-93500000D01*
X145960779Y-93501144D01*
G37*
G36*
X145960779Y-95251144D02*
G01*
X145983834Y-95254563D01*
X146006443Y-95260227D01*
X146028387Y-95268079D01*
X146049457Y-95278044D01*
X146069448Y-95290026D01*
X146088168Y-95303910D01*
X146105438Y-95319562D01*
X146121090Y-95336832D01*
X146134974Y-95355552D01*
X146146956Y-95375543D01*
X146156921Y-95396613D01*
X146164773Y-95418557D01*
X146170437Y-95441166D01*
X146173856Y-95464221D01*
X146175000Y-95487500D01*
X146175000Y-96062500D01*
X146173856Y-96085779D01*
X146170437Y-96108834D01*
X146164773Y-96131443D01*
X146156921Y-96153387D01*
X146146956Y-96174457D01*
X146134974Y-96194448D01*
X146121090Y-96213168D01*
X146105438Y-96230438D01*
X146088168Y-96246090D01*
X146069448Y-96259974D01*
X146049457Y-96271956D01*
X146028387Y-96281921D01*
X146006443Y-96289773D01*
X145983834Y-96295437D01*
X145960779Y-96298856D01*
X145937500Y-96300000D01*
X145462500Y-96300000D01*
X145439221Y-96298856D01*
X145416166Y-96295437D01*
X145393557Y-96289773D01*
X145371613Y-96281921D01*
X145350543Y-96271956D01*
X145330552Y-96259974D01*
X145311832Y-96246090D01*
X145294562Y-96230438D01*
X145278910Y-96213168D01*
X145265026Y-96194448D01*
X145253044Y-96174457D01*
X145243079Y-96153387D01*
X145235227Y-96131443D01*
X145229563Y-96108834D01*
X145226144Y-96085779D01*
X145225000Y-96062500D01*
X145225000Y-95487500D01*
X145226144Y-95464221D01*
X145229563Y-95441166D01*
X145235227Y-95418557D01*
X145243079Y-95396613D01*
X145253044Y-95375543D01*
X145265026Y-95355552D01*
X145278910Y-95336832D01*
X145294562Y-95319562D01*
X145311832Y-95303910D01*
X145330552Y-95290026D01*
X145350543Y-95278044D01*
X145371613Y-95268079D01*
X145393557Y-95260227D01*
X145416166Y-95254563D01*
X145439221Y-95251144D01*
X145462500Y-95250000D01*
X145937500Y-95250000D01*
X145960779Y-95251144D01*
G37*
D11*
X139000000Y-84700000D03*
X145000000Y-84700000D03*
D12*
X141000000Y-86050000D03*
X142000000Y-86050000D03*
X143000000Y-86050000D03*
D10*
G36*
X148160779Y-91801144D02*
G01*
X148183834Y-91804563D01*
X148206443Y-91810227D01*
X148228387Y-91818079D01*
X148249457Y-91828044D01*
X148269448Y-91840026D01*
X148288168Y-91853910D01*
X148305438Y-91869562D01*
X148321090Y-91886832D01*
X148334974Y-91905552D01*
X148346956Y-91925543D01*
X148356921Y-91946613D01*
X148364773Y-91968557D01*
X148370437Y-91991166D01*
X148373856Y-92014221D01*
X148375000Y-92037500D01*
X148375000Y-92612500D01*
X148373856Y-92635779D01*
X148370437Y-92658834D01*
X148364773Y-92681443D01*
X148356921Y-92703387D01*
X148346956Y-92724457D01*
X148334974Y-92744448D01*
X148321090Y-92763168D01*
X148305438Y-92780438D01*
X148288168Y-92796090D01*
X148269448Y-92809974D01*
X148249457Y-92821956D01*
X148228387Y-92831921D01*
X148206443Y-92839773D01*
X148183834Y-92845437D01*
X148160779Y-92848856D01*
X148137500Y-92850000D01*
X147662500Y-92850000D01*
X147639221Y-92848856D01*
X147616166Y-92845437D01*
X147593557Y-92839773D01*
X147571613Y-92831921D01*
X147550543Y-92821956D01*
X147530552Y-92809974D01*
X147511832Y-92796090D01*
X147494562Y-92780438D01*
X147478910Y-92763168D01*
X147465026Y-92744448D01*
X147453044Y-92724457D01*
X147443079Y-92703387D01*
X147435227Y-92681443D01*
X147429563Y-92658834D01*
X147426144Y-92635779D01*
X147425000Y-92612500D01*
X147425000Y-92037500D01*
X147426144Y-92014221D01*
X147429563Y-91991166D01*
X147435227Y-91968557D01*
X147443079Y-91946613D01*
X147453044Y-91925543D01*
X147465026Y-91905552D01*
X147478910Y-91886832D01*
X147494562Y-91869562D01*
X147511832Y-91853910D01*
X147530552Y-91840026D01*
X147550543Y-91828044D01*
X147571613Y-91818079D01*
X147593557Y-91810227D01*
X147616166Y-91804563D01*
X147639221Y-91801144D01*
X147662500Y-91800000D01*
X148137500Y-91800000D01*
X148160779Y-91801144D01*
G37*
G36*
X148160779Y-93551144D02*
G01*
X148183834Y-93554563D01*
X148206443Y-93560227D01*
X148228387Y-93568079D01*
X148249457Y-93578044D01*
X148269448Y-93590026D01*
X148288168Y-93603910D01*
X148305438Y-93619562D01*
X148321090Y-93636832D01*
X148334974Y-93655552D01*
X148346956Y-93675543D01*
X148356921Y-93696613D01*
X148364773Y-93718557D01*
X148370437Y-93741166D01*
X148373856Y-93764221D01*
X148375000Y-93787500D01*
X148375000Y-94362500D01*
X148373856Y-94385779D01*
X148370437Y-94408834D01*
X148364773Y-94431443D01*
X148356921Y-94453387D01*
X148346956Y-94474457D01*
X148334974Y-94494448D01*
X148321090Y-94513168D01*
X148305438Y-94530438D01*
X148288168Y-94546090D01*
X148269448Y-94559974D01*
X148249457Y-94571956D01*
X148228387Y-94581921D01*
X148206443Y-94589773D01*
X148183834Y-94595437D01*
X148160779Y-94598856D01*
X148137500Y-94600000D01*
X147662500Y-94600000D01*
X147639221Y-94598856D01*
X147616166Y-94595437D01*
X147593557Y-94589773D01*
X147571613Y-94581921D01*
X147550543Y-94571956D01*
X147530552Y-94559974D01*
X147511832Y-94546090D01*
X147494562Y-94530438D01*
X147478910Y-94513168D01*
X147465026Y-94494448D01*
X147453044Y-94474457D01*
X147443079Y-94453387D01*
X147435227Y-94431443D01*
X147429563Y-94408834D01*
X147426144Y-94385779D01*
X147425000Y-94362500D01*
X147425000Y-93787500D01*
X147426144Y-93764221D01*
X147429563Y-93741166D01*
X147435227Y-93718557D01*
X147443079Y-93696613D01*
X147453044Y-93675543D01*
X147465026Y-93655552D01*
X147478910Y-93636832D01*
X147494562Y-93619562D01*
X147511832Y-93603910D01*
X147530552Y-93590026D01*
X147550543Y-93578044D01*
X147571613Y-93568079D01*
X147593557Y-93560227D01*
X147616166Y-93554563D01*
X147639221Y-93551144D01*
X147662500Y-93550000D01*
X148137500Y-93550000D01*
X148160779Y-93551144D01*
G37*
M02*
