G04 #@! TF.GenerationSoftware,KiCad,Pcbnew,(5.1.5-0-10_14)*
G04 #@! TF.CreationDate,2020-06-21T17:17:39+09:00*
G04 #@! TF.ProjectId,TriCon,54726943-6f6e-42e6-9b69-6361645f7063,1.1*
G04 #@! TF.SameCoordinates,Original*
G04 #@! TF.FileFunction,Copper,L2,Bot*
G04 #@! TF.FilePolarity,Positive*
%FSLAX46Y46*%
G04 Gerber Fmt 4.6, Leading zero omitted, Abs format (unit mm)*
G04 Created by KiCad (PCBNEW (5.1.5-0-10_14)) date 2020-06-21 17:17:39*
%MOMM*%
%LPD*%
G04 APERTURE LIST*
%ADD10O,1.700000X1.700000*%
%ADD11R,1.700000X1.700000*%
%ADD12R,3.600000X2.700000*%
%ADD13R,2.500000X3.000000*%
%ADD14O,1.000000X1.000000*%
%ADD15R,1.000000X1.000000*%
%ADD16C,0.100000*%
%ADD17C,0.508000*%
%ADD18C,0.304800*%
%ADD19C,0.203200*%
%ADD20C,0.254000*%
G04 APERTURE END LIST*
D10*
X153720000Y-88100000D03*
X151180000Y-88100000D03*
X148640000Y-88100000D03*
D11*
X146100000Y-88100000D03*
D12*
X149900000Y-90700000D03*
D13*
X149900000Y-111800000D03*
D14*
X161540000Y-84830000D03*
X161540000Y-86100000D03*
X160270000Y-84830000D03*
X160270000Y-86100000D03*
X159000000Y-84830000D03*
X159000000Y-86100000D03*
X157730000Y-84830000D03*
X157730000Y-86100000D03*
X156460000Y-84830000D03*
D15*
X156460000Y-86100000D03*
D10*
X141020000Y-108900000D03*
X143560000Y-108900000D03*
X146100000Y-108900000D03*
X148640000Y-108900000D03*
X151180000Y-108900000D03*
X153720000Y-108900000D03*
X156260000Y-108900000D03*
D11*
X158800000Y-108900000D03*
D10*
X158800000Y-106280000D03*
X158800000Y-103740000D03*
X158800000Y-101200000D03*
X158800000Y-98660000D03*
X158800000Y-96120000D03*
X158800000Y-93580000D03*
X158800000Y-91040000D03*
D11*
X158800000Y-88500000D03*
D10*
X141000000Y-88500000D03*
X141000000Y-91040000D03*
X141000000Y-93580000D03*
X141000000Y-96120000D03*
X141000000Y-98660000D03*
X141000000Y-101200000D03*
X141000000Y-103740000D03*
D11*
X141000000Y-106280000D03*
G04 #@! TA.AperFunction,SMDPad,CuDef*
D16*
G36*
X160960779Y-105351144D02*
G01*
X160983834Y-105354563D01*
X161006443Y-105360227D01*
X161028387Y-105368079D01*
X161049457Y-105378044D01*
X161069448Y-105390026D01*
X161088168Y-105403910D01*
X161105438Y-105419562D01*
X161121090Y-105436832D01*
X161134974Y-105455552D01*
X161146956Y-105475543D01*
X161156921Y-105496613D01*
X161164773Y-105518557D01*
X161170437Y-105541166D01*
X161173856Y-105564221D01*
X161175000Y-105587500D01*
X161175000Y-106162500D01*
X161173856Y-106185779D01*
X161170437Y-106208834D01*
X161164773Y-106231443D01*
X161156921Y-106253387D01*
X161146956Y-106274457D01*
X161134974Y-106294448D01*
X161121090Y-106313168D01*
X161105438Y-106330438D01*
X161088168Y-106346090D01*
X161069448Y-106359974D01*
X161049457Y-106371956D01*
X161028387Y-106381921D01*
X161006443Y-106389773D01*
X160983834Y-106395437D01*
X160960779Y-106398856D01*
X160937500Y-106400000D01*
X160462500Y-106400000D01*
X160439221Y-106398856D01*
X160416166Y-106395437D01*
X160393557Y-106389773D01*
X160371613Y-106381921D01*
X160350543Y-106371956D01*
X160330552Y-106359974D01*
X160311832Y-106346090D01*
X160294562Y-106330438D01*
X160278910Y-106313168D01*
X160265026Y-106294448D01*
X160253044Y-106274457D01*
X160243079Y-106253387D01*
X160235227Y-106231443D01*
X160229563Y-106208834D01*
X160226144Y-106185779D01*
X160225000Y-106162500D01*
X160225000Y-105587500D01*
X160226144Y-105564221D01*
X160229563Y-105541166D01*
X160235227Y-105518557D01*
X160243079Y-105496613D01*
X160253044Y-105475543D01*
X160265026Y-105455552D01*
X160278910Y-105436832D01*
X160294562Y-105419562D01*
X160311832Y-105403910D01*
X160330552Y-105390026D01*
X160350543Y-105378044D01*
X160371613Y-105368079D01*
X160393557Y-105360227D01*
X160416166Y-105354563D01*
X160439221Y-105351144D01*
X160462500Y-105350000D01*
X160937500Y-105350000D01*
X160960779Y-105351144D01*
G37*
G04 #@! TD.AperFunction*
G04 #@! TA.AperFunction,SMDPad,CuDef*
G36*
X160960779Y-103601144D02*
G01*
X160983834Y-103604563D01*
X161006443Y-103610227D01*
X161028387Y-103618079D01*
X161049457Y-103628044D01*
X161069448Y-103640026D01*
X161088168Y-103653910D01*
X161105438Y-103669562D01*
X161121090Y-103686832D01*
X161134974Y-103705552D01*
X161146956Y-103725543D01*
X161156921Y-103746613D01*
X161164773Y-103768557D01*
X161170437Y-103791166D01*
X161173856Y-103814221D01*
X161175000Y-103837500D01*
X161175000Y-104412500D01*
X161173856Y-104435779D01*
X161170437Y-104458834D01*
X161164773Y-104481443D01*
X161156921Y-104503387D01*
X161146956Y-104524457D01*
X161134974Y-104544448D01*
X161121090Y-104563168D01*
X161105438Y-104580438D01*
X161088168Y-104596090D01*
X161069448Y-104609974D01*
X161049457Y-104621956D01*
X161028387Y-104631921D01*
X161006443Y-104639773D01*
X160983834Y-104645437D01*
X160960779Y-104648856D01*
X160937500Y-104650000D01*
X160462500Y-104650000D01*
X160439221Y-104648856D01*
X160416166Y-104645437D01*
X160393557Y-104639773D01*
X160371613Y-104631921D01*
X160350543Y-104621956D01*
X160330552Y-104609974D01*
X160311832Y-104596090D01*
X160294562Y-104580438D01*
X160278910Y-104563168D01*
X160265026Y-104544448D01*
X160253044Y-104524457D01*
X160243079Y-104503387D01*
X160235227Y-104481443D01*
X160229563Y-104458834D01*
X160226144Y-104435779D01*
X160225000Y-104412500D01*
X160225000Y-103837500D01*
X160226144Y-103814221D01*
X160229563Y-103791166D01*
X160235227Y-103768557D01*
X160243079Y-103746613D01*
X160253044Y-103725543D01*
X160265026Y-103705552D01*
X160278910Y-103686832D01*
X160294562Y-103669562D01*
X160311832Y-103653910D01*
X160330552Y-103640026D01*
X160350543Y-103628044D01*
X160371613Y-103618079D01*
X160393557Y-103610227D01*
X160416166Y-103604563D01*
X160439221Y-103601144D01*
X160462500Y-103600000D01*
X160937500Y-103600000D01*
X160960779Y-103601144D01*
G37*
G04 #@! TD.AperFunction*
G04 #@! TA.AperFunction,SMDPad,CuDef*
G36*
X139735779Y-110326144D02*
G01*
X139758834Y-110329563D01*
X139781443Y-110335227D01*
X139803387Y-110343079D01*
X139824457Y-110353044D01*
X139844448Y-110365026D01*
X139863168Y-110378910D01*
X139880438Y-110394562D01*
X139896090Y-110411832D01*
X139909974Y-110430552D01*
X139921956Y-110450543D01*
X139931921Y-110471613D01*
X139939773Y-110493557D01*
X139945437Y-110516166D01*
X139948856Y-110539221D01*
X139950000Y-110562500D01*
X139950000Y-111037500D01*
X139948856Y-111060779D01*
X139945437Y-111083834D01*
X139939773Y-111106443D01*
X139931921Y-111128387D01*
X139921956Y-111149457D01*
X139909974Y-111169448D01*
X139896090Y-111188168D01*
X139880438Y-111205438D01*
X139863168Y-111221090D01*
X139844448Y-111234974D01*
X139824457Y-111246956D01*
X139803387Y-111256921D01*
X139781443Y-111264773D01*
X139758834Y-111270437D01*
X139735779Y-111273856D01*
X139712500Y-111275000D01*
X139137500Y-111275000D01*
X139114221Y-111273856D01*
X139091166Y-111270437D01*
X139068557Y-111264773D01*
X139046613Y-111256921D01*
X139025543Y-111246956D01*
X139005552Y-111234974D01*
X138986832Y-111221090D01*
X138969562Y-111205438D01*
X138953910Y-111188168D01*
X138940026Y-111169448D01*
X138928044Y-111149457D01*
X138918079Y-111128387D01*
X138910227Y-111106443D01*
X138904563Y-111083834D01*
X138901144Y-111060779D01*
X138900000Y-111037500D01*
X138900000Y-110562500D01*
X138901144Y-110539221D01*
X138904563Y-110516166D01*
X138910227Y-110493557D01*
X138918079Y-110471613D01*
X138928044Y-110450543D01*
X138940026Y-110430552D01*
X138953910Y-110411832D01*
X138969562Y-110394562D01*
X138986832Y-110378910D01*
X139005552Y-110365026D01*
X139025543Y-110353044D01*
X139046613Y-110343079D01*
X139068557Y-110335227D01*
X139091166Y-110329563D01*
X139114221Y-110326144D01*
X139137500Y-110325000D01*
X139712500Y-110325000D01*
X139735779Y-110326144D01*
G37*
G04 #@! TD.AperFunction*
G04 #@! TA.AperFunction,SMDPad,CuDef*
G36*
X141485779Y-110326144D02*
G01*
X141508834Y-110329563D01*
X141531443Y-110335227D01*
X141553387Y-110343079D01*
X141574457Y-110353044D01*
X141594448Y-110365026D01*
X141613168Y-110378910D01*
X141630438Y-110394562D01*
X141646090Y-110411832D01*
X141659974Y-110430552D01*
X141671956Y-110450543D01*
X141681921Y-110471613D01*
X141689773Y-110493557D01*
X141695437Y-110516166D01*
X141698856Y-110539221D01*
X141700000Y-110562500D01*
X141700000Y-111037500D01*
X141698856Y-111060779D01*
X141695437Y-111083834D01*
X141689773Y-111106443D01*
X141681921Y-111128387D01*
X141671956Y-111149457D01*
X141659974Y-111169448D01*
X141646090Y-111188168D01*
X141630438Y-111205438D01*
X141613168Y-111221090D01*
X141594448Y-111234974D01*
X141574457Y-111246956D01*
X141553387Y-111256921D01*
X141531443Y-111264773D01*
X141508834Y-111270437D01*
X141485779Y-111273856D01*
X141462500Y-111275000D01*
X140887500Y-111275000D01*
X140864221Y-111273856D01*
X140841166Y-111270437D01*
X140818557Y-111264773D01*
X140796613Y-111256921D01*
X140775543Y-111246956D01*
X140755552Y-111234974D01*
X140736832Y-111221090D01*
X140719562Y-111205438D01*
X140703910Y-111188168D01*
X140690026Y-111169448D01*
X140678044Y-111149457D01*
X140668079Y-111128387D01*
X140660227Y-111106443D01*
X140654563Y-111083834D01*
X140651144Y-111060779D01*
X140650000Y-111037500D01*
X140650000Y-110562500D01*
X140651144Y-110539221D01*
X140654563Y-110516166D01*
X140660227Y-110493557D01*
X140668079Y-110471613D01*
X140678044Y-110450543D01*
X140690026Y-110430552D01*
X140703910Y-110411832D01*
X140719562Y-110394562D01*
X140736832Y-110378910D01*
X140755552Y-110365026D01*
X140775543Y-110353044D01*
X140796613Y-110343079D01*
X140818557Y-110335227D01*
X140841166Y-110329563D01*
X140864221Y-110326144D01*
X140887500Y-110325000D01*
X141462500Y-110325000D01*
X141485779Y-110326144D01*
G37*
G04 #@! TD.AperFunction*
G04 #@! TA.AperFunction,SMDPad,CuDef*
G36*
X139360779Y-88401144D02*
G01*
X139383834Y-88404563D01*
X139406443Y-88410227D01*
X139428387Y-88418079D01*
X139449457Y-88428044D01*
X139469448Y-88440026D01*
X139488168Y-88453910D01*
X139505438Y-88469562D01*
X139521090Y-88486832D01*
X139534974Y-88505552D01*
X139546956Y-88525543D01*
X139556921Y-88546613D01*
X139564773Y-88568557D01*
X139570437Y-88591166D01*
X139573856Y-88614221D01*
X139575000Y-88637500D01*
X139575000Y-89212500D01*
X139573856Y-89235779D01*
X139570437Y-89258834D01*
X139564773Y-89281443D01*
X139556921Y-89303387D01*
X139546956Y-89324457D01*
X139534974Y-89344448D01*
X139521090Y-89363168D01*
X139505438Y-89380438D01*
X139488168Y-89396090D01*
X139469448Y-89409974D01*
X139449457Y-89421956D01*
X139428387Y-89431921D01*
X139406443Y-89439773D01*
X139383834Y-89445437D01*
X139360779Y-89448856D01*
X139337500Y-89450000D01*
X138862500Y-89450000D01*
X138839221Y-89448856D01*
X138816166Y-89445437D01*
X138793557Y-89439773D01*
X138771613Y-89431921D01*
X138750543Y-89421956D01*
X138730552Y-89409974D01*
X138711832Y-89396090D01*
X138694562Y-89380438D01*
X138678910Y-89363168D01*
X138665026Y-89344448D01*
X138653044Y-89324457D01*
X138643079Y-89303387D01*
X138635227Y-89281443D01*
X138629563Y-89258834D01*
X138626144Y-89235779D01*
X138625000Y-89212500D01*
X138625000Y-88637500D01*
X138626144Y-88614221D01*
X138629563Y-88591166D01*
X138635227Y-88568557D01*
X138643079Y-88546613D01*
X138653044Y-88525543D01*
X138665026Y-88505552D01*
X138678910Y-88486832D01*
X138694562Y-88469562D01*
X138711832Y-88453910D01*
X138730552Y-88440026D01*
X138750543Y-88428044D01*
X138771613Y-88418079D01*
X138793557Y-88410227D01*
X138816166Y-88404563D01*
X138839221Y-88401144D01*
X138862500Y-88400000D01*
X139337500Y-88400000D01*
X139360779Y-88401144D01*
G37*
G04 #@! TD.AperFunction*
G04 #@! TA.AperFunction,SMDPad,CuDef*
G36*
X139360779Y-90151144D02*
G01*
X139383834Y-90154563D01*
X139406443Y-90160227D01*
X139428387Y-90168079D01*
X139449457Y-90178044D01*
X139469448Y-90190026D01*
X139488168Y-90203910D01*
X139505438Y-90219562D01*
X139521090Y-90236832D01*
X139534974Y-90255552D01*
X139546956Y-90275543D01*
X139556921Y-90296613D01*
X139564773Y-90318557D01*
X139570437Y-90341166D01*
X139573856Y-90364221D01*
X139575000Y-90387500D01*
X139575000Y-90962500D01*
X139573856Y-90985779D01*
X139570437Y-91008834D01*
X139564773Y-91031443D01*
X139556921Y-91053387D01*
X139546956Y-91074457D01*
X139534974Y-91094448D01*
X139521090Y-91113168D01*
X139505438Y-91130438D01*
X139488168Y-91146090D01*
X139469448Y-91159974D01*
X139449457Y-91171956D01*
X139428387Y-91181921D01*
X139406443Y-91189773D01*
X139383834Y-91195437D01*
X139360779Y-91198856D01*
X139337500Y-91200000D01*
X138862500Y-91200000D01*
X138839221Y-91198856D01*
X138816166Y-91195437D01*
X138793557Y-91189773D01*
X138771613Y-91181921D01*
X138750543Y-91171956D01*
X138730552Y-91159974D01*
X138711832Y-91146090D01*
X138694562Y-91130438D01*
X138678910Y-91113168D01*
X138665026Y-91094448D01*
X138653044Y-91074457D01*
X138643079Y-91053387D01*
X138635227Y-91031443D01*
X138629563Y-91008834D01*
X138626144Y-90985779D01*
X138625000Y-90962500D01*
X138625000Y-90387500D01*
X138626144Y-90364221D01*
X138629563Y-90341166D01*
X138635227Y-90318557D01*
X138643079Y-90296613D01*
X138653044Y-90275543D01*
X138665026Y-90255552D01*
X138678910Y-90236832D01*
X138694562Y-90219562D01*
X138711832Y-90203910D01*
X138730552Y-90190026D01*
X138750543Y-90178044D01*
X138771613Y-90168079D01*
X138793557Y-90160227D01*
X138816166Y-90154563D01*
X138839221Y-90151144D01*
X138862500Y-90150000D01*
X139337500Y-90150000D01*
X139360779Y-90151144D01*
G37*
G04 #@! TD.AperFunction*
D17*
X147100000Y-86100000D03*
X146800000Y-84500000D03*
X155100000Y-105200000D03*
X154100000Y-93200000D03*
X144300000Y-99600000D03*
X144300000Y-101200000D03*
X143600000Y-102000000D03*
X150300000Y-93000000D03*
X157400000Y-104900000D03*
X147900000Y-107200000D03*
X156700000Y-104600000D03*
X148700000Y-106641200D03*
X155600000Y-93200000D03*
D18*
X140575000Y-88925000D02*
X141000000Y-88500000D01*
X139100000Y-88925000D02*
X140575000Y-88925000D01*
X139425000Y-111275000D02*
X139425000Y-110800000D01*
X140050000Y-111900000D02*
X139425000Y-111275000D01*
X149900000Y-111900000D02*
X140050000Y-111900000D01*
X149900000Y-111900000D02*
X159400000Y-111900000D01*
X160700000Y-110600000D02*
X160700000Y-105875000D01*
X159400000Y-111900000D02*
X160700000Y-110600000D01*
X138625000Y-88925000D02*
X139100000Y-88925000D01*
X138269390Y-110169390D02*
X138269390Y-89280610D01*
X138900000Y-110800000D02*
X138269390Y-110169390D01*
X138269390Y-89280610D02*
X138625000Y-88925000D01*
X139425000Y-110800000D02*
X138900000Y-110800000D01*
X141400000Y-88100000D02*
X141000000Y-88500000D01*
X146100000Y-88100000D02*
X141400000Y-88100000D01*
X147100000Y-87100000D02*
X146100000Y-88100000D01*
X147100000Y-86100000D02*
X147100000Y-87100000D01*
X159205000Y-105875000D02*
X158800000Y-106280000D01*
X160700000Y-105875000D02*
X159205000Y-105875000D01*
X139425000Y-110495000D02*
X141020000Y-108900000D01*
X139425000Y-110800000D02*
X139425000Y-110495000D01*
D19*
X141869999Y-108050001D02*
X141020000Y-108900000D01*
X142820000Y-107100000D02*
X141869999Y-108050001D01*
X147158801Y-107758801D02*
X146500000Y-107100000D01*
X146500000Y-107100000D02*
X142820000Y-107100000D01*
X148168225Y-107758801D02*
X147158801Y-107758801D01*
X148320616Y-107606410D02*
X148168225Y-107758801D01*
X149055516Y-107606410D02*
X148320616Y-107606410D01*
X149900000Y-108450894D02*
X149055516Y-107606410D01*
X149900000Y-111900000D02*
X149900000Y-108450894D01*
D18*
X146824290Y-84500000D02*
X146800000Y-84500000D01*
X149900000Y-87575710D02*
X146824290Y-84500000D01*
X149900000Y-90600000D02*
X149900000Y-87575710D01*
X140635000Y-90675000D02*
X141000000Y-91040000D01*
X139100000Y-90675000D02*
X140635000Y-90675000D01*
X159185000Y-104125000D02*
X158800000Y-103740000D01*
X160700000Y-104125000D02*
X159185000Y-104125000D01*
X143560000Y-108940000D02*
X143560000Y-108900000D01*
X141700000Y-110800000D02*
X143560000Y-108940000D01*
X141175000Y-110800000D02*
X141700000Y-110800000D01*
X156560000Y-103740000D02*
X155100000Y-105200000D01*
X158800000Y-103740000D02*
X156560000Y-103740000D01*
D19*
X154100000Y-90009602D02*
X154100000Y-93200000D01*
X157204801Y-86904801D02*
X154100000Y-90009602D01*
X159465199Y-86904801D02*
X160270000Y-86100000D01*
X157204801Y-86904801D02*
X159465199Y-86904801D01*
X159499999Y-84330001D02*
X159000000Y-84830000D01*
X159804801Y-84025199D02*
X159499999Y-84330001D01*
X161926305Y-84025199D02*
X159804801Y-84025199D01*
X162344801Y-91744305D02*
X162344801Y-84443695D01*
X159123907Y-94965199D02*
X162344801Y-91744305D01*
X162344801Y-84443695D02*
X161926305Y-84025199D01*
X147234801Y-94965199D02*
X159123907Y-94965199D01*
X144300000Y-97900000D02*
X147234801Y-94965199D01*
X144300000Y-99600000D02*
X144300000Y-97900000D01*
X141000000Y-93580000D02*
X143500000Y-96080000D01*
X143500000Y-100400000D02*
X144300000Y-101200000D01*
X143500000Y-96080000D02*
X143500000Y-100400000D01*
X141849999Y-96969999D02*
X141000000Y-96120000D01*
X143093590Y-101493590D02*
X143093590Y-98213590D01*
X143093590Y-98213590D02*
X141849999Y-96969999D01*
X143600000Y-102000000D02*
X143093590Y-101493590D01*
X139845199Y-93025695D02*
X139845199Y-97505199D01*
X139845199Y-97505199D02*
X140150001Y-97810001D01*
X140445695Y-92425199D02*
X139845199Y-93025695D01*
X149725199Y-92425199D02*
X140445695Y-92425199D01*
X140150001Y-97810001D02*
X141000000Y-98660000D01*
X150300000Y-93000000D02*
X149725199Y-92425199D01*
X155100000Y-107200000D02*
X147900000Y-107200000D01*
X157400000Y-104900000D02*
X155100000Y-107200000D01*
X154658800Y-106641200D02*
X148700000Y-106641200D01*
X156700000Y-104600000D02*
X154658800Y-106641200D01*
X155600000Y-89451358D02*
X157706159Y-87345199D01*
X160294801Y-87345199D02*
X161540000Y-86100000D01*
X157706159Y-87345199D02*
X160294801Y-87345199D01*
X155600000Y-93200000D02*
X155600000Y-89451358D01*
D20*
G36*
X146012179Y-84078901D02*
G01*
X145945164Y-84240688D01*
X145911000Y-84412441D01*
X145911000Y-84587559D01*
X145945164Y-84759312D01*
X146012179Y-84921099D01*
X146109469Y-85066704D01*
X146233296Y-85190531D01*
X146378901Y-85287821D01*
X146540688Y-85354836D01*
X146571756Y-85361016D01*
X147977715Y-86766975D01*
X147936589Y-86784010D01*
X147693368Y-86946525D01*
X147561513Y-87078380D01*
X147539502Y-87005820D01*
X147480537Y-86895506D01*
X147401185Y-86798815D01*
X147304494Y-86719463D01*
X147194180Y-86660498D01*
X147074482Y-86624188D01*
X146950000Y-86611928D01*
X146385750Y-86615000D01*
X146227000Y-86773750D01*
X146227000Y-87973000D01*
X146247000Y-87973000D01*
X146247000Y-88227000D01*
X146227000Y-88227000D01*
X146227000Y-89426250D01*
X146385750Y-89585000D01*
X146950000Y-89588072D01*
X147074482Y-89575812D01*
X147194180Y-89539502D01*
X147304494Y-89480537D01*
X147401185Y-89401185D01*
X147464483Y-89324056D01*
X147461928Y-89350000D01*
X147461928Y-91688599D01*
X142338694Y-91688599D01*
X142427932Y-91473158D01*
X142485000Y-91186260D01*
X142485000Y-90893740D01*
X142427932Y-90606842D01*
X142315990Y-90336589D01*
X142153475Y-90093368D01*
X141946632Y-89886525D01*
X141764466Y-89764805D01*
X141881355Y-89695178D01*
X142097588Y-89500269D01*
X142271641Y-89266920D01*
X142396825Y-89004099D01*
X142413234Y-88950000D01*
X144611928Y-88950000D01*
X144624188Y-89074482D01*
X144660498Y-89194180D01*
X144719463Y-89304494D01*
X144798815Y-89401185D01*
X144895506Y-89480537D01*
X145005820Y-89539502D01*
X145125518Y-89575812D01*
X145250000Y-89588072D01*
X145814250Y-89585000D01*
X145973000Y-89426250D01*
X145973000Y-88227000D01*
X144773750Y-88227000D01*
X144615000Y-88385750D01*
X144611928Y-88950000D01*
X142413234Y-88950000D01*
X142441476Y-88856890D01*
X142320155Y-88627000D01*
X141127000Y-88627000D01*
X141127000Y-88647000D01*
X140873000Y-88647000D01*
X140873000Y-88627000D01*
X140853000Y-88627000D01*
X140853000Y-88373000D01*
X140873000Y-88373000D01*
X140873000Y-87179186D01*
X141127000Y-87179186D01*
X141127000Y-88373000D01*
X142320155Y-88373000D01*
X142441476Y-88143110D01*
X142396825Y-87995901D01*
X142271641Y-87733080D01*
X142097588Y-87499731D01*
X141881355Y-87304822D01*
X141789321Y-87250000D01*
X144611928Y-87250000D01*
X144615000Y-87814250D01*
X144773750Y-87973000D01*
X145973000Y-87973000D01*
X145973000Y-86773750D01*
X145814250Y-86615000D01*
X145250000Y-86611928D01*
X145125518Y-86624188D01*
X145005820Y-86660498D01*
X144895506Y-86719463D01*
X144798815Y-86798815D01*
X144719463Y-86895506D01*
X144660498Y-87005820D01*
X144624188Y-87125518D01*
X144611928Y-87250000D01*
X141789321Y-87250000D01*
X141631252Y-87155843D01*
X141356891Y-87058519D01*
X141127000Y-87179186D01*
X140873000Y-87179186D01*
X140643109Y-87058519D01*
X140368748Y-87155843D01*
X140118645Y-87304822D01*
X139902412Y-87499731D01*
X139728359Y-87733080D01*
X139707605Y-87776652D01*
X139699482Y-87774188D01*
X139575000Y-87761928D01*
X139385750Y-87765000D01*
X139227000Y-87923750D01*
X139227000Y-88798000D01*
X139247000Y-88798000D01*
X139247000Y-89052000D01*
X139227000Y-89052000D01*
X139227000Y-89072000D01*
X138973000Y-89072000D01*
X138973000Y-89052000D01*
X138148750Y-89052000D01*
X137990000Y-89210750D01*
X137986928Y-89450000D01*
X137999188Y-89574482D01*
X138035498Y-89694180D01*
X138094463Y-89804494D01*
X138154099Y-89877161D01*
X138134488Y-89901058D01*
X138053577Y-90052433D01*
X138003752Y-90216684D01*
X137986928Y-90387500D01*
X137986928Y-90962500D01*
X138003752Y-91133316D01*
X138053577Y-91297567D01*
X138134488Y-91448942D01*
X138243377Y-91581623D01*
X138376058Y-91690512D01*
X138527433Y-91771423D01*
X138691684Y-91821248D01*
X138862500Y-91838072D01*
X139337500Y-91838072D01*
X139508316Y-91821248D01*
X139672567Y-91771423D01*
X139694790Y-91759545D01*
X139844934Y-91984250D01*
X139349931Y-92479254D01*
X139321824Y-92502321D01*
X139229775Y-92614483D01*
X139161377Y-92742447D01*
X139119257Y-92881297D01*
X139113408Y-92940688D01*
X139105035Y-93025695D01*
X139108599Y-93061878D01*
X139108600Y-97469006D01*
X139105035Y-97505199D01*
X139116023Y-97616751D01*
X139119258Y-97649598D01*
X139124113Y-97665603D01*
X139161377Y-97788446D01*
X139221004Y-97900000D01*
X139229776Y-97916412D01*
X139321825Y-98028574D01*
X139349931Y-98051640D01*
X139564281Y-98265990D01*
X139515000Y-98513740D01*
X139515000Y-98806260D01*
X139572068Y-99093158D01*
X139684010Y-99363411D01*
X139846525Y-99606632D01*
X140053368Y-99813475D01*
X140227760Y-99930000D01*
X140053368Y-100046525D01*
X139846525Y-100253368D01*
X139684010Y-100496589D01*
X139572068Y-100766842D01*
X139515000Y-101053740D01*
X139515000Y-101346260D01*
X139572068Y-101633158D01*
X139684010Y-101903411D01*
X139846525Y-102146632D01*
X140053368Y-102353475D01*
X140227760Y-102470000D01*
X140053368Y-102586525D01*
X139846525Y-102793368D01*
X139684010Y-103036589D01*
X139572068Y-103306842D01*
X139515000Y-103593740D01*
X139515000Y-103886260D01*
X139572068Y-104173158D01*
X139684010Y-104443411D01*
X139846525Y-104686632D01*
X139978380Y-104818487D01*
X139905820Y-104840498D01*
X139795506Y-104899463D01*
X139698815Y-104978815D01*
X139619463Y-105075506D01*
X139560498Y-105185820D01*
X139524188Y-105305518D01*
X139511928Y-105430000D01*
X139511928Y-107130000D01*
X139524188Y-107254482D01*
X139560498Y-107374180D01*
X139619463Y-107484494D01*
X139698815Y-107581185D01*
X139795506Y-107660537D01*
X139905820Y-107719502D01*
X140025518Y-107755812D01*
X140075594Y-107760744D01*
X140019731Y-107802412D01*
X139824822Y-108018645D01*
X139675843Y-108268748D01*
X139578519Y-108543109D01*
X139699186Y-108773000D01*
X140893000Y-108773000D01*
X140893000Y-108753000D01*
X141147000Y-108753000D01*
X141147000Y-108773000D01*
X141167000Y-108773000D01*
X141167000Y-109027000D01*
X141147000Y-109027000D01*
X141147000Y-109047000D01*
X140893000Y-109047000D01*
X140893000Y-109027000D01*
X139699186Y-109027000D01*
X139578519Y-109256891D01*
X139675843Y-109531252D01*
X139769952Y-109689240D01*
X139710750Y-109690000D01*
X139552000Y-109848750D01*
X139552000Y-110673000D01*
X139572000Y-110673000D01*
X139572000Y-110927000D01*
X139552000Y-110927000D01*
X139552000Y-111751250D01*
X139710750Y-111910000D01*
X139950000Y-111913072D01*
X140074482Y-111900812D01*
X140194180Y-111864502D01*
X140304494Y-111805537D01*
X140377161Y-111745901D01*
X140401058Y-111765512D01*
X140552433Y-111846423D01*
X140716684Y-111896248D01*
X140887500Y-111913072D01*
X141462500Y-111913072D01*
X141633316Y-111896248D01*
X141797567Y-111846423D01*
X141948942Y-111765512D01*
X142081623Y-111656623D01*
X142190512Y-111523942D01*
X142271423Y-111372567D01*
X142284678Y-111328872D01*
X143259276Y-110354275D01*
X143413740Y-110385000D01*
X143706260Y-110385000D01*
X143993158Y-110327932D01*
X144263411Y-110215990D01*
X144506632Y-110053475D01*
X144713475Y-109846632D01*
X144830000Y-109672240D01*
X144946525Y-109846632D01*
X145153368Y-110053475D01*
X145396589Y-110215990D01*
X145666842Y-110327932D01*
X145953740Y-110385000D01*
X146246260Y-110385000D01*
X146533158Y-110327932D01*
X146803411Y-110215990D01*
X147046632Y-110053475D01*
X147253475Y-109846632D01*
X147370000Y-109672240D01*
X147486525Y-109846632D01*
X147693368Y-110053475D01*
X147936589Y-110215990D01*
X148016925Y-110249266D01*
X148011928Y-110300000D01*
X148015000Y-111514250D01*
X148173750Y-111673000D01*
X149773000Y-111673000D01*
X149773000Y-111653000D01*
X150027000Y-111653000D01*
X150027000Y-111673000D01*
X151626250Y-111673000D01*
X151785000Y-111514250D01*
X151788072Y-110300000D01*
X151783859Y-110257226D01*
X151883411Y-110215990D01*
X152126632Y-110053475D01*
X152333475Y-109846632D01*
X152450000Y-109672240D01*
X152566525Y-109846632D01*
X152773368Y-110053475D01*
X153016589Y-110215990D01*
X153286842Y-110327932D01*
X153573740Y-110385000D01*
X153866260Y-110385000D01*
X154153158Y-110327932D01*
X154423411Y-110215990D01*
X154666632Y-110053475D01*
X154873475Y-109846632D01*
X154990000Y-109672240D01*
X155106525Y-109846632D01*
X155313368Y-110053475D01*
X155556589Y-110215990D01*
X155826842Y-110327932D01*
X156113740Y-110385000D01*
X156406260Y-110385000D01*
X156693158Y-110327932D01*
X156963411Y-110215990D01*
X157206632Y-110053475D01*
X157338487Y-109921620D01*
X157360498Y-109994180D01*
X157419463Y-110104494D01*
X157498815Y-110201185D01*
X157595506Y-110280537D01*
X157705820Y-110339502D01*
X157825518Y-110375812D01*
X157950000Y-110388072D01*
X159650000Y-110388072D01*
X159774482Y-110375812D01*
X159894180Y-110339502D01*
X160004494Y-110280537D01*
X160101185Y-110201185D01*
X160180537Y-110104494D01*
X160239502Y-109994180D01*
X160275812Y-109874482D01*
X160288072Y-109750000D01*
X160288072Y-108050000D01*
X160275812Y-107925518D01*
X160239502Y-107805820D01*
X160180537Y-107695506D01*
X160101185Y-107598815D01*
X160004494Y-107519463D01*
X159894180Y-107460498D01*
X159774482Y-107424188D01*
X159741525Y-107420942D01*
X159897588Y-107280269D01*
X160071641Y-107046920D01*
X160084071Y-107020823D01*
X160100518Y-107025812D01*
X160225000Y-107038072D01*
X160414250Y-107035000D01*
X160573000Y-106876250D01*
X160573000Y-106002000D01*
X160827000Y-106002000D01*
X160827000Y-106876250D01*
X160985750Y-107035000D01*
X161175000Y-107038072D01*
X161299482Y-107025812D01*
X161419180Y-106989502D01*
X161529494Y-106930537D01*
X161626185Y-106851185D01*
X161705537Y-106754494D01*
X161764502Y-106644180D01*
X161800812Y-106524482D01*
X161813072Y-106400000D01*
X161810000Y-106160750D01*
X161651250Y-106002000D01*
X160827000Y-106002000D01*
X160573000Y-106002000D01*
X160553000Y-106002000D01*
X160553000Y-105748000D01*
X160573000Y-105748000D01*
X160573000Y-105728000D01*
X160827000Y-105728000D01*
X160827000Y-105748000D01*
X161651250Y-105748000D01*
X161810000Y-105589250D01*
X161813072Y-105350000D01*
X161800812Y-105225518D01*
X161764502Y-105105820D01*
X161705537Y-104995506D01*
X161645901Y-104922839D01*
X161665512Y-104898942D01*
X161746423Y-104747567D01*
X161796248Y-104583316D01*
X161813072Y-104412500D01*
X161813072Y-103837500D01*
X161796248Y-103666684D01*
X161746423Y-103502433D01*
X161665512Y-103351058D01*
X161556623Y-103218377D01*
X161423942Y-103109488D01*
X161272567Y-103028577D01*
X161108316Y-102978752D01*
X160937500Y-102961928D01*
X160462500Y-102961928D01*
X160291684Y-102978752D01*
X160127433Y-103028577D01*
X160115057Y-103035192D01*
X159953475Y-102793368D01*
X159746632Y-102586525D01*
X159572240Y-102470000D01*
X159746632Y-102353475D01*
X159953475Y-102146632D01*
X160115990Y-101903411D01*
X160227932Y-101633158D01*
X160285000Y-101346260D01*
X160285000Y-101053740D01*
X160227932Y-100766842D01*
X160115990Y-100496589D01*
X159953475Y-100253368D01*
X159746632Y-100046525D01*
X159572240Y-99930000D01*
X159746632Y-99813475D01*
X159953475Y-99606632D01*
X160115990Y-99363411D01*
X160227932Y-99093158D01*
X160285000Y-98806260D01*
X160285000Y-98513740D01*
X160227932Y-98226842D01*
X160115990Y-97956589D01*
X159953475Y-97713368D01*
X159746632Y-97506525D01*
X159572240Y-97390000D01*
X159746632Y-97273475D01*
X159953475Y-97066632D01*
X160115990Y-96823411D01*
X160227932Y-96553158D01*
X160285000Y-96266260D01*
X160285000Y-95973740D01*
X160227932Y-95686842D01*
X160115990Y-95416589D01*
X159955066Y-95175749D01*
X162840074Y-92290742D01*
X162868175Y-92267680D01*
X162891238Y-92239578D01*
X162891243Y-92239573D01*
X162940000Y-92180162D01*
X162940001Y-113040000D01*
X151787414Y-113040000D01*
X151785000Y-112085750D01*
X151626250Y-111927000D01*
X150027000Y-111927000D01*
X150027000Y-111947000D01*
X149773000Y-111947000D01*
X149773000Y-111927000D01*
X148173750Y-111927000D01*
X148015000Y-112085750D01*
X148012586Y-113040000D01*
X136960000Y-113040000D01*
X136960000Y-111275000D01*
X138261928Y-111275000D01*
X138274188Y-111399482D01*
X138310498Y-111519180D01*
X138369463Y-111629494D01*
X138448815Y-111726185D01*
X138545506Y-111805537D01*
X138655820Y-111864502D01*
X138775518Y-111900812D01*
X138900000Y-111913072D01*
X139139250Y-111910000D01*
X139298000Y-111751250D01*
X139298000Y-110927000D01*
X138423750Y-110927000D01*
X138265000Y-111085750D01*
X138261928Y-111275000D01*
X136960000Y-111275000D01*
X136960000Y-110325000D01*
X138261928Y-110325000D01*
X138265000Y-110514250D01*
X138423750Y-110673000D01*
X139298000Y-110673000D01*
X139298000Y-109848750D01*
X139139250Y-109690000D01*
X138900000Y-109686928D01*
X138775518Y-109699188D01*
X138655820Y-109735498D01*
X138545506Y-109794463D01*
X138448815Y-109873815D01*
X138369463Y-109970506D01*
X138310498Y-110080820D01*
X138274188Y-110200518D01*
X138261928Y-110325000D01*
X136960000Y-110325000D01*
X136960000Y-88400000D01*
X137986928Y-88400000D01*
X137990000Y-88639250D01*
X138148750Y-88798000D01*
X138973000Y-88798000D01*
X138973000Y-87923750D01*
X138814250Y-87765000D01*
X138625000Y-87761928D01*
X138500518Y-87774188D01*
X138380820Y-87810498D01*
X138270506Y-87869463D01*
X138173815Y-87948815D01*
X138094463Y-88045506D01*
X138035498Y-88155820D01*
X137999188Y-88275518D01*
X137986928Y-88400000D01*
X136960000Y-88400000D01*
X136960000Y-84060000D01*
X146024808Y-84060000D01*
X146012179Y-84078901D01*
G37*
X146012179Y-84078901D02*
X145945164Y-84240688D01*
X145911000Y-84412441D01*
X145911000Y-84587559D01*
X145945164Y-84759312D01*
X146012179Y-84921099D01*
X146109469Y-85066704D01*
X146233296Y-85190531D01*
X146378901Y-85287821D01*
X146540688Y-85354836D01*
X146571756Y-85361016D01*
X147977715Y-86766975D01*
X147936589Y-86784010D01*
X147693368Y-86946525D01*
X147561513Y-87078380D01*
X147539502Y-87005820D01*
X147480537Y-86895506D01*
X147401185Y-86798815D01*
X147304494Y-86719463D01*
X147194180Y-86660498D01*
X147074482Y-86624188D01*
X146950000Y-86611928D01*
X146385750Y-86615000D01*
X146227000Y-86773750D01*
X146227000Y-87973000D01*
X146247000Y-87973000D01*
X146247000Y-88227000D01*
X146227000Y-88227000D01*
X146227000Y-89426250D01*
X146385750Y-89585000D01*
X146950000Y-89588072D01*
X147074482Y-89575812D01*
X147194180Y-89539502D01*
X147304494Y-89480537D01*
X147401185Y-89401185D01*
X147464483Y-89324056D01*
X147461928Y-89350000D01*
X147461928Y-91688599D01*
X142338694Y-91688599D01*
X142427932Y-91473158D01*
X142485000Y-91186260D01*
X142485000Y-90893740D01*
X142427932Y-90606842D01*
X142315990Y-90336589D01*
X142153475Y-90093368D01*
X141946632Y-89886525D01*
X141764466Y-89764805D01*
X141881355Y-89695178D01*
X142097588Y-89500269D01*
X142271641Y-89266920D01*
X142396825Y-89004099D01*
X142413234Y-88950000D01*
X144611928Y-88950000D01*
X144624188Y-89074482D01*
X144660498Y-89194180D01*
X144719463Y-89304494D01*
X144798815Y-89401185D01*
X144895506Y-89480537D01*
X145005820Y-89539502D01*
X145125518Y-89575812D01*
X145250000Y-89588072D01*
X145814250Y-89585000D01*
X145973000Y-89426250D01*
X145973000Y-88227000D01*
X144773750Y-88227000D01*
X144615000Y-88385750D01*
X144611928Y-88950000D01*
X142413234Y-88950000D01*
X142441476Y-88856890D01*
X142320155Y-88627000D01*
X141127000Y-88627000D01*
X141127000Y-88647000D01*
X140873000Y-88647000D01*
X140873000Y-88627000D01*
X140853000Y-88627000D01*
X140853000Y-88373000D01*
X140873000Y-88373000D01*
X140873000Y-87179186D01*
X141127000Y-87179186D01*
X141127000Y-88373000D01*
X142320155Y-88373000D01*
X142441476Y-88143110D01*
X142396825Y-87995901D01*
X142271641Y-87733080D01*
X142097588Y-87499731D01*
X141881355Y-87304822D01*
X141789321Y-87250000D01*
X144611928Y-87250000D01*
X144615000Y-87814250D01*
X144773750Y-87973000D01*
X145973000Y-87973000D01*
X145973000Y-86773750D01*
X145814250Y-86615000D01*
X145250000Y-86611928D01*
X145125518Y-86624188D01*
X145005820Y-86660498D01*
X144895506Y-86719463D01*
X144798815Y-86798815D01*
X144719463Y-86895506D01*
X144660498Y-87005820D01*
X144624188Y-87125518D01*
X144611928Y-87250000D01*
X141789321Y-87250000D01*
X141631252Y-87155843D01*
X141356891Y-87058519D01*
X141127000Y-87179186D01*
X140873000Y-87179186D01*
X140643109Y-87058519D01*
X140368748Y-87155843D01*
X140118645Y-87304822D01*
X139902412Y-87499731D01*
X139728359Y-87733080D01*
X139707605Y-87776652D01*
X139699482Y-87774188D01*
X139575000Y-87761928D01*
X139385750Y-87765000D01*
X139227000Y-87923750D01*
X139227000Y-88798000D01*
X139247000Y-88798000D01*
X139247000Y-89052000D01*
X139227000Y-89052000D01*
X139227000Y-89072000D01*
X138973000Y-89072000D01*
X138973000Y-89052000D01*
X138148750Y-89052000D01*
X137990000Y-89210750D01*
X137986928Y-89450000D01*
X137999188Y-89574482D01*
X138035498Y-89694180D01*
X138094463Y-89804494D01*
X138154099Y-89877161D01*
X138134488Y-89901058D01*
X138053577Y-90052433D01*
X138003752Y-90216684D01*
X137986928Y-90387500D01*
X137986928Y-90962500D01*
X138003752Y-91133316D01*
X138053577Y-91297567D01*
X138134488Y-91448942D01*
X138243377Y-91581623D01*
X138376058Y-91690512D01*
X138527433Y-91771423D01*
X138691684Y-91821248D01*
X138862500Y-91838072D01*
X139337500Y-91838072D01*
X139508316Y-91821248D01*
X139672567Y-91771423D01*
X139694790Y-91759545D01*
X139844934Y-91984250D01*
X139349931Y-92479254D01*
X139321824Y-92502321D01*
X139229775Y-92614483D01*
X139161377Y-92742447D01*
X139119257Y-92881297D01*
X139113408Y-92940688D01*
X139105035Y-93025695D01*
X139108599Y-93061878D01*
X139108600Y-97469006D01*
X139105035Y-97505199D01*
X139116023Y-97616751D01*
X139119258Y-97649598D01*
X139124113Y-97665603D01*
X139161377Y-97788446D01*
X139221004Y-97900000D01*
X139229776Y-97916412D01*
X139321825Y-98028574D01*
X139349931Y-98051640D01*
X139564281Y-98265990D01*
X139515000Y-98513740D01*
X139515000Y-98806260D01*
X139572068Y-99093158D01*
X139684010Y-99363411D01*
X139846525Y-99606632D01*
X140053368Y-99813475D01*
X140227760Y-99930000D01*
X140053368Y-100046525D01*
X139846525Y-100253368D01*
X139684010Y-100496589D01*
X139572068Y-100766842D01*
X139515000Y-101053740D01*
X139515000Y-101346260D01*
X139572068Y-101633158D01*
X139684010Y-101903411D01*
X139846525Y-102146632D01*
X140053368Y-102353475D01*
X140227760Y-102470000D01*
X140053368Y-102586525D01*
X139846525Y-102793368D01*
X139684010Y-103036589D01*
X139572068Y-103306842D01*
X139515000Y-103593740D01*
X139515000Y-103886260D01*
X139572068Y-104173158D01*
X139684010Y-104443411D01*
X139846525Y-104686632D01*
X139978380Y-104818487D01*
X139905820Y-104840498D01*
X139795506Y-104899463D01*
X139698815Y-104978815D01*
X139619463Y-105075506D01*
X139560498Y-105185820D01*
X139524188Y-105305518D01*
X139511928Y-105430000D01*
X139511928Y-107130000D01*
X139524188Y-107254482D01*
X139560498Y-107374180D01*
X139619463Y-107484494D01*
X139698815Y-107581185D01*
X139795506Y-107660537D01*
X139905820Y-107719502D01*
X140025518Y-107755812D01*
X140075594Y-107760744D01*
X140019731Y-107802412D01*
X139824822Y-108018645D01*
X139675843Y-108268748D01*
X139578519Y-108543109D01*
X139699186Y-108773000D01*
X140893000Y-108773000D01*
X140893000Y-108753000D01*
X141147000Y-108753000D01*
X141147000Y-108773000D01*
X141167000Y-108773000D01*
X141167000Y-109027000D01*
X141147000Y-109027000D01*
X141147000Y-109047000D01*
X140893000Y-109047000D01*
X140893000Y-109027000D01*
X139699186Y-109027000D01*
X139578519Y-109256891D01*
X139675843Y-109531252D01*
X139769952Y-109689240D01*
X139710750Y-109690000D01*
X139552000Y-109848750D01*
X139552000Y-110673000D01*
X139572000Y-110673000D01*
X139572000Y-110927000D01*
X139552000Y-110927000D01*
X139552000Y-111751250D01*
X139710750Y-111910000D01*
X139950000Y-111913072D01*
X140074482Y-111900812D01*
X140194180Y-111864502D01*
X140304494Y-111805537D01*
X140377161Y-111745901D01*
X140401058Y-111765512D01*
X140552433Y-111846423D01*
X140716684Y-111896248D01*
X140887500Y-111913072D01*
X141462500Y-111913072D01*
X141633316Y-111896248D01*
X141797567Y-111846423D01*
X141948942Y-111765512D01*
X142081623Y-111656623D01*
X142190512Y-111523942D01*
X142271423Y-111372567D01*
X142284678Y-111328872D01*
X143259276Y-110354275D01*
X143413740Y-110385000D01*
X143706260Y-110385000D01*
X143993158Y-110327932D01*
X144263411Y-110215990D01*
X144506632Y-110053475D01*
X144713475Y-109846632D01*
X144830000Y-109672240D01*
X144946525Y-109846632D01*
X145153368Y-110053475D01*
X145396589Y-110215990D01*
X145666842Y-110327932D01*
X145953740Y-110385000D01*
X146246260Y-110385000D01*
X146533158Y-110327932D01*
X146803411Y-110215990D01*
X147046632Y-110053475D01*
X147253475Y-109846632D01*
X147370000Y-109672240D01*
X147486525Y-109846632D01*
X147693368Y-110053475D01*
X147936589Y-110215990D01*
X148016925Y-110249266D01*
X148011928Y-110300000D01*
X148015000Y-111514250D01*
X148173750Y-111673000D01*
X149773000Y-111673000D01*
X149773000Y-111653000D01*
X150027000Y-111653000D01*
X150027000Y-111673000D01*
X151626250Y-111673000D01*
X151785000Y-111514250D01*
X151788072Y-110300000D01*
X151783859Y-110257226D01*
X151883411Y-110215990D01*
X152126632Y-110053475D01*
X152333475Y-109846632D01*
X152450000Y-109672240D01*
X152566525Y-109846632D01*
X152773368Y-110053475D01*
X153016589Y-110215990D01*
X153286842Y-110327932D01*
X153573740Y-110385000D01*
X153866260Y-110385000D01*
X154153158Y-110327932D01*
X154423411Y-110215990D01*
X154666632Y-110053475D01*
X154873475Y-109846632D01*
X154990000Y-109672240D01*
X155106525Y-109846632D01*
X155313368Y-110053475D01*
X155556589Y-110215990D01*
X155826842Y-110327932D01*
X156113740Y-110385000D01*
X156406260Y-110385000D01*
X156693158Y-110327932D01*
X156963411Y-110215990D01*
X157206632Y-110053475D01*
X157338487Y-109921620D01*
X157360498Y-109994180D01*
X157419463Y-110104494D01*
X157498815Y-110201185D01*
X157595506Y-110280537D01*
X157705820Y-110339502D01*
X157825518Y-110375812D01*
X157950000Y-110388072D01*
X159650000Y-110388072D01*
X159774482Y-110375812D01*
X159894180Y-110339502D01*
X160004494Y-110280537D01*
X160101185Y-110201185D01*
X160180537Y-110104494D01*
X160239502Y-109994180D01*
X160275812Y-109874482D01*
X160288072Y-109750000D01*
X160288072Y-108050000D01*
X160275812Y-107925518D01*
X160239502Y-107805820D01*
X160180537Y-107695506D01*
X160101185Y-107598815D01*
X160004494Y-107519463D01*
X159894180Y-107460498D01*
X159774482Y-107424188D01*
X159741525Y-107420942D01*
X159897588Y-107280269D01*
X160071641Y-107046920D01*
X160084071Y-107020823D01*
X160100518Y-107025812D01*
X160225000Y-107038072D01*
X160414250Y-107035000D01*
X160573000Y-106876250D01*
X160573000Y-106002000D01*
X160827000Y-106002000D01*
X160827000Y-106876250D01*
X160985750Y-107035000D01*
X161175000Y-107038072D01*
X161299482Y-107025812D01*
X161419180Y-106989502D01*
X161529494Y-106930537D01*
X161626185Y-106851185D01*
X161705537Y-106754494D01*
X161764502Y-106644180D01*
X161800812Y-106524482D01*
X161813072Y-106400000D01*
X161810000Y-106160750D01*
X161651250Y-106002000D01*
X160827000Y-106002000D01*
X160573000Y-106002000D01*
X160553000Y-106002000D01*
X160553000Y-105748000D01*
X160573000Y-105748000D01*
X160573000Y-105728000D01*
X160827000Y-105728000D01*
X160827000Y-105748000D01*
X161651250Y-105748000D01*
X161810000Y-105589250D01*
X161813072Y-105350000D01*
X161800812Y-105225518D01*
X161764502Y-105105820D01*
X161705537Y-104995506D01*
X161645901Y-104922839D01*
X161665512Y-104898942D01*
X161746423Y-104747567D01*
X161796248Y-104583316D01*
X161813072Y-104412500D01*
X161813072Y-103837500D01*
X161796248Y-103666684D01*
X161746423Y-103502433D01*
X161665512Y-103351058D01*
X161556623Y-103218377D01*
X161423942Y-103109488D01*
X161272567Y-103028577D01*
X161108316Y-102978752D01*
X160937500Y-102961928D01*
X160462500Y-102961928D01*
X160291684Y-102978752D01*
X160127433Y-103028577D01*
X160115057Y-103035192D01*
X159953475Y-102793368D01*
X159746632Y-102586525D01*
X159572240Y-102470000D01*
X159746632Y-102353475D01*
X159953475Y-102146632D01*
X160115990Y-101903411D01*
X160227932Y-101633158D01*
X160285000Y-101346260D01*
X160285000Y-101053740D01*
X160227932Y-100766842D01*
X160115990Y-100496589D01*
X159953475Y-100253368D01*
X159746632Y-100046525D01*
X159572240Y-99930000D01*
X159746632Y-99813475D01*
X159953475Y-99606632D01*
X160115990Y-99363411D01*
X160227932Y-99093158D01*
X160285000Y-98806260D01*
X160285000Y-98513740D01*
X160227932Y-98226842D01*
X160115990Y-97956589D01*
X159953475Y-97713368D01*
X159746632Y-97506525D01*
X159572240Y-97390000D01*
X159746632Y-97273475D01*
X159953475Y-97066632D01*
X160115990Y-96823411D01*
X160227932Y-96553158D01*
X160285000Y-96266260D01*
X160285000Y-95973740D01*
X160227932Y-95686842D01*
X160115990Y-95416589D01*
X159955066Y-95175749D01*
X162840074Y-92290742D01*
X162868175Y-92267680D01*
X162891238Y-92239578D01*
X162891243Y-92239573D01*
X162940000Y-92180162D01*
X162940001Y-113040000D01*
X151787414Y-113040000D01*
X151785000Y-112085750D01*
X151626250Y-111927000D01*
X150027000Y-111927000D01*
X150027000Y-111947000D01*
X149773000Y-111947000D01*
X149773000Y-111927000D01*
X148173750Y-111927000D01*
X148015000Y-112085750D01*
X148012586Y-113040000D01*
X136960000Y-113040000D01*
X136960000Y-111275000D01*
X138261928Y-111275000D01*
X138274188Y-111399482D01*
X138310498Y-111519180D01*
X138369463Y-111629494D01*
X138448815Y-111726185D01*
X138545506Y-111805537D01*
X138655820Y-111864502D01*
X138775518Y-111900812D01*
X138900000Y-111913072D01*
X139139250Y-111910000D01*
X139298000Y-111751250D01*
X139298000Y-110927000D01*
X138423750Y-110927000D01*
X138265000Y-111085750D01*
X138261928Y-111275000D01*
X136960000Y-111275000D01*
X136960000Y-110325000D01*
X138261928Y-110325000D01*
X138265000Y-110514250D01*
X138423750Y-110673000D01*
X139298000Y-110673000D01*
X139298000Y-109848750D01*
X139139250Y-109690000D01*
X138900000Y-109686928D01*
X138775518Y-109699188D01*
X138655820Y-109735498D01*
X138545506Y-109794463D01*
X138448815Y-109873815D01*
X138369463Y-109970506D01*
X138310498Y-110080820D01*
X138274188Y-110200518D01*
X138261928Y-110325000D01*
X136960000Y-110325000D01*
X136960000Y-88400000D01*
X137986928Y-88400000D01*
X137990000Y-88639250D01*
X138148750Y-88798000D01*
X138973000Y-88798000D01*
X138973000Y-87923750D01*
X138814250Y-87765000D01*
X138625000Y-87761928D01*
X138500518Y-87774188D01*
X138380820Y-87810498D01*
X138270506Y-87869463D01*
X138173815Y-87948815D01*
X138094463Y-88045506D01*
X138035498Y-88155820D01*
X137999188Y-88275518D01*
X137986928Y-88400000D01*
X136960000Y-88400000D01*
X136960000Y-84060000D01*
X146024808Y-84060000D01*
X146012179Y-84078901D01*
G36*
X157315000Y-95973740D02*
G01*
X157315000Y-96266260D01*
X157372068Y-96553158D01*
X157484010Y-96823411D01*
X157646525Y-97066632D01*
X157853368Y-97273475D01*
X158027760Y-97390000D01*
X157853368Y-97506525D01*
X157646525Y-97713368D01*
X157484010Y-97956589D01*
X157372068Y-98226842D01*
X157315000Y-98513740D01*
X157315000Y-98806260D01*
X157372068Y-99093158D01*
X157484010Y-99363411D01*
X157646525Y-99606632D01*
X157853368Y-99813475D01*
X158027760Y-99930000D01*
X157853368Y-100046525D01*
X157646525Y-100253368D01*
X157484010Y-100496589D01*
X157372068Y-100766842D01*
X157315000Y-101053740D01*
X157315000Y-101346260D01*
X157372068Y-101633158D01*
X157484010Y-101903411D01*
X157646525Y-102146632D01*
X157853368Y-102353475D01*
X158027760Y-102470000D01*
X157853368Y-102586525D01*
X157646525Y-102793368D01*
X157540130Y-102952600D01*
X156598663Y-102952600D01*
X156560000Y-102948792D01*
X156521337Y-102952600D01*
X156521327Y-102952600D01*
X156405643Y-102963994D01*
X156257217Y-103009018D01*
X156120427Y-103082134D01*
X156087097Y-103109488D01*
X156000531Y-103180531D01*
X155975877Y-103210572D01*
X154841434Y-104345016D01*
X154840688Y-104345164D01*
X154678901Y-104412179D01*
X154533296Y-104509469D01*
X154409469Y-104633296D01*
X154312179Y-104778901D01*
X154245164Y-104940688D01*
X154211000Y-105112441D01*
X154211000Y-105287559D01*
X154245164Y-105459312D01*
X154312179Y-105621099D01*
X154409469Y-105766704D01*
X154450528Y-105807763D01*
X154353691Y-105904600D01*
X149197757Y-105904600D01*
X149121099Y-105853379D01*
X148959312Y-105786364D01*
X148787559Y-105752200D01*
X148612441Y-105752200D01*
X148440688Y-105786364D01*
X148278901Y-105853379D01*
X148133296Y-105950669D01*
X148009469Y-106074496D01*
X147912179Y-106220101D01*
X147874527Y-106311000D01*
X147812441Y-106311000D01*
X147640688Y-106345164D01*
X147478901Y-106412179D01*
X147333296Y-106509469D01*
X147209469Y-106633296D01*
X147112179Y-106778901D01*
X147045164Y-106940688D01*
X147011000Y-107112441D01*
X147011000Y-107287559D01*
X147045164Y-107459312D01*
X147112179Y-107621099D01*
X147209469Y-107766704D01*
X147333296Y-107890531D01*
X147468257Y-107980709D01*
X147370000Y-108127760D01*
X147253475Y-107953368D01*
X147046632Y-107746525D01*
X146803411Y-107584010D01*
X146533158Y-107472068D01*
X146246260Y-107415000D01*
X145953740Y-107415000D01*
X145666842Y-107472068D01*
X145396589Y-107584010D01*
X145153368Y-107746525D01*
X144946525Y-107953368D01*
X144830000Y-108127760D01*
X144713475Y-107953368D01*
X144506632Y-107746525D01*
X144263411Y-107584010D01*
X143993158Y-107472068D01*
X143706260Y-107415000D01*
X143413740Y-107415000D01*
X143126842Y-107472068D01*
X142856589Y-107584010D01*
X142613368Y-107746525D01*
X142406525Y-107953368D01*
X142284805Y-108135534D01*
X142215178Y-108018645D01*
X142020269Y-107802412D01*
X141959740Y-107757264D01*
X141974482Y-107755812D01*
X142094180Y-107719502D01*
X142204494Y-107660537D01*
X142301185Y-107581185D01*
X142380537Y-107484494D01*
X142439502Y-107374180D01*
X142475812Y-107254482D01*
X142488072Y-107130000D01*
X142488072Y-105430000D01*
X142475812Y-105305518D01*
X142439502Y-105185820D01*
X142380537Y-105075506D01*
X142301185Y-104978815D01*
X142204494Y-104899463D01*
X142094180Y-104840498D01*
X142021620Y-104818487D01*
X142153475Y-104686632D01*
X142315990Y-104443411D01*
X142427932Y-104173158D01*
X142485000Y-103886260D01*
X142485000Y-103593740D01*
X142427932Y-103306842D01*
X142315990Y-103036589D01*
X142153475Y-102793368D01*
X141946632Y-102586525D01*
X141772240Y-102470000D01*
X141946632Y-102353475D01*
X142153475Y-102146632D01*
X142315990Y-101903411D01*
X142392287Y-101719212D01*
X142409768Y-101776838D01*
X142478166Y-101904802D01*
X142570215Y-102016964D01*
X142598322Y-102040031D01*
X142727177Y-102168886D01*
X142745164Y-102259312D01*
X142812179Y-102421099D01*
X142909469Y-102566704D01*
X143033296Y-102690531D01*
X143178901Y-102787821D01*
X143340688Y-102854836D01*
X143512441Y-102889000D01*
X143687559Y-102889000D01*
X143859312Y-102854836D01*
X144021099Y-102787821D01*
X144166704Y-102690531D01*
X144290531Y-102566704D01*
X144387821Y-102421099D01*
X144454836Y-102259312D01*
X144489000Y-102087559D01*
X144489000Y-102068822D01*
X144559312Y-102054836D01*
X144721099Y-101987821D01*
X144866704Y-101890531D01*
X144990531Y-101766704D01*
X145087821Y-101621099D01*
X145154836Y-101459312D01*
X145189000Y-101287559D01*
X145189000Y-101112441D01*
X145154836Y-100940688D01*
X145087821Y-100778901D01*
X144990531Y-100633296D01*
X144866704Y-100509469D01*
X144721099Y-100412179D01*
X144691697Y-100400000D01*
X144721099Y-100387821D01*
X144866704Y-100290531D01*
X144990531Y-100166704D01*
X145087821Y-100021099D01*
X145154836Y-99859312D01*
X145189000Y-99687559D01*
X145189000Y-99512441D01*
X145154836Y-99340688D01*
X145087821Y-99178901D01*
X145036600Y-99102243D01*
X145036600Y-98205109D01*
X147539910Y-95701799D01*
X157369093Y-95701799D01*
X157315000Y-95973740D01*
G37*
X157315000Y-95973740D02*
X157315000Y-96266260D01*
X157372068Y-96553158D01*
X157484010Y-96823411D01*
X157646525Y-97066632D01*
X157853368Y-97273475D01*
X158027760Y-97390000D01*
X157853368Y-97506525D01*
X157646525Y-97713368D01*
X157484010Y-97956589D01*
X157372068Y-98226842D01*
X157315000Y-98513740D01*
X157315000Y-98806260D01*
X157372068Y-99093158D01*
X157484010Y-99363411D01*
X157646525Y-99606632D01*
X157853368Y-99813475D01*
X158027760Y-99930000D01*
X157853368Y-100046525D01*
X157646525Y-100253368D01*
X157484010Y-100496589D01*
X157372068Y-100766842D01*
X157315000Y-101053740D01*
X157315000Y-101346260D01*
X157372068Y-101633158D01*
X157484010Y-101903411D01*
X157646525Y-102146632D01*
X157853368Y-102353475D01*
X158027760Y-102470000D01*
X157853368Y-102586525D01*
X157646525Y-102793368D01*
X157540130Y-102952600D01*
X156598663Y-102952600D01*
X156560000Y-102948792D01*
X156521337Y-102952600D01*
X156521327Y-102952600D01*
X156405643Y-102963994D01*
X156257217Y-103009018D01*
X156120427Y-103082134D01*
X156087097Y-103109488D01*
X156000531Y-103180531D01*
X155975877Y-103210572D01*
X154841434Y-104345016D01*
X154840688Y-104345164D01*
X154678901Y-104412179D01*
X154533296Y-104509469D01*
X154409469Y-104633296D01*
X154312179Y-104778901D01*
X154245164Y-104940688D01*
X154211000Y-105112441D01*
X154211000Y-105287559D01*
X154245164Y-105459312D01*
X154312179Y-105621099D01*
X154409469Y-105766704D01*
X154450528Y-105807763D01*
X154353691Y-105904600D01*
X149197757Y-105904600D01*
X149121099Y-105853379D01*
X148959312Y-105786364D01*
X148787559Y-105752200D01*
X148612441Y-105752200D01*
X148440688Y-105786364D01*
X148278901Y-105853379D01*
X148133296Y-105950669D01*
X148009469Y-106074496D01*
X147912179Y-106220101D01*
X147874527Y-106311000D01*
X147812441Y-106311000D01*
X147640688Y-106345164D01*
X147478901Y-106412179D01*
X147333296Y-106509469D01*
X147209469Y-106633296D01*
X147112179Y-106778901D01*
X147045164Y-106940688D01*
X147011000Y-107112441D01*
X147011000Y-107287559D01*
X147045164Y-107459312D01*
X147112179Y-107621099D01*
X147209469Y-107766704D01*
X147333296Y-107890531D01*
X147468257Y-107980709D01*
X147370000Y-108127760D01*
X147253475Y-107953368D01*
X147046632Y-107746525D01*
X146803411Y-107584010D01*
X146533158Y-107472068D01*
X146246260Y-107415000D01*
X145953740Y-107415000D01*
X145666842Y-107472068D01*
X145396589Y-107584010D01*
X145153368Y-107746525D01*
X144946525Y-107953368D01*
X144830000Y-108127760D01*
X144713475Y-107953368D01*
X144506632Y-107746525D01*
X144263411Y-107584010D01*
X143993158Y-107472068D01*
X143706260Y-107415000D01*
X143413740Y-107415000D01*
X143126842Y-107472068D01*
X142856589Y-107584010D01*
X142613368Y-107746525D01*
X142406525Y-107953368D01*
X142284805Y-108135534D01*
X142215178Y-108018645D01*
X142020269Y-107802412D01*
X141959740Y-107757264D01*
X141974482Y-107755812D01*
X142094180Y-107719502D01*
X142204494Y-107660537D01*
X142301185Y-107581185D01*
X142380537Y-107484494D01*
X142439502Y-107374180D01*
X142475812Y-107254482D01*
X142488072Y-107130000D01*
X142488072Y-105430000D01*
X142475812Y-105305518D01*
X142439502Y-105185820D01*
X142380537Y-105075506D01*
X142301185Y-104978815D01*
X142204494Y-104899463D01*
X142094180Y-104840498D01*
X142021620Y-104818487D01*
X142153475Y-104686632D01*
X142315990Y-104443411D01*
X142427932Y-104173158D01*
X142485000Y-103886260D01*
X142485000Y-103593740D01*
X142427932Y-103306842D01*
X142315990Y-103036589D01*
X142153475Y-102793368D01*
X141946632Y-102586525D01*
X141772240Y-102470000D01*
X141946632Y-102353475D01*
X142153475Y-102146632D01*
X142315990Y-101903411D01*
X142392287Y-101719212D01*
X142409768Y-101776838D01*
X142478166Y-101904802D01*
X142570215Y-102016964D01*
X142598322Y-102040031D01*
X142727177Y-102168886D01*
X142745164Y-102259312D01*
X142812179Y-102421099D01*
X142909469Y-102566704D01*
X143033296Y-102690531D01*
X143178901Y-102787821D01*
X143340688Y-102854836D01*
X143512441Y-102889000D01*
X143687559Y-102889000D01*
X143859312Y-102854836D01*
X144021099Y-102787821D01*
X144166704Y-102690531D01*
X144290531Y-102566704D01*
X144387821Y-102421099D01*
X144454836Y-102259312D01*
X144489000Y-102087559D01*
X144489000Y-102068822D01*
X144559312Y-102054836D01*
X144721099Y-101987821D01*
X144866704Y-101890531D01*
X144990531Y-101766704D01*
X145087821Y-101621099D01*
X145154836Y-101459312D01*
X145189000Y-101287559D01*
X145189000Y-101112441D01*
X145154836Y-100940688D01*
X145087821Y-100778901D01*
X144990531Y-100633296D01*
X144866704Y-100509469D01*
X144721099Y-100412179D01*
X144691697Y-100400000D01*
X144721099Y-100387821D01*
X144866704Y-100290531D01*
X144990531Y-100166704D01*
X145087821Y-100021099D01*
X145154836Y-99859312D01*
X145189000Y-99687559D01*
X145189000Y-99512441D01*
X145154836Y-99340688D01*
X145087821Y-99178901D01*
X145036600Y-99102243D01*
X145036600Y-98205109D01*
X147539910Y-95701799D01*
X157369093Y-95701799D01*
X157315000Y-95973740D01*
G36*
X157479845Y-106153000D02*
G01*
X158673000Y-106153000D01*
X158673000Y-106133000D01*
X158927000Y-106133000D01*
X158927000Y-106153000D01*
X158947000Y-106153000D01*
X158947000Y-106407000D01*
X158927000Y-106407000D01*
X158927000Y-106427000D01*
X158673000Y-106427000D01*
X158673000Y-106407000D01*
X157479845Y-106407000D01*
X157358524Y-106636890D01*
X157403175Y-106784099D01*
X157528359Y-107046920D01*
X157702412Y-107280269D01*
X157858475Y-107420942D01*
X157825518Y-107424188D01*
X157705820Y-107460498D01*
X157595506Y-107519463D01*
X157498815Y-107598815D01*
X157419463Y-107695506D01*
X157360498Y-107805820D01*
X157338487Y-107878380D01*
X157206632Y-107746525D01*
X156963411Y-107584010D01*
X156693158Y-107472068D01*
X156406260Y-107415000D01*
X156113740Y-107415000D01*
X155880268Y-107461441D01*
X157379276Y-105962433D01*
X157479845Y-106153000D01*
G37*
X157479845Y-106153000D02*
X158673000Y-106153000D01*
X158673000Y-106133000D01*
X158927000Y-106133000D01*
X158927000Y-106153000D01*
X158947000Y-106153000D01*
X158947000Y-106407000D01*
X158927000Y-106407000D01*
X158927000Y-106427000D01*
X158673000Y-106427000D01*
X158673000Y-106407000D01*
X157479845Y-106407000D01*
X157358524Y-106636890D01*
X157403175Y-106784099D01*
X157528359Y-107046920D01*
X157702412Y-107280269D01*
X157858475Y-107420942D01*
X157825518Y-107424188D01*
X157705820Y-107460498D01*
X157595506Y-107519463D01*
X157498815Y-107598815D01*
X157419463Y-107695506D01*
X157360498Y-107805820D01*
X157338487Y-107878380D01*
X157206632Y-107746525D01*
X156963411Y-107584010D01*
X156693158Y-107472068D01*
X156406260Y-107415000D01*
X156113740Y-107415000D01*
X155880268Y-107461441D01*
X157379276Y-105962433D01*
X157479845Y-106153000D01*
G36*
X155564682Y-84132399D02*
G01*
X155445790Y-84320471D01*
X155365874Y-84528124D01*
X155490871Y-84703000D01*
X156333000Y-84703000D01*
X156333000Y-84683000D01*
X156587000Y-84683000D01*
X156587000Y-84703000D01*
X156598026Y-84703000D01*
X156595000Y-84718212D01*
X156595000Y-84941788D01*
X156598026Y-84957000D01*
X156587000Y-84957000D01*
X156587000Y-84961928D01*
X156333000Y-84961928D01*
X156333000Y-84957000D01*
X155490871Y-84957000D01*
X155365874Y-85131876D01*
X155417918Y-85267106D01*
X155370498Y-85355820D01*
X155334188Y-85475518D01*
X155321928Y-85600000D01*
X155321928Y-86600000D01*
X155334188Y-86724482D01*
X155370498Y-86844180D01*
X155429463Y-86954494D01*
X155508815Y-87051185D01*
X155605506Y-87130537D01*
X155715820Y-87189502D01*
X155835518Y-87225812D01*
X155841492Y-87226400D01*
X155189927Y-87877965D01*
X155147932Y-87666842D01*
X155035990Y-87396589D01*
X154873475Y-87153368D01*
X154666632Y-86946525D01*
X154423411Y-86784010D01*
X154153158Y-86672068D01*
X153866260Y-86615000D01*
X153573740Y-86615000D01*
X153286842Y-86672068D01*
X153016589Y-86784010D01*
X152773368Y-86946525D01*
X152566525Y-87153368D01*
X152450000Y-87327760D01*
X152333475Y-87153368D01*
X152126632Y-86946525D01*
X151883411Y-86784010D01*
X151613158Y-86672068D01*
X151326260Y-86615000D01*
X151033740Y-86615000D01*
X150746842Y-86672068D01*
X150476589Y-86784010D01*
X150323885Y-86886044D01*
X147638083Y-84200243D01*
X147587821Y-84078901D01*
X147575192Y-84060000D01*
X155633505Y-84060000D01*
X155564682Y-84132399D01*
G37*
X155564682Y-84132399D02*
X155445790Y-84320471D01*
X155365874Y-84528124D01*
X155490871Y-84703000D01*
X156333000Y-84703000D01*
X156333000Y-84683000D01*
X156587000Y-84683000D01*
X156587000Y-84703000D01*
X156598026Y-84703000D01*
X156595000Y-84718212D01*
X156595000Y-84941788D01*
X156598026Y-84957000D01*
X156587000Y-84957000D01*
X156587000Y-84961928D01*
X156333000Y-84961928D01*
X156333000Y-84957000D01*
X155490871Y-84957000D01*
X155365874Y-85131876D01*
X155417918Y-85267106D01*
X155370498Y-85355820D01*
X155334188Y-85475518D01*
X155321928Y-85600000D01*
X155321928Y-86600000D01*
X155334188Y-86724482D01*
X155370498Y-86844180D01*
X155429463Y-86954494D01*
X155508815Y-87051185D01*
X155605506Y-87130537D01*
X155715820Y-87189502D01*
X155835518Y-87225812D01*
X155841492Y-87226400D01*
X155189927Y-87877965D01*
X155147932Y-87666842D01*
X155035990Y-87396589D01*
X154873475Y-87153368D01*
X154666632Y-86946525D01*
X154423411Y-86784010D01*
X154153158Y-86672068D01*
X153866260Y-86615000D01*
X153573740Y-86615000D01*
X153286842Y-86672068D01*
X153016589Y-86784010D01*
X152773368Y-86946525D01*
X152566525Y-87153368D01*
X152450000Y-87327760D01*
X152333475Y-87153368D01*
X152126632Y-86946525D01*
X151883411Y-86784010D01*
X151613158Y-86672068D01*
X151326260Y-86615000D01*
X151033740Y-86615000D01*
X150746842Y-86672068D01*
X150476589Y-86784010D01*
X150323885Y-86886044D01*
X147638083Y-84200243D01*
X147587821Y-84078901D01*
X147575192Y-84060000D01*
X155633505Y-84060000D01*
X155564682Y-84132399D01*
M02*
