G04 #@! TF.GenerationSoftware,KiCad,Pcbnew,(5.1.5-0-10_14)*
G04 #@! TF.CreationDate,2020-06-21T17:17:39+09:00*
G04 #@! TF.ProjectId,TriCon,54726943-6f6e-42e6-9b69-6361645f7063,1.1*
G04 #@! TF.SameCoordinates,Original*
G04 #@! TF.FileFunction,Legend,Top*
G04 #@! TF.FilePolarity,Positive*
%FSLAX46Y46*%
G04 Gerber Fmt 4.6, Leading zero omitted, Abs format (unit mm)*
G04 Created by KiCad (PCBNEW (5.1.5-0-10_14)) date 2020-06-21 17:17:39*
%MOMM*%
%LPD*%
G04 APERTURE LIST*
%ADD10C,0.150000*%
%ADD11C,0.120000*%
%ADD12C,0.200000*%
G04 APERTURE END LIST*
D10*
X147761904Y-83827380D02*
X148333333Y-83827380D01*
X148047619Y-84827380D02*
X148047619Y-83827380D01*
X148666666Y-84827380D02*
X148666666Y-84160714D01*
X148666666Y-84351190D02*
X148714285Y-84255952D01*
X148761904Y-84208333D01*
X148857142Y-84160714D01*
X148952380Y-84160714D01*
X149285714Y-84827380D02*
X149285714Y-84160714D01*
X149285714Y-83827380D02*
X149238095Y-83875000D01*
X149285714Y-83922619D01*
X149333333Y-83875000D01*
X149285714Y-83827380D01*
X149285714Y-83922619D01*
X150333333Y-84732142D02*
X150285714Y-84779761D01*
X150142857Y-84827380D01*
X150047619Y-84827380D01*
X149904761Y-84779761D01*
X149809523Y-84684523D01*
X149761904Y-84589285D01*
X149714285Y-84398809D01*
X149714285Y-84255952D01*
X149761904Y-84065476D01*
X149809523Y-83970238D01*
X149904761Y-83875000D01*
X150047619Y-83827380D01*
X150142857Y-83827380D01*
X150285714Y-83875000D01*
X150333333Y-83922619D01*
X150904761Y-84827380D02*
X150809523Y-84779761D01*
X150761904Y-84732142D01*
X150714285Y-84636904D01*
X150714285Y-84351190D01*
X150761904Y-84255952D01*
X150809523Y-84208333D01*
X150904761Y-84160714D01*
X151047619Y-84160714D01*
X151142857Y-84208333D01*
X151190476Y-84255952D01*
X151238095Y-84351190D01*
X151238095Y-84636904D01*
X151190476Y-84732142D01*
X151142857Y-84779761D01*
X151047619Y-84827380D01*
X150904761Y-84827380D01*
X151666666Y-84160714D02*
X151666666Y-84827380D01*
X151666666Y-84255952D02*
X151714285Y-84208333D01*
X151809523Y-84160714D01*
X151952380Y-84160714D01*
X152047619Y-84208333D01*
X152095238Y-84303571D01*
X152095238Y-84827380D01*
X148571428Y-85810714D02*
X148809523Y-86477380D01*
X149047619Y-85810714D01*
X149952380Y-86477380D02*
X149380952Y-86477380D01*
X149666666Y-86477380D02*
X149666666Y-85477380D01*
X149571428Y-85620238D01*
X149476190Y-85715476D01*
X149380952Y-85763095D01*
X150380952Y-86382142D02*
X150428571Y-86429761D01*
X150380952Y-86477380D01*
X150333333Y-86429761D01*
X150380952Y-86382142D01*
X150380952Y-86477380D01*
X151380952Y-86477380D02*
X150809523Y-86477380D01*
X151095238Y-86477380D02*
X151095238Y-85477380D01*
X151000000Y-85620238D01*
X150904761Y-85715476D01*
X150809523Y-85763095D01*
D11*
X146290000Y-96690000D02*
X144975000Y-96690000D01*
X146290000Y-96390000D02*
X146290000Y-96690000D01*
X146590000Y-96390000D02*
X146290000Y-96390000D01*
X153510000Y-96390000D02*
X153510000Y-96690000D01*
X153210000Y-96390000D02*
X153510000Y-96390000D01*
X146290000Y-103610000D02*
X146290000Y-103310000D01*
X146590000Y-103610000D02*
X146290000Y-103610000D01*
X153510000Y-103610000D02*
X153510000Y-103310000D01*
X153210000Y-103610000D02*
X153510000Y-103610000D01*
D12*
X144500000Y-97200000D02*
G75*
G03X144500000Y-97200000I-100000J0D01*
G01*
D11*
X153590000Y-104928733D02*
X153590000Y-105271267D01*
X154610000Y-104928733D02*
X154610000Y-105271267D01*
X146210000Y-95071267D02*
X146210000Y-94728733D01*
X145190000Y-95071267D02*
X145190000Y-94728733D01*
X148410000Y-93371267D02*
X148410000Y-93028733D01*
X147390000Y-93371267D02*
X147390000Y-93028733D01*
D10*
X148447619Y-89552380D02*
X148638095Y-89552380D01*
X148733333Y-89600000D01*
X148828571Y-89695238D01*
X148876190Y-89885714D01*
X148876190Y-90219047D01*
X148828571Y-90409523D01*
X148733333Y-90504761D01*
X148638095Y-90552380D01*
X148447619Y-90552380D01*
X148352380Y-90504761D01*
X148257142Y-90409523D01*
X148209523Y-90219047D01*
X148209523Y-89885714D01*
X148257142Y-89695238D01*
X148352380Y-89600000D01*
X148447619Y-89552380D01*
X149780952Y-90552380D02*
X149304761Y-90552380D01*
X149304761Y-89552380D01*
X150114285Y-90028571D02*
X150447619Y-90028571D01*
X150590476Y-90552380D02*
X150114285Y-90552380D01*
X150114285Y-89552380D01*
X150590476Y-89552380D01*
X151019047Y-90552380D02*
X151019047Y-89552380D01*
X151257142Y-89552380D01*
X151400000Y-89600000D01*
X151495238Y-89695238D01*
X151542857Y-89790476D01*
X151590476Y-89980952D01*
X151590476Y-90123809D01*
X151542857Y-90314285D01*
X151495238Y-90409523D01*
X151400000Y-90504761D01*
X151257142Y-90552380D01*
X151019047Y-90552380D01*
X149138095Y-93752380D02*
X149138095Y-94561904D01*
X149185714Y-94657142D01*
X149233333Y-94704761D01*
X149328571Y-94752380D01*
X149519047Y-94752380D01*
X149614285Y-94704761D01*
X149661904Y-94657142D01*
X149709523Y-94561904D01*
X149709523Y-93752380D01*
X150709523Y-94752380D02*
X150138095Y-94752380D01*
X150423809Y-94752380D02*
X150423809Y-93752380D01*
X150328571Y-93895238D01*
X150233333Y-93990476D01*
X150138095Y-94038095D01*
X144209523Y-111257142D02*
X144161904Y-111304761D01*
X144019047Y-111352380D01*
X143923809Y-111352380D01*
X143780952Y-111304761D01*
X143685714Y-111209523D01*
X143638095Y-111114285D01*
X143590476Y-110923809D01*
X143590476Y-110780952D01*
X143638095Y-110590476D01*
X143685714Y-110495238D01*
X143780952Y-110400000D01*
X143923809Y-110352380D01*
X144019047Y-110352380D01*
X144161904Y-110400000D01*
X144209523Y-110447619D01*
X145019047Y-111304761D02*
X144923809Y-111352380D01*
X144733333Y-111352380D01*
X144638095Y-111304761D01*
X144590476Y-111209523D01*
X144590476Y-110828571D01*
X144638095Y-110733333D01*
X144733333Y-110685714D01*
X144923809Y-110685714D01*
X145019047Y-110733333D01*
X145066666Y-110828571D01*
X145066666Y-110923809D01*
X144590476Y-111019047D01*
X145495238Y-110685714D02*
X145495238Y-111352380D01*
X145495238Y-110780952D02*
X145542857Y-110733333D01*
X145638095Y-110685714D01*
X145780952Y-110685714D01*
X145876190Y-110733333D01*
X145923809Y-110828571D01*
X145923809Y-111352380D01*
X146257142Y-110685714D02*
X146638095Y-110685714D01*
X146400000Y-110352380D02*
X146400000Y-111209523D01*
X146447619Y-111304761D01*
X146542857Y-111352380D01*
X146638095Y-111352380D01*
X147352380Y-111304761D02*
X147257142Y-111352380D01*
X147066666Y-111352380D01*
X146971428Y-111304761D01*
X146923809Y-111209523D01*
X146923809Y-110828571D01*
X146971428Y-110733333D01*
X147066666Y-110685714D01*
X147257142Y-110685714D01*
X147352380Y-110733333D01*
X147400000Y-110828571D01*
X147400000Y-110923809D01*
X146923809Y-111019047D01*
X147828571Y-111352380D02*
X147828571Y-110685714D01*
X147828571Y-110876190D02*
X147876190Y-110780952D01*
X147923809Y-110733333D01*
X148019047Y-110685714D01*
X148114285Y-110685714D01*
X149780952Y-111257142D02*
X149733333Y-111304761D01*
X149590476Y-111352380D01*
X149495238Y-111352380D01*
X149352380Y-111304761D01*
X149257142Y-111209523D01*
X149209523Y-111114285D01*
X149161904Y-110923809D01*
X149161904Y-110780952D01*
X149209523Y-110590476D01*
X149257142Y-110495238D01*
X149352380Y-110400000D01*
X149495238Y-110352380D01*
X149590476Y-110352380D01*
X149733333Y-110400000D01*
X149780952Y-110447619D01*
X150352380Y-111352380D02*
X150257142Y-111304761D01*
X150209523Y-111257142D01*
X150161904Y-111161904D01*
X150161904Y-110876190D01*
X150209523Y-110780952D01*
X150257142Y-110733333D01*
X150352380Y-110685714D01*
X150495238Y-110685714D01*
X150590476Y-110733333D01*
X150638095Y-110780952D01*
X150685714Y-110876190D01*
X150685714Y-111161904D01*
X150638095Y-111257142D01*
X150590476Y-111304761D01*
X150495238Y-111352380D01*
X150352380Y-111352380D01*
X151114285Y-110685714D02*
X151114285Y-111352380D01*
X151114285Y-110780952D02*
X151161904Y-110733333D01*
X151257142Y-110685714D01*
X151400000Y-110685714D01*
X151495238Y-110733333D01*
X151542857Y-110828571D01*
X151542857Y-111352380D01*
X151876190Y-110685714D02*
X152257142Y-110685714D01*
X152019047Y-110352380D02*
X152019047Y-111209523D01*
X152066666Y-111304761D01*
X152161904Y-111352380D01*
X152257142Y-111352380D01*
X152590476Y-111352380D02*
X152590476Y-110685714D01*
X152590476Y-110876190D02*
X152638095Y-110780952D01*
X152685714Y-110733333D01*
X152780952Y-110685714D01*
X152876190Y-110685714D01*
X153352380Y-111352380D02*
X153257142Y-111304761D01*
X153209523Y-111257142D01*
X153161904Y-111161904D01*
X153161904Y-110876190D01*
X153209523Y-110780952D01*
X153257142Y-110733333D01*
X153352380Y-110685714D01*
X153495238Y-110685714D01*
X153590476Y-110733333D01*
X153638095Y-110780952D01*
X153685714Y-110876190D01*
X153685714Y-111161904D01*
X153638095Y-111257142D01*
X153590476Y-111304761D01*
X153495238Y-111352380D01*
X153352380Y-111352380D01*
X154257142Y-111352380D02*
X154161904Y-111304761D01*
X154114285Y-111209523D01*
X154114285Y-110352380D01*
X154780952Y-111352380D02*
X154685714Y-111304761D01*
X154638095Y-111209523D01*
X154638095Y-110352380D01*
X155542857Y-111304761D02*
X155447619Y-111352380D01*
X155257142Y-111352380D01*
X155161904Y-111304761D01*
X155114285Y-111209523D01*
X155114285Y-110828571D01*
X155161904Y-110733333D01*
X155257142Y-110685714D01*
X155447619Y-110685714D01*
X155542857Y-110733333D01*
X155590476Y-110828571D01*
X155590476Y-110923809D01*
X155114285Y-111019047D01*
X156019047Y-111352380D02*
X156019047Y-110685714D01*
X156019047Y-110876190D02*
X156066666Y-110780952D01*
X156114285Y-110733333D01*
X156209523Y-110685714D01*
X156304761Y-110685714D01*
X161252380Y-102614285D02*
X160776190Y-102947619D01*
X161252380Y-103185714D02*
X160252380Y-103185714D01*
X160252380Y-102804761D01*
X160300000Y-102709523D01*
X160347619Y-102661904D01*
X160442857Y-102614285D01*
X160585714Y-102614285D01*
X160680952Y-102661904D01*
X160728571Y-102709523D01*
X160776190Y-102804761D01*
X160776190Y-103185714D01*
X161252380Y-102185714D02*
X160585714Y-102185714D01*
X160252380Y-102185714D02*
X160300000Y-102233333D01*
X160347619Y-102185714D01*
X160300000Y-102138095D01*
X160252380Y-102185714D01*
X160347619Y-102185714D01*
X160585714Y-101280952D02*
X161395238Y-101280952D01*
X161490476Y-101328571D01*
X161538095Y-101376190D01*
X161585714Y-101471428D01*
X161585714Y-101614285D01*
X161538095Y-101709523D01*
X161204761Y-101280952D02*
X161252380Y-101376190D01*
X161252380Y-101566666D01*
X161204761Y-101661904D01*
X161157142Y-101709523D01*
X161061904Y-101757142D01*
X160776190Y-101757142D01*
X160680952Y-101709523D01*
X160633333Y-101661904D01*
X160585714Y-101566666D01*
X160585714Y-101376190D01*
X160633333Y-101280952D01*
X161252380Y-100804761D02*
X160252380Y-100804761D01*
X161252380Y-100376190D02*
X160728571Y-100376190D01*
X160633333Y-100423809D01*
X160585714Y-100519047D01*
X160585714Y-100661904D01*
X160633333Y-100757142D01*
X160680952Y-100804761D01*
X160585714Y-100042857D02*
X160585714Y-99661904D01*
X160252380Y-99900000D02*
X161109523Y-99900000D01*
X161204761Y-99852380D01*
X161252380Y-99757142D01*
X161252380Y-99661904D01*
X161157142Y-97995238D02*
X161204761Y-98042857D01*
X161252380Y-98185714D01*
X161252380Y-98280952D01*
X161204761Y-98423809D01*
X161109523Y-98519047D01*
X161014285Y-98566666D01*
X160823809Y-98614285D01*
X160680952Y-98614285D01*
X160490476Y-98566666D01*
X160395238Y-98519047D01*
X160300000Y-98423809D01*
X160252380Y-98280952D01*
X160252380Y-98185714D01*
X160300000Y-98042857D01*
X160347619Y-97995238D01*
X161252380Y-97423809D02*
X161204761Y-97519047D01*
X161157142Y-97566666D01*
X161061904Y-97614285D01*
X160776190Y-97614285D01*
X160680952Y-97566666D01*
X160633333Y-97519047D01*
X160585714Y-97423809D01*
X160585714Y-97280952D01*
X160633333Y-97185714D01*
X160680952Y-97138095D01*
X160776190Y-97090476D01*
X161061904Y-97090476D01*
X161157142Y-97138095D01*
X161204761Y-97185714D01*
X161252380Y-97280952D01*
X161252380Y-97423809D01*
X160585714Y-96661904D02*
X161252380Y-96661904D01*
X160680952Y-96661904D02*
X160633333Y-96614285D01*
X160585714Y-96519047D01*
X160585714Y-96376190D01*
X160633333Y-96280952D01*
X160728571Y-96233333D01*
X161252380Y-96233333D01*
X160585714Y-95900000D02*
X160585714Y-95519047D01*
X160252380Y-95757142D02*
X161109523Y-95757142D01*
X161204761Y-95709523D01*
X161252380Y-95614285D01*
X161252380Y-95519047D01*
X161252380Y-95185714D02*
X160585714Y-95185714D01*
X160776190Y-95185714D02*
X160680952Y-95138095D01*
X160633333Y-95090476D01*
X160585714Y-94995238D01*
X160585714Y-94900000D01*
X161252380Y-94423809D02*
X161204761Y-94519047D01*
X161157142Y-94566666D01*
X161061904Y-94614285D01*
X160776190Y-94614285D01*
X160680952Y-94566666D01*
X160633333Y-94519047D01*
X160585714Y-94423809D01*
X160585714Y-94280952D01*
X160633333Y-94185714D01*
X160680952Y-94138095D01*
X160776190Y-94090476D01*
X161061904Y-94090476D01*
X161157142Y-94138095D01*
X161204761Y-94185714D01*
X161252380Y-94280952D01*
X161252380Y-94423809D01*
X161252380Y-93519047D02*
X161204761Y-93614285D01*
X161109523Y-93661904D01*
X160252380Y-93661904D01*
X161252380Y-92995238D02*
X161204761Y-93090476D01*
X161109523Y-93138095D01*
X160252380Y-93138095D01*
X161204761Y-92233333D02*
X161252380Y-92328571D01*
X161252380Y-92519047D01*
X161204761Y-92614285D01*
X161109523Y-92661904D01*
X160728571Y-92661904D01*
X160633333Y-92614285D01*
X160585714Y-92519047D01*
X160585714Y-92328571D01*
X160633333Y-92233333D01*
X160728571Y-92185714D01*
X160823809Y-92185714D01*
X160919047Y-92661904D01*
X161252380Y-91757142D02*
X160585714Y-91757142D01*
X160776190Y-91757142D02*
X160680952Y-91709523D01*
X160633333Y-91661904D01*
X160585714Y-91566666D01*
X160585714Y-91471428D01*
X138547619Y-92614285D02*
X138547619Y-92138095D01*
X139547619Y-92138095D01*
X138595238Y-93328571D02*
X138547619Y-93233333D01*
X138547619Y-93042857D01*
X138595238Y-92947619D01*
X138690476Y-92900000D01*
X139071428Y-92900000D01*
X139166666Y-92947619D01*
X139214285Y-93042857D01*
X139214285Y-93233333D01*
X139166666Y-93328571D01*
X139071428Y-93376190D01*
X138976190Y-93376190D01*
X138880952Y-92900000D01*
X139214285Y-93661904D02*
X139214285Y-94042857D01*
X138547619Y-93804761D02*
X139404761Y-93804761D01*
X139500000Y-93852380D01*
X139547619Y-93947619D01*
X139547619Y-94042857D01*
X139214285Y-94233333D02*
X139214285Y-94614285D01*
X139547619Y-94376190D02*
X138690476Y-94376190D01*
X138595238Y-94423809D01*
X138547619Y-94519047D01*
X138547619Y-94614285D01*
X138642857Y-96280952D02*
X138595238Y-96233333D01*
X138547619Y-96090476D01*
X138547619Y-95995238D01*
X138595238Y-95852380D01*
X138690476Y-95757142D01*
X138785714Y-95709523D01*
X138976190Y-95661904D01*
X139119047Y-95661904D01*
X139309523Y-95709523D01*
X139404761Y-95757142D01*
X139500000Y-95852380D01*
X139547619Y-95995238D01*
X139547619Y-96090476D01*
X139500000Y-96233333D01*
X139452380Y-96280952D01*
X138547619Y-96852380D02*
X138595238Y-96757142D01*
X138642857Y-96709523D01*
X138738095Y-96661904D01*
X139023809Y-96661904D01*
X139119047Y-96709523D01*
X139166666Y-96757142D01*
X139214285Y-96852380D01*
X139214285Y-96995238D01*
X139166666Y-97090476D01*
X139119047Y-97138095D01*
X139023809Y-97185714D01*
X138738095Y-97185714D01*
X138642857Y-97138095D01*
X138595238Y-97090476D01*
X138547619Y-96995238D01*
X138547619Y-96852380D01*
X139214285Y-97614285D02*
X138547619Y-97614285D01*
X139119047Y-97614285D02*
X139166666Y-97661904D01*
X139214285Y-97757142D01*
X139214285Y-97900000D01*
X139166666Y-97995238D01*
X139071428Y-98042857D01*
X138547619Y-98042857D01*
X139214285Y-98376190D02*
X139214285Y-98757142D01*
X139547619Y-98519047D02*
X138690476Y-98519047D01*
X138595238Y-98566666D01*
X138547619Y-98661904D01*
X138547619Y-98757142D01*
X138547619Y-99090476D02*
X139214285Y-99090476D01*
X139023809Y-99090476D02*
X139119047Y-99138095D01*
X139166666Y-99185714D01*
X139214285Y-99280952D01*
X139214285Y-99376190D01*
X138547619Y-99852380D02*
X138595238Y-99757142D01*
X138642857Y-99709523D01*
X138738095Y-99661904D01*
X139023809Y-99661904D01*
X139119047Y-99709523D01*
X139166666Y-99757142D01*
X139214285Y-99852380D01*
X139214285Y-99995238D01*
X139166666Y-100090476D01*
X139119047Y-100138095D01*
X139023809Y-100185714D01*
X138738095Y-100185714D01*
X138642857Y-100138095D01*
X138595238Y-100090476D01*
X138547619Y-99995238D01*
X138547619Y-99852380D01*
X138547619Y-100757142D02*
X138595238Y-100661904D01*
X138690476Y-100614285D01*
X139547619Y-100614285D01*
X138547619Y-101280952D02*
X138595238Y-101185714D01*
X138690476Y-101138095D01*
X139547619Y-101138095D01*
X138595238Y-102042857D02*
X138547619Y-101947619D01*
X138547619Y-101757142D01*
X138595238Y-101661904D01*
X138690476Y-101614285D01*
X139071428Y-101614285D01*
X139166666Y-101661904D01*
X139214285Y-101757142D01*
X139214285Y-101947619D01*
X139166666Y-102042857D01*
X139071428Y-102090476D01*
X138976190Y-102090476D01*
X138880952Y-101614285D01*
X138547619Y-102519047D02*
X139214285Y-102519047D01*
X139023809Y-102519047D02*
X139119047Y-102566666D01*
X139166666Y-102614285D01*
X139214285Y-102709523D01*
X139214285Y-102804761D01*
X155533333Y-106757142D02*
X155485714Y-106804761D01*
X155342857Y-106852380D01*
X155247619Y-106852380D01*
X155104761Y-106804761D01*
X155009523Y-106709523D01*
X154961904Y-106614285D01*
X154914285Y-106423809D01*
X154914285Y-106280952D01*
X154961904Y-106090476D01*
X155009523Y-105995238D01*
X155104761Y-105900000D01*
X155247619Y-105852380D01*
X155342857Y-105852380D01*
X155485714Y-105900000D01*
X155533333Y-105947619D01*
X155914285Y-105947619D02*
X155961904Y-105900000D01*
X156057142Y-105852380D01*
X156295238Y-105852380D01*
X156390476Y-105900000D01*
X156438095Y-105947619D01*
X156485714Y-106042857D01*
X156485714Y-106138095D01*
X156438095Y-106280952D01*
X155866666Y-106852380D01*
X156485714Y-106852380D01*
X143933333Y-95257142D02*
X143885714Y-95304761D01*
X143742857Y-95352380D01*
X143647619Y-95352380D01*
X143504761Y-95304761D01*
X143409523Y-95209523D01*
X143361904Y-95114285D01*
X143314285Y-94923809D01*
X143314285Y-94780952D01*
X143361904Y-94590476D01*
X143409523Y-94495238D01*
X143504761Y-94400000D01*
X143647619Y-94352380D01*
X143742857Y-94352380D01*
X143885714Y-94400000D01*
X143933333Y-94447619D01*
X144885714Y-95352380D02*
X144314285Y-95352380D01*
X144600000Y-95352380D02*
X144600000Y-94352380D01*
X144504761Y-94495238D01*
X144409523Y-94590476D01*
X144314285Y-94638095D01*
X146033333Y-92852380D02*
X145700000Y-92376190D01*
X145461904Y-92852380D02*
X145461904Y-91852380D01*
X145842857Y-91852380D01*
X145938095Y-91900000D01*
X145985714Y-91947619D01*
X146033333Y-92042857D01*
X146033333Y-92185714D01*
X145985714Y-92280952D01*
X145938095Y-92328571D01*
X145842857Y-92376190D01*
X145461904Y-92376190D01*
X146985714Y-92852380D02*
X146414285Y-92852380D01*
X146700000Y-92852380D02*
X146700000Y-91852380D01*
X146604761Y-91995238D01*
X146509523Y-92090476D01*
X146414285Y-92138095D01*
M02*
